<svg width="12" height="8" viewBox="0 0 12 8" fill="none" xmlns="http://www.w3.org/2000/svg">
<path d="M11.8082 1.04747L11.4151 0.651665C11.2914 0.528054 11.1268 0.459956 10.9509 0.459956C10.7751 0.459956 10.6103 0.528054 10.4866 0.651665L6.00268 5.1358L1.51357 0.64669C1.39006 0.523079 1.22528 0.455078 1.04947 0.455078C0.873666 0.455078 0.708786 0.523079 0.585176 0.64669L0.192002 1.04006C-0.0640005 1.29587 -0.0640005 1.71255 0.192002 1.96836L5.53683 7.3324C5.66034 7.45592 5.82493 7.54294 6.00229 7.54294H6.00434C6.18025 7.54294 6.34483 7.45582 6.46835 7.3324L11.8082 1.9829C11.9319 1.85938 11.9998 1.68982 12 1.51401C12 1.33811 11.9319 1.17089 11.8082 1.04747Z" fill="#4434B2"/>
</svg>
