<?xml version="1.0" standalone="no"?>
<!DOCTYPE svg PUBLIC "-//W3C//DTD SVG 1.1//EN" "http://www.w3.org/Graphics/SVG/1.1/DTD/svg11.dtd" >
<svg xmlns="http://www.w3.org/2000/svg" xmlns:xlink="http://www.w3.org/1999/xlink" version="1.1">
<metadata>
Created by FontForge 20190801 at Tue May 27 17:10:38 2014
 By Jimmy Wärting
Copyright (c) 2014 by S-Core Co., Ltd.. All rights reserved.
</metadata>
<defs>
<font id="CoreSansA45Regular" horiz-adv-x="410" >
  <font-face 
    font-family="Core Sans A 45 Regular"
    font-weight="400"
    font-stretch="normal"
    units-per-em="1000"
    panose-1="2 11 5 3 3 3 2 2 2 4"
    ascent="800"
    descent="-200"
    x-height="518"
    cap-height="700"
    bbox="-419 -261 1020 1000"
    underline-thickness="24"
    underline-position="-207"
    stemh="78"
    stemv="84"
    unicode-range="U+0008-FB04"
  />
<missing-glyph horiz-adv-x="500" 
d="M430 0h-360v750h360v-750zM145 65h210v620h-210v-620z" />
    <glyph glyph-name="f_i" unicode="fi" horiz-adv-x="566" 
d="M276 730c19 0 39 -1 53 -3v-74c-16 2 -33 3 -51 3c-67 0 -86 -31 -86 -90v-48h299v-518h-84v446h-215v-446h-84v446h-93v72h93v54c0 109 50 158 168 158zM393 677c0 32 24 56 56 56s56 -24 56 -56s-24 -56 -56 -56s-56 24 -56 56z" />
    <glyph glyph-name="f_l" unicode="fl" horiz-adv-x="552" 
d="M276 730c35 0 80 -6 117 -14v14h84v-730h-84v645c-39 7 -77 11 -115 11c-67 0 -86 -31 -86 -90v-48h127v-72h-127v-446h-84v446h-93v72h93v54c0 109 50 158 168 158z" />
    <glyph glyph-name="f_f" unicode="ff" horiz-adv-x="634" 
d="M566 730c19 0 39 -1 53 -3v-74c-16 2 -33 3 -51 3c-67 0 -86 -31 -86 -90v-48h127v-72h-127v-446h-84v446h-206v-446h-84v446h-93v72h93v54c0 109 50 158 168 158c19 0 39 -1 53 -3v-74c-16 2 -33 3 -51 3c-67 0 -86 -31 -86 -90v-48h206v54c0 109 50 158 168 158z" />
    <glyph glyph-name="f_f_i" unicode="ffi" horiz-adv-x="856" 
d="M566 730c19 0 39 -1 53 -3v-74c-16 2 -33 3 -51 3c-67 0 -86 -31 -86 -90v-48h299v-518h-84v446h-215v-446h-84v446h-206v-446h-84v446h-93v72h93v54c0 109 50 158 168 158c19 0 39 -1 53 -3v-74c-16 2 -33 3 -51 3c-67 0 -86 -31 -86 -90v-48h206v54
c0 109 50 158 168 158zM683 677c0 32 24 56 56 56s56 -24 56 -56s-24 -56 -56 -56s-56 24 -56 56z" />
    <glyph glyph-name="f_f_l" unicode="ffl" horiz-adv-x="842" 
d="M683 0v645c-39 7 -77 11 -115 11c-67 0 -86 -31 -86 -90v-48h127v-72h-127v-446h-84v446h-206v-446h-84v446h-93v72h93v54c0 109 50 158 168 158c19 0 39 -1 53 -3v-74c-16 2 -33 3 -51 3c-67 0 -86 -31 -86 -90v-48h206v54c0 109 50 158 168 158c35 0 80 -6 117 -14v14
h84v-730h-84z" />
    <glyph glyph-name=".notdef" horiz-adv-x="500" 
d="M430 0h-360v750h360v-750zM145 65h210v620h-210v-620z" />
    <glyph glyph-name="quotesingle" unicode="'" horiz-adv-x="292" 
d="M108 428l-13 272h102v-30l-27 -242h-62z" />
    <glyph glyph-name="parenleft" unicode="(" horiz-adv-x="359" 
d="M100 310c0 168 54 314 154 440l59 -29c-84 -125 -128 -260 -128 -411s44 -286 128 -411l-59 -29c-100 126 -154 272 -154 440z" />
    <glyph glyph-name="parenright" unicode=")" horiz-adv-x="359" 
d="M259 310c0 -168 -54 -314 -154 -440l-59 29c84 125 128 260 128 411s-44 286 -128 411l59 29c100 -126 154 -272 154 -440z" />
    <glyph glyph-name="asterisk" unicode="*" horiz-adv-x="546" 
d="M345 332l141 -73l-43 -75l-134 86l7 -159h-86l7 159l-134 -86l-43 75l141 73l-141 73l43 75l134 -86l-7 159h86l-7 -159l134 86l43 -75z" />
    <glyph glyph-name="plus" unicode="+" horiz-adv-x="618" 
d="M264 85v208h-204v78h204v208h90v-208h204v-78h-204v-208h-90z" />
    <glyph glyph-name="comma" unicode="," horiz-adv-x="300" 
d="M45 -137l75 263l98 -33l-104 -252z" />
    <glyph glyph-name="hyphen" unicode="-" horiz-adv-x="406" 
d="M346 289h-286v86h286v-86z" />
    <glyph glyph-name="period" unicode="." horiz-adv-x="300" 
d="M87 51c0 35 28 63 63 63s63 -28 63 -63s-28 -63 -63 -63s-63 28 -63 63z" />
    <glyph glyph-name="slash" unicode="/" horiz-adv-x="501" 
d="M499 718l-426 -842l-71 42l426 842z" />
    <glyph glyph-name="zero" unicode="0" horiz-adv-x="600" 
d="M47 350c0 204 80 362 253 362s253 -158 253 -362s-80 -362 -253 -362s-253 158 -253 362zM139 350c0 -175 53 -282 161 -282s161 107 161 282s-53 282 -161 282s-161 -107 -161 -282z" />
    <glyph glyph-name="one" unicode="1" horiz-adv-x="600" 
d="M286 594l-128 -91l-54 60l192 137h78v-700h-88v594z" />
    <glyph glyph-name="two" unicode="2" horiz-adv-x="600" 
d="M288 712c130 0 220 -72 220 -201c0 -81 -43 -162 -126 -255c-67 -75 -117 -123 -180 -178h317v-78h-447v69c87 76 151 141 224 220c79 85 120 154 120 226c0 69 -47 117 -131 117c-59 0 -118 -29 -166 -83l-64 52c66 71 145 111 233 111z" />
    <glyph glyph-name="three" unicode="3" horiz-adv-x="600" 
d="M304 632c-57 0 -119 -25 -165 -78l-64 52c64 73 146 106 231 106c123 0 213 -64 213 -178c0 -88 -61 -150 -126 -168c93 -25 149 -85 149 -177c0 -118 -87 -201 -238 -201c-107 0 -196 45 -251 117l64 52c52 -61 115 -91 183 -91c91 0 150 48 150 124
c0 97 -84 137 -181 137h-62v78h62c91 0 158 45 158 121c0 66 -47 106 -123 106z" />
    <glyph glyph-name="four" unicode="4" horiz-adv-x="600" 
d="M377 155h-339v73l345 472h82v-467h93v-78h-93v-155h-88v155zM377 551l-234 -318h234v318z" />
    <glyph glyph-name="five" unicode="5" horiz-adv-x="600" 
d="M126 329l-10 6v365h390v-78h-302v-203c29 10 70 14 103 14c139 0 235 -90 235 -234c0 -117 -88 -211 -230 -211c-102 0 -181 36 -241 111l63 54c55 -66 110 -87 177 -87c84 0 141 65 141 140c0 94 -67 147 -160 147c-51 0 -116 -8 -166 -24z" />
    <glyph glyph-name="six" unicode="6" horiz-adv-x="600" 
d="M313 632c-82 0 -148 -59 -158 -245c42 38 103 67 168 67c138 0 226 -101 226 -236c0 -137 -94 -230 -236 -230c-151 0 -249 97 -249 349c0 267 99 375 246 375c86 0 158 -34 209 -106l-66 -48c-36 50 -79 74 -140 74zM311 374c-59 0 -112 -24 -157 -70
c7 -177 74 -236 157 -236c97 0 148 57 148 153s-56 153 -148 153z" />
    <glyph glyph-name="seven" unicode="7" horiz-adv-x="600" 
d="M528 622l-272 -622h-98l275 622h-364v78h459v-78z" />
    <glyph glyph-name="eight" unicode="8" horiz-adv-x="600" 
d="M79 528c0 103 78 184 221 184c138 0 221 -83 221 -186c0 -69 -37 -127 -99 -165c93 -48 128 -105 128 -180c0 -117 -104 -193 -250 -193c-149 0 -250 76 -250 206c0 81 42 145 117 188c-62 39 -88 88 -88 146zM142 191c0 -78 65 -123 158 -123s158 40 158 110
s-44 105 -207 164l-9 3c-63 -35 -100 -91 -100 -154zM429 520c0 67 -50 112 -129 112c-80 0 -129 -44 -129 -104c0 -51 42 -86 175 -135c50 31 83 79 83 127z" />
    <glyph glyph-name="nine" unicode="9" horiz-adv-x="600" 
d="M275 68c78 0 157 53 170 244c-43 -38 -103 -66 -167 -66c-138 0 -226 101 -226 236c0 137 94 230 238 230c146 0 247 -99 247 -339c0 -278 -114 -385 -265 -385c-72 0 -137 24 -191 76l58 56c41 -37 84 -52 136 -52zM290 326c59 0 111 24 156 70c-5 182 -73 236 -156 236
c-97 0 -148 -57 -148 -153s56 -153 148 -153z" />
    <glyph glyph-name="colon" unicode=":" horiz-adv-x="300" 
d="M87 51c0 35 28 63 63 63s63 -28 63 -63s-28 -63 -63 -63s-63 28 -63 63zM87 467c0 35 28 63 63 63s63 -28 63 -63s-28 -63 -63 -63s-63 28 -63 63z" />
    <glyph glyph-name="semicolon" unicode=";" horiz-adv-x="300" 
d="M87 467c0 35 28 63 63 63s63 -28 63 -63s-28 -63 -63 -63s-63 28 -63 63zM33 -137l75 263l98 -33l-104 -252z" />
    <glyph glyph-name="less" unicode="&#x3c;" horiz-adv-x="618" 
d="M105 305v54l368 235l40 -70l-308 -192l308 -192l-40 -70z" />
    <glyph glyph-name="equal" unicode="=" horiz-adv-x="618" 
d="M558 409h-498v78h498v-78zM558 177h-498v78h498v-78z" />
    <glyph glyph-name="greater" unicode="&#x3e;" horiz-adv-x="618" 
d="M513 359v-54l-368 -235l-40 70l308 192l-308 192l40 70z" />
    <glyph glyph-name="question" unicode="?" horiz-adv-x="533" 
d="M254 632c-61 0 -113 -33 -150 -73l-59 49c53 63 131 104 214 104c126 0 204 -63 204 -175c0 -78 -35 -138 -119 -192c-56 -36 -74 -66 -74 -126v-50h-88v52c0 77 24 135 95 180c78 50 96 83 96 137c0 60 -47 94 -119 94zM164 51c0 35 28 63 63 63s63 -28 63 -63
s-28 -63 -63 -63s-63 28 -63 63z" />
    <glyph glyph-name="at" unicode="@" horiz-adv-x="956" 
d="M705 -25l32 -55c-67 -53 -164 -84 -259 -84c-252 0 -406 194 -406 438s154 438 406 438c243 0 406 -185 406 -416c0 -123 -41 -239 -161 -239c-51 0 -96 19 -117 60c-40 -42 -95 -69 -150 -69c-134 0 -194 100 -194 223s60 223 194 223c53 0 99 -20 138 -59v47h80v-291
c0 -43 24 -66 55 -66c69 0 87 73 87 171c0 209 -153 356 -338 356c-192 0 -338 -155 -338 -378s146 -378 338 -378c78 0 166 30 227 79zM342 271c0 -88 26 -153 122 -153c51 0 96 26 130 67v172c-34 40 -79 67 -130 67c-96 0 -122 -65 -122 -153z" />
    <glyph glyph-name="A" unicode="A" horiz-adv-x="676" 
d="M290 700h96l270 -700h-97l-66 181h-310l-66 -181h-97zM338 608l-127 -349h254z" />
    <glyph glyph-name="B" unicode="B" horiz-adv-x="625" 
d="M80 0v700h240c147 0 231 -74 231 -185c0 -68 -36 -126 -101 -144c90 -19 135 -85 135 -170c0 -126 -90 -201 -251 -201h-254zM168 402h140c100 0 155 44 155 113c0 74 -55 107 -155 107h-140v-220zM497 201c0 78 -56 123 -176 123h-153v-246h153c120 0 176 44 176 123z
" />
    <glyph glyph-name="C" unicode="C" horiz-adv-x="684" 
d="M45 350c0 213 127 362 326 362c127 0 222 -60 273 -142l-72 -45c-53 74 -115 107 -198 107c-136 0 -239 -99 -239 -282s103 -282 239 -282c83 0 145 33 198 107l72 -45c-51 -82 -146 -142 -273 -142c-199 0 -326 149 -326 362z" />
    <glyph glyph-name="D" unicode="D" horiz-adv-x="685" 
d="M80 0v700h228c211 0 332 -132 332 -350c0 -219 -121 -350 -332 -350h-228zM168 78h133c158 0 249 98 249 272c0 173 -91 272 -249 272h-133v-544z" />
    <glyph glyph-name="E" unicode="E" horiz-adv-x="565" 
d="M80 0v700h436v-78h-348v-222h313v-78h-313v-244h357v-78h-445z" />
    <glyph glyph-name="F" unicode="F" horiz-adv-x="536" 
d="M80 0v700h436v-78h-348v-242h313v-78h-313v-302h-88z" />
    <glyph glyph-name="G" unicode="G" horiz-adv-x="705" 
d="M45 350c0 213 130 362 316 362c135 0 224 -54 280 -141l-72 -45c-50 73 -110 106 -205 106c-123 0 -229 -99 -229 -282c0 -177 108 -282 248 -282c74 0 139 25 174 70v150h-175v78h263v-260c-58 -75 -151 -118 -264 -118c-199 0 -336 155 -336 362z" />
    <glyph glyph-name="H" unicode="H" horiz-adv-x="702" 
d="M80 0v700h88v-289h366v289h88v-700h-88v333h-366v-333h-88z" />
    <glyph glyph-name="I" unicode="I" horiz-adv-x="258" 
d="M85 700h88v-700h-88v700z" />
    <glyph glyph-name="J" unicode="J" horiz-adv-x="568" 
d="M260 68c95 0 140 69 140 174v458h88v-458c0 -153 -76 -254 -225 -254c-104 0 -186 49 -233 140l72 41c37 -66 91 -101 158 -101z" />
    <glyph glyph-name="K" unicode="K" horiz-adv-x="614" 
d="M168 700v-384l301 384h104l-228 -287l259 -413h-106l-209 344l-121 -153v-191h-88v700h88z" />
    <glyph glyph-name="L" unicode="L" horiz-adv-x="535" 
d="M80 0v700h88v-622h347v-78h-435z" />
    <glyph glyph-name="M" unicode="M" horiz-adv-x="846" 
d="M450 127h-54l-232 417v-544h-84v700h86l257 -461l257 461h86v-700h-84v544z" />
    <glyph glyph-name="N" unicode="N" horiz-adv-x="708" 
d="M80 0v700h85l379 -561v561h84v-700h-85l-379 561v-561h-84z" />
    <glyph glyph-name="O" unicode="O" horiz-adv-x="715" 
d="M670 350c0 -203 -114 -362 -312 -362c-199 0 -313 159 -313 362s114 362 313 362c198 0 312 -159 312 -362zM135 350c0 -173 87 -282 223 -282c135 0 222 109 222 282s-87 282 -222 282c-136 0 -223 -109 -223 -282z" />
    <glyph glyph-name="P" unicode="P" horiz-adv-x="593" 
d="M558 482c0 -145 -100 -218 -261 -218h-129v-264h-88v700h217c161 0 261 -73 261 -218zM468 482c0 96 -58 140 -178 140h-122v-280h122c120 0 178 44 178 140z" />
    <glyph glyph-name="Q" unicode="Q" horiz-adv-x="715" 
d="M670 350c0 -99 -27 -188 -78 -253l103 -112l-62 -57l-103 111c-47 -32 -104 -51 -172 -51c-199 0 -313 159 -313 362s114 362 313 362c198 0 312 -159 312 -362zM365 221l62 57l105 -116c31 48 48 111 48 188c0 173 -87 282 -222 282c-136 0 -223 -109 -223 -282
s87 -282 223 -282c44 0 83 11 116 33z" />
    <glyph glyph-name="R" unicode="R" horiz-adv-x="629" 
d="M566 496c0 -102 -57 -164 -156 -193l199 -303h-101l-189 292h-151v-292h-88v700h233c154 0 253 -72 253 -204zM476 496c0 84 -55 126 -169 126h-139v-252h139c114 0 169 42 169 126z" />
    <glyph glyph-name="S" unicode="S" horiz-adv-x="601" 
d="M318 68c91 0 148 48 148 111c0 82 -52 116 -184 150c-168 43 -215 119 -215 203c0 105 82 180 220 180c94 0 180 -39 242 -108l-64 -53c-52 52 -109 81 -176 81c-89 0 -132 -41 -132 -100c0 -51 44 -97 149 -125c173 -46 250 -99 250 -223c0 -115 -89 -196 -239 -196
c-113 0 -207 41 -282 121l67 56c63 -67 134 -97 216 -97z" />
    <glyph glyph-name="T" unicode="T" horiz-adv-x="564" 
d="M238 0v622h-218v78h524v-78h-218v-622h-88z" />
    <glyph glyph-name="U" unicode="U" horiz-adv-x="715" 
d="M358 -12c-163 0 -278 93 -278 285v427h88v-422c0 -132 55 -210 190 -210c134 0 189 78 189 210v422h88v-427c0 -192 -107 -285 -277 -285z" />
    <glyph glyph-name="W" unicode="W" horiz-adv-x="996" 
d="M445 700h106l149 -597l181 597h95l-215 -700h-118l-145 587l-145 -587h-118l-215 700h95l181 -597z" />
    <glyph glyph-name="X" unicode="X" horiz-adv-x="609" 
d="M492 0l-188 287l-187 -287h-102l238 365l-218 335h102l167 -257l168 257h102l-219 -335l239 -365h-102z" />
    <glyph glyph-name="Y" unicode="Y" horiz-adv-x="608" 
d="M593 700l-245 -423v-277h-88v277l-245 423h97l192 -329l192 329h97z" />
    <glyph glyph-name="Z" unicode="Z" horiz-adv-x="562" 
d="M30 73l386 549h-366v78h472v-73l-386 -549h396v-78h-502v73z" />
    <glyph glyph-name="bracketleft" unicode="[" horiz-adv-x="406" 
d="M120 -130v880h266v-70h-180v-740h180v-70h-266z" />
    <glyph glyph-name="backslash" unicode="\" horiz-adv-x="501" 
d="M428 -124l-426 842l71 42l426 -842z" />
    <glyph glyph-name="bracketright" unicode="]" horiz-adv-x="406" 
d="M286 750v-880h-266v70h180v740h-180v70h266z" />
    <glyph glyph-name="asciicircum" unicode="^" horiz-adv-x="618" 
d="M268 700h82l188 -298l-68 -45l-161 242l-161 -242l-68 45z" />
    <glyph glyph-name="underscore" unicode="_" horiz-adv-x="500" 
d="M0 -170v68h500v-68h-500z" />
    <glyph glyph-name="grave" unicode="`" horiz-adv-x="400" 
d="M101 692l64 53l134 -149l-46 -40z" />
    <glyph glyph-name="a" unicode="a" horiz-adv-x="546" 
d="M40 156c0 92 76 168 197 168c66 0 115 -20 160 -51v63c0 68 -26 120 -131 120c-50 0 -98 -15 -145 -55l-52 55c63 52 131 74 204 74c135 0 208 -71 208 -176v-354h-84v56c-37 -38 -91 -68 -160 -68c-121 0 -197 76 -197 168zM257 250c-79 0 -131 -32 -131 -94
s52 -94 131 -94c53 0 104 28 140 65v70c-40 34 -87 53 -140 53z" />
    <glyph glyph-name="b" unicode="b" horiz-adv-x="586" 
d="M154 50v-50h-84v730h84v-263c40 38 98 63 160 63c149 0 227 -110 227 -271s-78 -271 -227 -271c-62 0 -120 25 -160 62zM455 259c0 120 -46 197 -154 197c-51 0 -111 -24 -147 -65v-265c36 -40 96 -64 147 -64c108 0 154 77 154 197z" />
    <glyph glyph-name="c" unicode="c" horiz-adv-x="534" 
d="M40 259c0 156 94 271 244 271c99 0 176 -46 220 -121l-65 -39c-39 56 -82 86 -149 86c-104 0 -164 -77 -164 -197s60 -197 164 -197c67 0 110 30 149 86l65 -39c-44 -75 -121 -121 -220 -121c-150 0 -244 115 -244 271z" />
    <glyph glyph-name="d" unicode="d" horiz-adv-x="586" 
d="M432 0v50c-41 -37 -98 -62 -160 -62c-149 0 -227 110 -227 271s78 271 227 271c62 0 119 -25 160 -63v263h84v-730h-84zM131 259c0 -120 46 -197 154 -197c51 0 110 24 147 64v265c-37 41 -96 65 -147 65c-108 0 -154 -77 -154 -197z" />
    <glyph glyph-name="e" unicode="e" horiz-adv-x="569" 
d="M305 -12c-157 0 -265 115 -265 271s98 271 246 271c144 0 243 -113 243 -274c0 -10 0 -21 -1 -31h-400c11 -101 75 -163 172 -163c58 0 100 24 142 71l62 -45c-48 -63 -117 -100 -199 -100zM128 297h314c-6 97 -74 159 -156 159c-87 0 -146 -61 -158 -159z" />
    <glyph glyph-name="f" unicode="f" horiz-adv-x="344" 
d="M276 730c19 0 39 -1 53 -3v-74c-16 2 -33 3 -51 3c-67 0 -86 -31 -86 -90v-48h127v-72h-127v-446h-84v446h-93v72h93v54c0 109 50 158 168 158z" />
    <glyph glyph-name="g" unicode="g" horiz-adv-x="586" 
d="M70 -119l66 46c38 -46 90 -77 154 -77c84 0 142 49 142 155v45c-41 -37 -98 -62 -160 -62c-149 0 -227 110 -227 271s78 271 227 271c62 0 119 -25 160 -63v51h84v-503c0 -158 -81 -239 -222 -239c-94 0 -171 37 -224 105zM131 259c0 -120 46 -197 154 -197
c51 0 110 24 147 64v265c-37 41 -96 65 -147 65c-108 0 -154 -77 -154 -197z" />
    <glyph glyph-name="h" unicode="h" horiz-adv-x="583" 
d="M333 530c110 0 185 -68 185 -190v-340h-84v320c0 86 -37 136 -118 136c-69 0 -130 -43 -162 -82v-374h-84v730h84v-273c44 41 99 73 179 73z" />
    <glyph glyph-name="i" unicode="i" horiz-adv-x="234" 
d="M75 0v518h84v-518h-84zM61 677c0 32 24 56 56 56s56 -24 56 -56s-24 -56 -56 -56s-56 24 -56 56z" />
    <glyph glyph-name="j" unicode="j" horiz-adv-x="234" 
d="M61 677c0 32 24 56 56 56s56 -24 56 -56s-24 -56 -56 -56s-56 24 -56 56zM-12 -224c-11 0 -29 1 -40 2v74c12 -1 29 -2 44 -2c64 0 83 33 83 90v578h84v-584c0 -111 -60 -158 -171 -158z" />
    <glyph glyph-name="k" unicode="k" horiz-adv-x="520" 
d="M70 730h84v-482l229 270h103l-179 -204l208 -314h-95l-165 255l-101 -116v-139h-84v730z" />
    <glyph glyph-name="l" unicode="l" horiz-adv-x="234" 
d="M75 0v730h84v-730h-84z" />
    <glyph glyph-name="m" unicode="m" horiz-adv-x="879" 
d="M154 385v-385h-84v518h84v-51c44 37 97 63 159 63c69 0 120 -28 147 -79c44 40 102 79 182 79c110 0 172 -68 172 -190v-340h-84v320c0 86 -24 136 -105 136c-53 0 -111 -33 -143 -77c2 -12 3 -25 3 -39v-340h-84v320c0 86 -24 136 -105 136c-54 0 -109 -30 -142 -71z
" />
    <glyph glyph-name="n" unicode="n" horiz-adv-x="583" 
d="M333 530c110 0 185 -68 185 -190v-340h-84v320c0 86 -37 136 -118 136c-69 0 -130 -43 -162 -82v-374h-84v518h84v-61c44 41 99 73 179 73z" />
    <glyph glyph-name="o" unicode="o" horiz-adv-x="580" 
d="M40 259c0 156 96 271 250 271s250 -115 250 -271s-96 -271 -250 -271s-250 115 -250 271zM126 259c0 -120 60 -197 164 -197s164 77 164 197s-60 197 -164 197s-164 -77 -164 -197z" />
    <glyph glyph-name="p" unicode="p" horiz-adv-x="586" 
d="M154 50v-262h-84v730h84v-51c40 38 98 63 160 63c149 0 227 -110 227 -271s-78 -271 -227 -271c-62 0 -120 25 -160 62zM455 259c0 120 -46 197 -154 197c-51 0 -111 -24 -147 -65v-265c36 -40 96 -64 147 -64c108 0 154 77 154 197z" />
    <glyph glyph-name="q" unicode="q" horiz-adv-x="586" 
d="M432 -212v262c-41 -37 -98 -62 -160 -62c-149 0 -227 110 -227 271s78 271 227 271c62 0 119 -25 160 -63v51h84v-730h-84zM131 259c0 -120 46 -197 154 -197c51 0 110 24 147 64v265c-37 41 -96 65 -147 65c-108 0 -154 -77 -154 -197z" />
    <glyph glyph-name="r" unicode="r" horiz-adv-x="363" 
d="M348 529v-77c-17 2 -28 3 -44 3c-61 0 -120 -34 -150 -82v-373h-84v518h84v-61c38 46 93 73 161 73c11 0 22 0 33 -1z" />
    <glyph glyph-name="s" unicode="s" horiz-adv-x="498" 
d="M30 87l60 54c47 -52 107 -79 170 -79c76 0 112 36 112 76c0 50 -39 72 -134 99c-135 38 -180 81 -180 155c0 77 61 138 180 138c74 0 143 -25 195 -78l-57 -51c-43 39 -88 55 -135 55c-57 0 -97 -23 -97 -60c0 -38 25 -58 131 -88c121 -34 183 -80 183 -165
c0 -91 -66 -155 -193 -155c-92 0 -174 31 -235 99z" />
    <glyph glyph-name="t" unicode="t" horiz-adv-x="344" 
d="M279 -12c-111 0 -171 47 -171 158v300h-93v72h93v155h84v-155h127v-72h-127v-294c0 -57 19 -90 83 -90c16 0 31 0 44 1v-73c-11 -1 -29 -2 -40 -2z" />
    <glyph glyph-name="u" unicode="u" horiz-adv-x="578" 
d="M289 62c79 0 140 49 140 156v300h84v-306c0 -156 -92 -224 -224 -224s-224 68 -224 224v306h84v-300c0 -107 61 -156 140 -156z" />
    <glyph glyph-name="v" unicode="v" horiz-adv-x="528" 
d="M309 0h-90l-204 518h90l159 -425l159 425h90z" />
    <glyph glyph-name="w" unicode="w" horiz-adv-x="788" 
d="M356 518h76l124 -412l126 412h91l-177 -518h-80l-122 402l-122 -402h-80l-177 518h91l126 -412z" />
    <glyph glyph-name="x" unicode="x" horiz-adv-x="500" 
d="M122 518l128 -181l128 181h94l-175 -247l193 -271h-95l-145 205l-145 -205h-95l193 271l-175 247h94z" />
    <glyph glyph-name="y" unicode="y" horiz-adv-x="519" 
d="M229 -212h-83l80 214l-211 516h87l164 -410l153 410h85z" />
    <glyph glyph-name="z" unicode="z" horiz-adv-x="469" 
d="M25 0v67l304 379h-286v72h391v-67l-304 -379h314v-72h-419z" />
    <glyph glyph-name="braceleft" unicode="{" horiz-adv-x="385" 
d="M166 -4v178c0 63 -49 100 -104 100v72c55 0 104 37 104 100v178c0 85 49 126 133 126h66v-72h-67c-31 0 -46 -17 -46 -48v-194c0 -68 -33 -109 -97 -126c64 -17 97 -58 97 -126v-194c0 -31 15 -48 46 -48h67v-72h-66c-84 0 -133 41 -133 126z" />
    <glyph glyph-name="bar" unicode="|" horiz-adv-x="292" 
d="M110 -200v969h72v-969h-72z" />
    <glyph glyph-name="braceright" unicode="}" horiz-adv-x="385" 
d="M219 174v-178c0 -85 -49 -126 -133 -126h-66v72h67c31 0 46 17 46 48v194c0 68 33 109 97 126c-64 17 -97 58 -97 126v194c0 31 -15 48 -46 48h-67v72h66c84 0 133 -41 133 -126v-178c0 -63 49 -100 104 -100v-72c-55 0 -104 -37 -104 -100z" />
    <glyph glyph-name="asciitilde" unicode="~" horiz-adv-x="618" 
d="M328 355c35 -25 60 -40 97 -40c36 0 60 26 74 74l73 -12c-13 -77 -69 -140 -144 -140c-49 0 -91 19 -138 54c-35 25 -60 40 -97 40c-36 0 -60 -26 -74 -74l-73 12c13 77 69 140 144 140c49 0 90 -19 138 -54z" />
    <glyph glyph-name="periodcentered" unicode="&#xb7;" horiz-adv-x="300" 
d="M87 336c0 35 28 63 63 63s63 -28 63 -63s-28 -63 -63 -63s-63 28 -63 63z" />
    <glyph glyph-name="twodotenleader" unicode="&#x2025;" horiz-adv-x="600" 
d="M87 51c0 35 28 63 63 63s63 -28 63 -63s-28 -63 -63 -63s-63 28 -63 63zM387 51c0 35 28 63 63 63s63 -28 63 -63s-28 -63 -63 -63s-63 28 -63 63z" />
    <glyph glyph-name="ellipsis" unicode="&#x2026;" horiz-adv-x="900" 
d="M87 51c0 35 28 63 63 63s63 -28 63 -63s-28 -63 -63 -63s-63 28 -63 63zM387 51c0 35 28 63 63 63s63 -28 63 -63s-28 -63 -63 -63s-63 28 -63 63zM687 51c0 35 28 63 63 63s63 -28 63 -63s-28 -63 -63 -63s-63 28 -63 63z" />
    <glyph glyph-name="dieresis" unicode="&#xa8;" horiz-adv-x="400" 
d="M42 649c0 31 26 57 57 57s57 -26 57 -57s-26 -57 -57 -57s-57 26 -57 57zM244 649c0 31 26 57 57 57s57 -26 57 -57s-26 -57 -57 -57s-57 26 -57 57z" />
    <glyph glyph-name="uni00AD" unicode="&#xad;" horiz-adv-x="406" 
d="M346 289h-286v86h286v-86z" />
    <glyph glyph-name="afii00208" unicode="&#x2015;" horiz-adv-x="1000" 
d="M900 293h-800v78h800v-78z" />
    <glyph glyph-name="quoteleft" unicode="&#x2018;" horiz-adv-x="300" 
d="M255 765l-75 -263l-98 33l104 252z" />
    <glyph glyph-name="quoteright" unicode="&#x2019;" horiz-adv-x="300" 
d="M45 524l75 263l98 -33l-104 -252z" />
    <glyph glyph-name="quotedblleft" unicode="&#x201c;" horiz-adv-x="468" 
d="M255 765l-75 -263l-98 33l104 252zM423 765l-75 -263l-98 33l104 252z" />
    <glyph glyph-name="quotedblright" unicode="&#x201d;" horiz-adv-x="468" 
d="M45 524l75 263l98 -33l-104 -252zM213 524l75 263l98 -33l-104 -252z" />
    <glyph glyph-name="plusminus" unicode="&#xb1;" horiz-adv-x="618" 
d="M558 0h-498v78h498v-78zM264 121v208h-204v78h204v208h90v-208h204v-78h-204v-208h-90z" />
    <glyph glyph-name="multiply" unicode="&#xd7;" horiz-adv-x="618" 
d="M370 332l159 -159l-61 -61l-159 159l-159 -159l-61 61l159 159l-159 159l61 61l159 -159l159 159l61 -61z" />
    <glyph glyph-name="divide" unicode="&#xf7;" horiz-adv-x="618" 
d="M558 293h-498v78h498v-78zM246 530c0 35 28 63 63 63s63 -28 63 -63s-28 -63 -63 -63s-63 28 -63 63zM246 134c0 -35 28 -63 63 -63s63 28 63 63s-28 63 -63 63s-63 -28 -63 -63z" />
    <glyph glyph-name="notequal" unicode="&#x2260;" horiz-adv-x="618" 
d="M558 177h-300l-101 -165l-57 35l79 130h-119v78h167l94 154h-261v78h309l92 150l57 -35l-71 -115h111v-78h-158l-95 -154h253v-78z" />
    <glyph glyph-name="lessequal" unicode="&#x2264;" horiz-adv-x="618" 
d="M558 0h-498v78h498v-78zM60 349v50l465 223l33 -76l-370 -172l370 -172l-33 -76z" />
    <glyph glyph-name="greaterequal" unicode="&#x2265;" horiz-adv-x="618" 
d="M60 0h498v78h-498v-78zM558 399v-50l-465 -223l-33 76l370 172l-370 172l33 76z" />
    <glyph glyph-name="infinity" unicode="&#x221e;" horiz-adv-x="772" 
d="M562 472c90 0 150 -55 150 -140s-60 -140 -150 -140c-53 0 -112 20 -176 88c-64 -68 -124 -88 -176 -88c-90 0 -150 55 -150 140s60 140 150 140c52 0 112 -21 176 -89c64 68 123 89 176 89zM211 407c-50 0 -73 -32 -73 -75s23 -75 73 -75c39 0 74 12 130 75
c-56 63 -91 75 -130 75zM561 257c50 0 73 32 73 75s-23 75 -73 75c-40 0 -74 -12 -131 -75c57 -63 91 -75 131 -75z" />
    <glyph glyph-name="degree" unicode="&#xb0;" horiz-adv-x="400" 
d="M65 577c0 75 60 135 135 135s135 -60 135 -135s-60 -135 -135 -135s-135 60 -135 135zM131 577c0 -41 29 -72 69 -72s69 31 69 72s-29 72 -69 72s-69 -31 -69 -72z" />
    <glyph glyph-name="minute" unicode="&#x2032;" horiz-adv-x="319" 
d="M77 444l75 263l90 -30l-104 -252z" />
    <glyph glyph-name="second" unicode="&#x2033;" horiz-adv-x="507" 
d="M77 444l75 263l90 -30l-104 -252zM265 444l75 263l90 -30l-104 -252z" />
    <glyph glyph-name="partialdiff" unicode="&#x2202;" horiz-adv-x="580" 
d="M276 632c-61 0 -104 -24 -140 -74l-66 48c51 72 118 106 204 106c151 0 256 -105 256 -375c0 -252 -103 -349 -254 -349c-142 0 -236 93 -236 230c0 135 88 236 226 236c65 0 125 -29 167 -67c-10 185 -73 245 -157 245zM278 374c-92 0 -148 -57 -148 -153
s51 -153 148 -153c83 0 151 54 156 236c-45 46 -97 70 -156 70z" />
    <glyph glyph-name="equivalence" unicode="&#x2261;" horiz-adv-x="618" 
d="M558 469h-498v78h498v-78zM558 117h-498v78h498v-78zM558 293h-498v78h498v-78z" />
    <glyph glyph-name="section" unicode="&#xa7;" horiz-adv-x="487" 
d="M342 315c0 54 -32 84 -98 96c-56 -10 -96 -47 -96 -97c0 -54 32 -84 98 -96c56 10 96 47 96 97zM240 -28c72 0 104 37 104 81s-23 73 -114 94c-114 26 -170 78 -170 159c0 65 38 111 96 136c-58 22 -98 66 -98 128c0 84 67 142 182 142c72 0 133 -22 180 -73l-57 -49
c-34 37 -74 50 -121 50c-57 0 -96 -32 -96 -73c0 -40 40 -66 123 -89c118 -33 161 -85 161 -159c0 -63 -37 -110 -91 -134c53 -21 93 -68 93 -126c0 -92 -59 -159 -192 -159c-79 0 -148 31 -195 85l57 51c36 -40 85 -64 138 -64z" />
    <glyph glyph-name="arrowright" unicode="&#x2192;" horiz-adv-x="860" 
d="M36 299v66h614l-49 160l223 -193l-223 -193l49 160h-614z" />
    <glyph glyph-name="arrowleft" unicode="&#x2190;" horiz-adv-x="860" 
d="M824 365v-66h-614l49 -160l-223 193l223 193l-49 -160h614z" />
    <glyph glyph-name="arrowup" unicode="&#x2191;" horiz-adv-x="860" 
d="M463 -38h-66v614l-160 -49l193 223l193 -223l-160 49v-614z" />
    <glyph glyph-name="arrowdown" unicode="&#x2193;" horiz-adv-x="860" 
d="M397 750h66v-614l160 49l-193 -223l-193 223l160 -49v614z" />
    <glyph glyph-name="arrowboth" unicode="&#x2194;" horiz-adv-x="860" 
d="M210 299l49 -160l-223 193l223 193l-49 -160h440l-49 160l223 -193l-223 -193l49 160h-440z" />
    <glyph glyph-name="radical" unicode="&#x221a;" horiz-adv-x="603" 
d="M376 0h-40l-164 313h-72v61h110l131 -247l153 643h69z" />
    <glyph glyph-name="integral" unicode="&#x222b;" horiz-adv-x="388" 
d="M152 -56v648c0 109 50 158 168 158c19 0 39 -1 53 -3v-74c-16 2 -33 3 -51 3c-67 0 -86 -31 -86 -90v-648c0 -109 -50 -158 -168 -158c-19 0 -39 1 -53 3v74c16 -2 33 -3 51 -3c67 0 86 31 86 90z" />
    <glyph glyph-name="intersection" unicode="&#x2229;" horiz-adv-x="774" 
d="M387 617c199 0 287 -146 287 -351v-266h-84v266c0 193 -84 281 -203 281s-203 -88 -203 -281v-266h-84v266c0 205 88 351 287 351z" />
    <glyph glyph-name="acute" unicode="&#xb4;" horiz-adv-x="400" 
d="M235 745l64 -53l-152 -136l-46 40z" />
    <glyph glyph-name="caron" unicode="&#x2c7;" horiz-adv-x="400" 
d="M230 568h-60l-128 136l44 38l114 -103l114 103l44 -38z" />
    <glyph glyph-name="breve" unicode="&#x2d8;" horiz-adv-x="400" 
d="M200 638c44 0 79 26 99 86l60 -16c-21 -80 -73 -135 -159 -135s-137 55 -159 135l60 16c20 -60 55 -86 99 -86z" />
    <glyph glyph-name="hungarumlaut" unicode="&#x2dd;" horiz-adv-x="400" 
d="M375 685l-147 -137l-54 38l136 151zM194 686l-115 -138l-54 38l105 151z" />
    <glyph glyph-name="ring" unicode="&#x2da;" horiz-adv-x="400" 
d="M306 649c0 -58 -46 -104 -106 -104s-106 46 -106 104s46 104 106 104s106 -46 106 -104zM157 649c0 -26 18 -45 43 -45s43 19 43 45s-18 45 -43 45s-43 -19 -43 -45z" />
    <glyph glyph-name="dotaccent" unicode="&#x2d9;" horiz-adv-x="400" 
d="M143 649c0 31 26 57 57 57s57 -26 57 -57s-26 -57 -57 -57s-57 26 -57 57z" />
    <glyph glyph-name="cedilla" unicode="&#xb8;" horiz-adv-x="400" 
d="M177 -175c29 0 50 16 50 42c0 33 -37 50 -89 50l-6 8l35 75h71l-20 -41c52 -12 84 -49 84 -96c0 -49 -36 -101 -123 -101c-37 0 -77 12 -102 37l39 48c16 -14 35 -22 61 -22z" />
    <glyph glyph-name="ogonek" unicode="&#x2db;" horiz-adv-x="400" 
d="M185 0h74c-40 -31 -63 -63 -63 -103c0 -33 22 -51 49 -51c16 0 35 8 46 20l39 -48c-27 -23 -53 -37 -97 -37c-71 0 -112 49 -112 104c0 42 26 87 64 115z" />
    <glyph glyph-name="exclamdown" unicode="&#xa1;" horiz-adv-x="288" 
d="M94 -1l24 350h52l24 -350v-181h-100v181zM81 467c0 35 28 63 63 63s63 -28 63 -63s-28 -63 -63 -63s-63 28 -63 63z" />
    <glyph glyph-name="questiondown" unicode="&#xbf;" horiz-adv-x="533" 
d="M279 -114c-72 0 -119 34 -119 94c0 54 18 87 96 137c71 45 95 103 95 180v52h-88v-50c0 -60 -18 -90 -74 -126c-84 -54 -119 -114 -119 -192c0 -112 82 -175 212 -175c83 0 153 42 206 104l-59 49c-39 -41 -89 -73 -150 -73zM369 467c0 -35 -28 -63 -63 -63
s-63 28 -63 63s28 63 63 63s63 -28 63 -63z" />
    <glyph glyph-name="summation" unicode="&#x2211;" horiz-adv-x="606" 
d="M40 -37l230 368l-230 331v78h536v-78h-433l213 -313v-38l-213 -344h433v-78h-536v74z" />
    <glyph glyph-name="product" unicode="&#x220f;" horiz-adv-x="688" 
d="M608 740v-851h-88v773h-352v-773h-88v851h528z" />
    <glyph glyph-name="currency" unicode="&#xa4;" horiz-adv-x="707" 
d="M138 332c0 43 11 83 32 117l-90 90l63 64l88 -89c34 23 76 37 122 37s88 -14 122 -37l89 89l63 -64l-90 -90c20 -34 32 -74 32 -117c0 -44 -11 -83 -32 -117l90 -89l-63 -64l-89 88c-34 -23 -76 -35 -122 -35s-88 13 -122 35l-88 -88l-63 64l89 89c-20 34 -31 73 -31 117
zM220 332c0 -83 54 -138 133 -138s134 55 134 138s-55 140 -134 140s-133 -57 -133 -140z" />
    <glyph glyph-name="uni2109" unicode="&#x2109;" horiz-adv-x="802" 
d="M10 577c0 75 60 135 135 135s135 -60 135 -135s-60 -135 -135 -135s-135 60 -135 135zM76 577c0 -41 29 -72 69 -72s69 31 69 72s-29 72 -69 72s-69 -31 -69 -72zM346 0v700h436v-78h-348v-242h313v-78h-313v-302h-88z" />
    <glyph glyph-name="perthousand" unicode="&#x2030;" horiz-adv-x="1100" 
d="M80 528c0 106 60 179 148 179s148 -73 148 -179s-60 -179 -148 -179s-148 73 -148 179zM166 528c0 -70 26 -103 62 -103s62 33 62 103s-26 103 -62 103s-62 -33 -62 -103zM405 171c0 106 60 179 148 179s148 -73 148 -179s-60 -179 -148 -179s-148 73 -148 179zM491 171
c0 -70 26 -103 62 -103s62 33 62 103s-26 103 -62 103s-62 -33 -62 -103zM724 171c0 106 60 179 148 179s148 -73 148 -179s-60 -179 -148 -179s-148 73 -148 179zM810 171c0 -70 26 -103 62 -103s62 33 62 103s-26 103 -62 103s-62 -33 -62 -103zM639 668l-427 -680l-64 44
l427 680z" />
    <glyph glyph-name="paragraph" unicode="&#xb6;" horiz-adv-x="572" 
d="M265 700h215v-831h-73v756h-45v-756h-76v398h-9c-125 0 -234 80 -234 218c0 136 94 215 222 215z" />
    <glyph glyph-name="dagger" unicode="&#x2020;" horiz-adv-x="576" 
d="M496 580v-72h-166v-639h-84v639h-166v72h166v168h84v-168h166z" />
    <glyph glyph-name="daggerdbl" unicode="&#x2021;" horiz-adv-x="576" 
d="M496 109v-72h-166v-168h-84v168h-166v72h166v399h-166v72h166v168h84v-168h166v-72h-166v-399h166z" />
    <glyph glyph-name="arrowupdn" unicode="&#x2195;" horiz-adv-x="860" 
d="M463 136l160 49l-193 -223l-193 223l160 -49v440l-160 -49l193 223l193 -223l-160 49v-440z" />
    <glyph glyph-name="afii61352" unicode="&#x2116;" horiz-adv-x="946" 
d="M80 0v700h88l216 -516v516h84v-700h-88l-216 516v-516h-84zM530 323c0 120 68 204 179 204c117 0 185 -84 185 -204s-68 -204 -185 -204c-111 0 -179 84 -179 204zM617 323c0 -85 37 -130 95 -130s95 45 95 130s-37 130 -95 130s-95 -45 -95 -130zM906 70v-70h-389v70
h389z" />
    <glyph glyph-name="trademark" unicode="&#x2122;" horiz-adv-x="658" 
d="M106 379v272h-96v49h252v-49h-95v-272h-61zM471 431h-48l-77 147v-200h-60v322h55l106 -203l106 203h55v-322h-60v200z" />
    <glyph glyph-name="uni2121" unicode="&#x2121;" horiz-adv-x="937" 
d="M180 0v628h-160v72h404v-72h-160v-628h-84zM627 297h-205c1 97 44 159 102 159c59 0 102 -62 103 -159zM778 0v730h84v-730h-84zM697 87l-64 46c-19 -40 -56 -71 -97 -71c-69 0 -112 75 -114 163h291c1 10 1 21 1 31c0 161 -70 274 -190 274c-112 0 -189 -108 -189 -270
c0 -134 61 -272 201 -272c75 0 129 43 161 99z" />
    <glyph glyph-name="Euro" unicode="&#x20ac;" horiz-adv-x="714" 
d="M166 317h263l-18 -58h-237c29 -125 118 -191 230 -191c83 0 145 33 198 107l72 -45c-51 -82 -146 -142 -273 -142c-169 0 -286 108 -318 271h-63v58h56c-1 11 -1 22 -1 33s0 22 1 33h-56v58h63c32 163 149 271 318 271c127 0 222 -60 273 -142l-72 -45
c-53 74 -115 107 -198 107c-112 0 -201 -67 -230 -191h291l-17 -58h-282c-1 -11 -1 -22 -1 -33c0 -12 0 -23 1 -33z" />
    <glyph glyph-name="registered" unicode="&#xae;" horiz-adv-x="830" 
d="M53 350c0 200 162 362 362 362s362 -162 362 -362s-162 -362 -362 -362s-362 162 -362 362zM109 350c0 -172 137 -310 306 -310s306 138 306 310s-137 310 -306 310s-306 -138 -306 -310zM572 437c0 -57 -33 -96 -88 -113l108 -183h-73l-100 174h-80v-174h-68v417h145
c95 0 156 -44 156 -121zM504 437c0 41 -24 65 -92 65h-73v-130h73c68 0 92 25 92 65z" />
    <glyph glyph-name="afii61289" unicode="&#x2113;" horiz-adv-x="485" 
d="M390 96l42 -65c-29 -29 -70 -43 -116 -43c-67 0 -115 30 -151 77c-29 -13 -61 -24 -95 -31l-30 78c30 6 58 15 84 26c-32 78 -43 175 -43 255c0 206 83 319 199 319c95 0 145 -89 145 -225c0 -145 -54 -293 -187 -383c20 -23 44 -38 76 -38c28 0 55 9 76 30zM171 400
c0 -52 5 -145 29 -220c89 66 135 170 135 308c0 119 -26 146 -63 146c-56 0 -101 -90 -101 -234z" />
    <glyph glyph-name="Omega" unicode="&#x2126;" horiz-adv-x="716" 
d="M358 712c200 0 313 -151 313 -342c0 -132 -55 -227 -137 -292h128v-78h-242v78c104 72 161 165 161 292c0 140 -82 262 -223 262s-223 -122 -223 -262c0 -127 57 -220 161 -292v-78h-242v78h128c-82 65 -137 160 -137 292c0 191 113 342 313 342z" />
    <glyph glyph-name="AE" unicode="&#xc6;" horiz-adv-x="864" 
d="M211 181l-92 -181h-99l363 700h432v-78h-294v-222h259v-78h-259v-244h303v-78h-391v181h-222zM433 259v359l-183 -359h183z" />
    <glyph glyph-name="Eth" unicode="&#xd0;" horiz-adv-x="685" 
d="M80 0v314h-75v72h75v314h228c211 0 332 -132 332 -350c0 -219 -121 -350 -332 -350h-228zM168 78h133c158 0 249 98 249 272c0 173 -91 272 -249 272h-133v-236h166v-72h-166v-236z" />
    <glyph glyph-name="ordfeminine" unicode="&#xaa;" horiz-adv-x="440" 
d="M44 448c0 68 58 122 150 122c46 0 81 -13 113 -32v27c0 47 -18 81 -91 81c-36 0 -72 -10 -108 -38l-42 47c48 37 99 53 153 53c102 0 160 -52 160 -131v-244h-72v34c-29 -25 -68 -42 -113 -42c-90 0 -150 54 -150 123zM209 508c-55 0 -91 -19 -91 -60s38 -60 91 -60
c31 0 70 13 98 38v50c-30 23 -64 32 -98 32z" />
    <glyph glyph-name="Hbar" unicode="&#x126;" horiz-adv-x="702" 
d="M80 605v95h88v-95h366v95h88v-95h60v-72h-60v-533h-88v333h-366v-333h-88v533h-60v72h60zM168 411h366v122h-366v-122z" />
    <glyph glyph-name="IJ" unicode="&#x132;" horiz-adv-x="826" 
d="M85 700h88v-700h-88v700zM518 68c-67 0 -121 35 -158 101l-72 -41c47 -91 129 -140 233 -140c149 0 225 101 225 254v458h-88v-458c0 -105 -45 -174 -140 -174z" />
    <glyph glyph-name="Ldot" unicode="&#x13f;" horiz-adv-x="535" 
d="M80 0v700h88v-622h347v-78h-435zM315 379c0 31 26 57 57 57s57 -26 57 -57s-26 -57 -57 -57s-57 26 -57 57z" />
    <glyph glyph-name="Lslash" unicode="&#x141;" horiz-adv-x="557" 
d="M-10 274l112 75v351h88v-292l258 173l40 -62l-298 -200v-241h347v-78h-435v260l-73 -49z" />
    <glyph glyph-name="Oslash" unicode="&#xd8;" horiz-adv-x="715" 
d="M71 4l59 84c-56 66 -85 158 -85 262c0 203 114 362 313 362c69 0 127 -19 175 -53l55 78l57 -39l-61 -86c56 -66 86 -158 86 -262c0 -203 -114 -362 -312 -362c-70 0 -129 19 -177 53l-54 -77zM580 350c0 76 -18 140 -48 188l-302 -428c35 -27 78 -42 128 -42
c135 0 222 109 222 282zM135 350c0 -76 17 -140 47 -188l302 428c-34 27 -77 42 -126 42c-136 0 -223 -109 -223 -282z" />
    <glyph glyph-name="OE" unicode="&#x152;" horiz-adv-x="839" 
d="M374 700h416v-78h-294v-222h259v-78h-259v-244h303v-78h-425c-207 0 -329 137 -329 350s122 350 329 350zM135 350c0 -183 103 -272 239 -272h34v544h-34c-136 0 -239 -89 -239 -272z" />
    <glyph glyph-name="ordmasculine" unicode="&#xba;" horiz-adv-x="440" 
d="M38 517c0 110 74 191 182 191s182 -81 182 -191s-74 -191 -182 -191s-182 81 -182 191zM112 517c0 -79 42 -129 108 -129s108 50 108 129s-42 129 -108 129s-108 -50 -108 -129z" />
    <glyph glyph-name="Thorn" unicode="&#xde;" horiz-adv-x="593" 
d="M558 355c0 -145 -100 -218 -261 -218h-129v-137h-88v700h88v-127h129c161 0 261 -73 261 -218zM468 355c0 96 -58 140 -178 140h-122v-280h122c120 0 178 44 178 140z" />
    <glyph glyph-name="Tbar" unicode="&#x166;" horiz-adv-x="544" 
d="M228 387v235h-218v78h524v-78h-218v-235h150v-72h-150v-315h-88v315h-150v72h150z" />
    <glyph glyph-name="Eng" unicode="&#x14a;" horiz-adv-x="708" 
d="M544 -60v60l-380 561v-561h-84v700h85l379 -561v561h84v-766c0 -111 -60 -158 -171 -158c-11 0 -29 1 -40 2v75c17 -2 28 -3 44 -3c64 0 83 33 83 90z" />
    <glyph glyph-name="onehalf" unicode="&#xbd;" horiz-adv-x="980" 
d="M189 606l-69 -51l-48 54l126 92h65v-464h-74v369zM750 404c-36 0 -74 -20 -99 -49l-53 43c34 42 93 73 159 73c87 0 142 -49 142 -133c0 -57 -24 -105 -78 -165c-41 -45 -75 -79 -106 -107h188v-66h-294v62c48 41 103 95 149 145c47 52 65 88 65 129c0 43 -24 68 -73 68z
M647 715l60 -33l-374 -697l-60 33z" />
    <glyph glyph-name="onethird" unicode="&#x2153;" horiz-adv-x="980" 
d="M189 606l-69 -51l-48 54l126 92h65v-464h-74v369zM647 715l60 -33l-374 -697l-60 33zM766 403c43 0 64 -25 64 -62c0 -42 -36 -68 -93 -68h-47v-66h47c62 0 107 -22 107 -77c0 -38 -32 -70 -84 -70c-39 0 -75 17 -99 54l-55 -43c35 -52 90 -79 154 -79
c102 0 160 61 160 138c0 57 -41 94 -85 111c37 17 71 55 71 105c0 78 -58 125 -141 125c-64 0 -111 -28 -146 -71l53 -43c26 34 52 46 94 46z" />
    <glyph glyph-name="twothirds" unicode="&#x2154;" horiz-adv-x="980" 
d="M766 403c43 0 64 -25 64 -62c0 -42 -36 -68 -93 -68h-47v-66h47c62 0 107 -22 107 -77c0 -38 -32 -70 -84 -70c-39 0 -75 17 -99 54l-55 -43c35 -52 90 -79 154 -79c102 0 160 61 160 138c0 57 -41 94 -85 111c37 17 71 55 71 105c0 78 -58 125 -141 125
c-64 0 -111 -28 -146 -71l53 -43c26 34 52 46 94 46zM189 641c-36 0 -74 -20 -99 -49l-53 43c34 42 93 73 159 73c87 0 142 -49 142 -133c0 -57 -24 -105 -78 -165c-41 -45 -75 -79 -106 -107h188v-66h-294v62c48 41 103 95 149 145c47 52 65 88 65 129c0 43 -24 68 -73 68z
M647 715l60 -33l-374 -697l-60 33z" />
    <glyph glyph-name="onequarter" unicode="&#xbc;" horiz-adv-x="980" 
d="M189 606l-69 -51l-48 54l126 92h65v-464h-74v369zM790 99h-216v60l222 304h68v-298h56v-66h-56v-99h-74v99zM790 342l-127 -177h127v177zM647 715l60 -33l-374 -697l-60 33z" />
    <glyph glyph-name="threequarters" unicode="&#xbe;" horiz-adv-x="980" 
d="M201 640c43 0 64 -25 64 -62c0 -42 -36 -68 -93 -68h-47v-66h47c62 0 107 -22 107 -77c0 -38 -32 -70 -84 -70c-39 0 -75 17 -99 54l-55 -43c35 -52 90 -79 154 -79c102 0 160 61 160 138c0 57 -41 94 -85 111c37 17 71 55 71 105c0 78 -58 125 -141 125
c-64 0 -111 -28 -146 -71l53 -43c26 34 52 46 94 46zM647 715l60 -33l-374 -697l-60 33zM790 99h-216v60l222 304h68v-298h56v-66h-56v-99h-74v99zM790 342l-127 -177h127v177z" />
    <glyph glyph-name="oneeighth" unicode="&#x215b;" horiz-adv-x="980" 
d="M189 606l-69 -51l-48 54l126 92h65v-464h-74v369zM647 715l60 -33l-374 -697l-60 33zM591 136c0 48 26 88 67 115c-40 28 -56 60 -56 98c0 76 57 122 145 122c85 0 147 -48 147 -131c0 -43 -22 -81 -58 -103c53 -31 76 -65 76 -111c0 -80 -67 -134 -160 -134
c-94 0 -161 54 -161 144zM727 214l-14 6c-29 -22 -46 -51 -46 -86c0 -46 38 -73 86 -73c49 0 83 26 83 62c0 35 -17 51 -109 91zM678 349c0 -32 14 -50 100 -85c27 21 40 47 40 78c0 39 -29 62 -75 62c-41 0 -65 -26 -65 -55z" />
    <glyph glyph-name="threeeighths" unicode="&#x215c;" horiz-adv-x="980" 
d="M647 715l60 -33l-374 -697l-60 33zM201 640c43 0 64 -25 64 -62c0 -42 -36 -68 -93 -68h-47v-66h47c62 0 107 -22 107 -77c0 -38 -32 -70 -84 -70c-39 0 -75 17 -99 54l-55 -43c35 -52 90 -79 154 -79c102 0 160 61 160 138c0 57 -41 94 -85 111c37 17 71 55 71 105
c0 78 -58 125 -141 125c-64 0 -111 -28 -146 -71l53 -43c26 34 52 46 94 46zM591 136c0 48 26 88 67 115c-40 28 -56 60 -56 98c0 76 57 122 145 122c85 0 147 -48 147 -131c0 -43 -22 -81 -58 -103c53 -31 76 -65 76 -111c0 -80 -67 -134 -160 -134c-94 0 -161 54 -161 144
zM727 214l-14 6c-29 -22 -46 -51 -46 -86c0 -46 38 -73 86 -73c49 0 83 26 83 62c0 35 -17 51 -109 91zM678 349c0 -32 14 -50 100 -85c27 21 40 47 40 78c0 39 -29 62 -75 62c-41 0 -65 -26 -65 -55z" />
    <glyph glyph-name="fiveeighths" unicode="&#x215d;" horiz-adv-x="980" 
d="M78 457l14 -9c32 11 68 16 105 16c53 0 90 -32 90 -85c0 -43 -31 -81 -78 -81c-44 0 -74 11 -106 44l-52 -47c40 -43 89 -66 156 -66c94 0 156 66 156 145c0 96 -66 157 -158 157c-17 0 -38 -1 -57 -5v108h192v66h-262v-243zM647 715l60 -33l-374 -697l-60 33zM591 136
c0 48 26 88 67 115c-40 28 -56 60 -56 98c0 76 57 122 145 122c85 0 147 -48 147 -131c0 -43 -22 -81 -58 -103c53 -31 76 -65 76 -111c0 -80 -67 -134 -160 -134c-94 0 -161 54 -161 144zM727 214l-14 6c-29 -22 -46 -51 -46 -86c0 -46 38 -73 86 -73c49 0 83 26 83 62
c0 35 -17 51 -109 91zM678 349c0 -32 14 -50 100 -85c27 21 40 47 40 78c0 39 -29 62 -75 62c-41 0 -65 -26 -65 -55z" />
    <glyph glyph-name="seveneighths" unicode="&#x215e;" horiz-adv-x="980" 
d="M591 136c0 48 26 88 67 115c-40 28 -56 60 -56 98c0 76 57 122 145 122c85 0 147 -48 147 -131c0 -43 -22 -81 -58 -103c53 -31 76 -65 76 -111c0 -80 -67 -134 -160 -134c-94 0 -161 54 -161 144zM727 214l-14 6c-29 -22 -46 -51 -46 -86c0 -46 38 -73 86 -73
c49 0 83 26 83 62c0 35 -17 51 -109 91zM678 349c0 -32 14 -50 100 -85c27 21 40 47 40 78c0 39 -29 62 -75 62c-41 0 -65 -26 -65 -55zM357 634l-170 -397h-83l172 397h-213v66h294v-66zM647 715l60 -33l-374 -697l-60 33z" />
    <glyph glyph-name="ae" unicode="&#xe6;" horiz-adv-x="923" 
d="M654 -12c-88 0 -159 36 -205 95c-49 -55 -119 -95 -206 -95c-129 0 -203 76 -203 168s76 168 197 168c62 0 112 -19 157 -49c0 10 2 20 3 29v32c0 68 -26 120 -131 120c-50 0 -98 -15 -145 -55l-52 55c61 51 128 74 201 74c98 0 155 -35 181 -89c43 55 109 89 189 89
c144 0 243 -113 243 -274c0 -10 0 -21 -1 -31h-400c11 -101 75 -163 172 -163c58 0 100 24 142 71l62 -45c-48 -63 -118 -100 -204 -100zM257 250c-79 0 -131 -32 -131 -94s52 -94 131 -94c63 0 123 35 157 84c-6 15 -11 31 -14 48c-41 36 -91 56 -143 56zM482 297h314
c-6 97 -74 159 -156 159c-87 0 -146 -61 -158 -159z" />
    <glyph glyph-name="dcroat" unicode="&#x111;" horiz-adv-x="585" 
d="M432 0v50c-41 -37 -98 -62 -160 -62c-149 0 -227 110 -227 271s78 271 227 271c62 0 119 -25 160 -63v126h-208v68h208v69h84v-69h64v-68h-64v-593h-84zM131 259c0 -120 46 -197 154 -197c51 0 110 24 147 64v265c-37 41 -96 65 -147 65c-108 0 -154 -77 -154 -197z" />
    <glyph glyph-name="eth" unicode="&#xf0;" horiz-adv-x="560" 
d="M542 640l-118 -36c55 -63 91 -153 91 -280c0 -206 -83 -336 -246 -336c-127 0 -224 92 -224 254s89 254 224 254c58 0 112 -22 149 -55c-14 57 -42 103 -80 137l-164 -49l-22 63l113 34c-28 13 -59 23 -91 30l6 74c66 -13 131 -35 185 -74l155 47zM269 422
c-86 0 -138 -71 -138 -180s52 -180 138 -180c94 0 162 71 162 263v21c-41 50 -99 76 -162 76z" />
    <glyph glyph-name="hbar" unicode="&#x127;" horiz-adv-x="583" 
d="M5 661h65v69h84v-69h207v-68h-207v-136c44 41 99 73 179 73c110 0 185 -68 185 -190v-340h-84v320c0 86 -37 136 -118 136c-69 0 -130 -43 -162 -82v-374h-84v593h-65v68z" />
    <glyph glyph-name="dotlessi" unicode="&#x131;" horiz-adv-x="234" 
d="M75 0v518h84v-518h-84z" />
    <glyph glyph-name="ij" unicode="&#x133;" horiz-adv-x="468" 
d="M75 0v518h84v-518h-84zM61 677c0 32 24 56 56 56s56 -24 56 -56s-24 -56 -56 -56s-56 24 -56 56zM295 677c0 32 24 56 56 56s56 -24 56 -56s-24 -56 -56 -56s-56 24 -56 56zM222 -224c-11 0 -29 1 -40 2v74c12 -1 29 -2 44 -2c64 0 83 33 83 90v578h84v-584
c0 -111 -60 -158 -171 -158z" />
    <glyph glyph-name="kgreenlandic" unicode="&#x138;" horiz-adv-x="520" 
d="M70 518h84v-270l229 270h103l-179 -204l208 -314h-95l-165 255l-101 -116v-139h-84v518z" />
    <glyph glyph-name="ldot" unicode="&#x140;" horiz-adv-x="429" 
d="M85 0v730h84v-730h-84zM285 379c0 31 26 57 57 57s57 -26 57 -57s-26 -57 -57 -57s-57 26 -57 57z" />
    <glyph glyph-name="lslash" unicode="&#x142;" horiz-adv-x="378" 
d="M-10 298l157 105v327h84v-271l116 78l41 -59l-157 -106v-372h-84v316l-118 -79z" />
    <glyph glyph-name="oslash" unicode="&#xf8;" horiz-adv-x="580" 
d="M63 -2l46 65c-44 49 -69 117 -69 196c0 156 96 271 250 271c48 0 91 -11 126 -32l44 62l57 -39l-47 -66c45 -48 70 -117 70 -196c0 -156 -96 -271 -250 -271c-49 0 -91 12 -127 32l-44 -62zM454 259c0 51 -12 94 -32 127l-215 -304c23 -13 51 -20 83 -20
c104 0 164 77 164 197zM126 259c0 -51 11 -94 31 -127l215 303c-23 13 -51 21 -82 21c-104 0 -164 -77 -164 -197z" />
    <glyph glyph-name="oe" unicode="&#x153;" horiz-adv-x="983" 
d="M714 -12c-96 0 -171 42 -216 111c-42 -69 -114 -111 -208 -111c-154 0 -250 115 -250 271s96 271 250 271c93 0 164 -42 207 -110c42 68 113 110 203 110c144 0 243 -113 243 -274c0 -10 0 -21 -1 -31h-400c11 -101 75 -163 172 -163c58 0 100 24 142 71l62 -45
c-48 -63 -118 -100 -204 -100zM126 259c0 -120 60 -197 164 -197s164 77 164 197s-60 197 -164 197s-164 -77 -164 -197zM542 297h314c-6 97 -74 159 -156 159c-87 0 -146 -61 -158 -159z" />
    <glyph glyph-name="germandbls" unicode="&#xdf;" horiz-adv-x="570" 
d="M269 337v80c78 0 117 44 117 115c0 56 -35 100 -108 100c-76 0 -114 -52 -114 -137v-495h-89v480c0 147 68 232 205 232c117 0 196 -86 196 -178c0 -73 -30 -126 -99 -155c92 -22 163 -83 163 -190c0 -134 -76 -201 -203 -201c-46 0 -91 11 -126 32l36 72
c24 -15 52 -24 79 -24c75 0 124 41 124 123c0 94 -76 145 -181 146z" />
    <glyph glyph-name="thorn" unicode="&#xfe;" horiz-adv-x="586" 
d="M154 50v-262h-84v942h84v-263c40 38 98 63 160 63c149 0 227 -110 227 -271s-78 -271 -227 -271c-62 0 -120 25 -160 62zM455 259c0 120 -46 197 -154 197c-51 0 -111 -24 -147 -65v-265c36 -40 96 -64 147 -64c108 0 154 77 154 197z" />
    <glyph glyph-name="tbar" unicode="&#x167;" horiz-adv-x="344" 
d="M192 330h109v-68h-109v-110c0 -57 19 -90 83 -90c16 0 27 1 44 3v-75c-11 -1 -29 -2 -40 -2c-111 0 -171 47 -171 158v116h-75v68h75v116h-93v72h93v155h84v-155h127v-72h-127v-116z" />
    <glyph glyph-name="eng" unicode="&#x14b;" horiz-adv-x="583" 
d="M518 340v-406c0 -111 -60 -158 -171 -158c-11 0 -29 1 -40 2v75c17 -2 28 -3 44 -3c64 0 83 33 83 90v380c0 86 -37 136 -118 136c-69 0 -130 -43 -162 -82v-374h-84v518h84v-61c44 41 99 73 179 73c110 0 185 -68 185 -190z" />
    <glyph glyph-name="napostrophe" unicode="&#x149;" horiz-adv-x="635" 
d="M-10 508l65 234l80 -27l-87 -223zM385 530c110 0 185 -68 185 -190v-340h-84v320c0 86 -37 136 -118 136c-69 0 -130 -43 -162 -82v-374h-84v518h84v-61c44 41 99 73 179 73z" />
    <glyph glyph-name="onesuperior" unicode="&#xb9;" 
d="M189 606l-69 -51l-48 54l126 92h65v-464h-74v369z" />
    <glyph glyph-name="twosuperior" unicode="&#xb2;" 
d="M189 641c-36 0 -74 -20 -99 -49l-53 43c34 42 93 73 159 73c87 0 142 -49 142 -133c0 -57 -24 -105 -78 -165c-41 -45 -75 -79 -106 -107h188v-66h-294v62c48 41 103 95 149 145c47 52 65 88 65 129c0 43 -24 68 -73 68z" />
    <glyph glyph-name="threesuperior" unicode="&#xb3;" 
d="M201 640c-42 0 -68 -12 -94 -46l-53 43c35 43 82 71 146 71c83 0 141 -47 141 -125c0 -50 -34 -88 -71 -105c44 -17 85 -54 85 -111c0 -77 -58 -138 -160 -138c-64 0 -119 27 -154 79l55 43c24 -37 60 -54 99 -54c52 0 84 32 84 70c0 55 -45 77 -107 77h-47v66h47
c57 0 93 26 93 68c0 37 -21 62 -64 62z" />
    <glyph glyph-name="foursuperior" unicode="&#x2074;" 
d="M243 336h-216v60l222 304h68v-298h56v-66h-56v-99h-74v99zM243 579l-127 -177h127v177z" />
    <glyph glyph-name="uni207F" unicode="&#x207f;" 
d="M239 577c66 0 111 -46 111 -122v-218h-76v206c0 40 -19 64 -56 64c-32 0 -67 -21 -81 -38v-232h-75v332h75v-31c26 23 67 39 102 39z" />
    <glyph glyph-name="oneinferior" unicode="&#x2081;" 
d="M189 243l-69 -51l-48 54l126 92h65v-464h-74v369z" />
    <glyph glyph-name="twoinferior" unicode="&#x2082;" 
d="M194 278c-36 0 -74 -20 -99 -49l-53 43c34 42 93 73 159 73c87 0 142 -49 142 -133c0 -57 -24 -105 -78 -165c-41 -45 -75 -79 -106 -107h188v-66h-294v62c48 41 103 95 149 145c47 52 65 88 65 129c0 43 -24 68 -73 68z" />
    <glyph glyph-name="threeinferior" unicode="&#x2083;" 
d="M201 277c-42 0 -68 -12 -94 -46l-53 43c35 43 82 71 146 71c83 0 141 -47 141 -125c0 -50 -34 -88 -71 -105c44 -17 85 -54 85 -111c0 -77 -58 -138 -160 -138c-64 0 -119 27 -154 79l55 43c24 -37 60 -54 99 -54c52 0 84 32 84 70c0 55 -45 77 -107 77h-47v66h47
c57 0 93 26 93 68c0 37 -21 62 -64 62z" />
    <glyph glyph-name="fourinferior" unicode="&#x2084;" 
d="M243 -27h-216v60l222 304h68v-298h56v-66h-56v-99h-74v99zM243 216l-127 -177h127v177z" />
    <glyph glyph-name="afii10017" unicode="&#x410;" horiz-adv-x="676" 
d="M290 700h96l270 -700h-97l-66 181h-310l-66 -181h-97zM338 608l-127 -349h254z" />
    <glyph glyph-name="afii10018" unicode="&#x411;" horiz-adv-x="583" 
d="M168 411h138c149 0 237 -79 237 -205s-88 -206 -237 -206h-226v700h406v-78h-318v-211zM453 206c0 83 -51 127 -157 127h-128v-255h128c106 0 157 46 157 128z" />
    <glyph glyph-name="afii10019" unicode="&#x412;" horiz-adv-x="625" 
d="M80 0v700h240c147 0 231 -74 231 -185c0 -68 -36 -126 -101 -144c90 -19 135 -85 135 -170c0 -126 -90 -201 -251 -201h-254zM168 402h140c100 0 155 44 155 113c0 74 -55 107 -155 107h-140v-220zM497 201c0 78 -56 123 -176 123h-153v-246h153c120 0 176 44 176 123z
" />
    <glyph glyph-name="afii10020" unicode="&#x413;" horiz-adv-x="538" 
d="M80 0v700h438v-78h-350v-622h-88z" />
    <glyph glyph-name="afii10021" unicode="&#x414;" horiz-adv-x="631" 
d="M611 78v-198h-88v120h-415v-120h-88v198h61c44 133 61 304 61 444v178h390v-622h79zM173 78h271v544h-214v-109c0 -146 -18 -297 -57 -435z" />
    <glyph glyph-name="afii10022" unicode="&#x415;" horiz-adv-x="565" 
d="M80 0v700h436v-78h-348v-222h313v-78h-313v-244h357v-78h-445z" />
    <glyph glyph-name="afii10023" unicode="&#x401;" horiz-adv-x="565" 
d="M80 0v700h436v-78h-348v-222h313v-78h-313v-244h357v-78h-445zM145 843c0 31 26 57 57 57s57 -26 57 -57s-26 -57 -57 -57s-57 26 -57 57zM347 843c0 31 26 57 57 57s57 -26 57 -57s-26 -57 -57 -57s-57 26 -57 57z" />
    <glyph glyph-name="afii10024" unicode="&#x416;" horiz-adv-x="900" 
d="M406 334v366h88v-366l263 366h102l-210 -286l241 -414h-106l-189 341l-101 -138v-203h-88v203l-102 138l-188 -341h-106l240 414l-209 286h102z" />
    <glyph glyph-name="afii10025" unicode="&#x417;" horiz-adv-x="554" 
d="M271 632c-57 0 -119 -25 -165 -78l-64 52c64 73 141 106 226 106c123 0 218 -64 218 -178c0 -88 -61 -150 -126 -168c93 -25 149 -85 149 -177c0 -118 -92 -201 -243 -201c-100 0 -191 45 -246 117l64 52c52 -61 115 -91 183 -91c91 0 150 48 150 124
c0 97 -84 137 -181 137h-62v78h62c91 0 158 45 158 121c0 66 -47 106 -123 106z" />
    <glyph glyph-name="afii10026" unicode="&#x418;" horiz-adv-x="708" 
d="M80 0v700h84v-561l379 561h85v-700h-84v561l-379 -561h-85z" />
    <glyph glyph-name="afii10027" unicode="&#x419;" horiz-adv-x="708" 
d="M80 0v700h84v-561l379 561h85v-700h-84v561l-379 -561h-85zM355 830c44 0 79 26 99 86l60 -16c-21 -80 -73 -135 -159 -135s-137 55 -159 135l60 16c20 -60 55 -86 99 -86z" />
    <glyph glyph-name="afii10028" unicode="&#x41a;" horiz-adv-x="614" 
d="M168 700v-384l301 384h104l-228 -287l259 -413h-106l-209 344l-121 -153v-191h-88v700h88z" />
    <glyph glyph-name="afii10029" unicode="&#x41b;" horiz-adv-x="713" 
d="M633 0h-88v622h-310v-476c0 -111 -64 -158 -175 -158c-11 0 -29 1 -40 2v75c17 -2 28 -3 44 -3c63 0 83 33 83 90v548h486v-700z" />
    <glyph glyph-name="afii10030" unicode="&#x41c;" horiz-adv-x="846" 
d="M450 127h-54l-232 417v-544h-84v700h86l257 -461l257 461h86v-700h-84v544z" />
    <glyph glyph-name="afii10031" unicode="&#x41d;" horiz-adv-x="702" 
d="M80 0v700h88v-289h366v289h88v-700h-88v333h-366v-333h-88z" />
    <glyph glyph-name="afii10032" unicode="&#x41e;" horiz-adv-x="715" 
d="M670 350c0 -203 -114 -362 -312 -362c-199 0 -313 159 -313 362s114 362 313 362c198 0 312 -159 312 -362zM135 350c0 -173 87 -282 223 -282c135 0 222 109 222 282s-87 282 -222 282c-136 0 -223 -109 -223 -282z" />
    <glyph glyph-name="afii10033" unicode="&#x41f;" horiz-adv-x="702" 
d="M622 700v-700h-88v622h-366v-622h-88v700h542z" />
    <glyph glyph-name="afii10034" unicode="&#x420;" horiz-adv-x="593" 
d="M558 482c0 -145 -100 -218 -261 -218h-129v-264h-88v700h217c161 0 261 -73 261 -218zM468 482c0 96 -58 140 -178 140h-122v-280h122c120 0 178 44 178 140z" />
    <glyph glyph-name="afii10035" unicode="&#x421;" horiz-adv-x="684" 
d="M45 350c0 213 127 362 326 362c127 0 222 -60 273 -142l-72 -45c-53 74 -115 107 -198 107c-136 0 -239 -99 -239 -282s103 -282 239 -282c83 0 145 33 198 107l72 -45c-51 -82 -146 -142 -273 -142c-199 0 -326 149 -326 362z" />
    <glyph glyph-name="afii10036" unicode="&#x422;" horiz-adv-x="564" 
d="M238 0v622h-218v78h524v-78h-218v-622h-88z" />
    <glyph glyph-name="afii10037" unicode="&#x423;" horiz-adv-x="609" 
d="M312 302l187 398h95l-330 -700h-94l98 209l-253 491h95z" />
    <glyph glyph-name="afii10038" unicode="&#x424;" horiz-adv-x="716" 
d="M402 0h-88v104c-164 8 -274 99 -274 246s110 238 274 246v104h88v-104c164 -8 274 -99 274 -246s-110 -238 -274 -246v-104zM402 516v-332c109 4 184 62 184 166s-75 162 -184 166zM314 184v332c-109 -4 -184 -62 -184 -166s75 -162 184 -166z" />
    <glyph glyph-name="afii10039" unicode="&#x425;" horiz-adv-x="609" 
d="M492 0l-188 287l-187 -287h-102l238 365l-218 335h102l167 -257l168 257h102l-219 -335l239 -365h-102z" />
    <glyph glyph-name="afii10040" unicode="&#x426;" horiz-adv-x="717" 
d="M168 78h362v622h88v-622h79v-198h-88v120h-529v700h88v-622z" />
    <glyph glyph-name="afii10041" unicode="&#x427;" horiz-adv-x="610" 
d="M530 0h-88v294c-41 -31 -95 -54 -157 -54c-142 0 -225 81 -225 231v229h88v-223c0 -107 42 -161 146 -161c61 0 114 21 148 52v332h88v-700z" />
    <glyph glyph-name="afii10042" unicode="&#x428;" horiz-adv-x="832" 
d="M168 78h204v622h88v-622h204v622h88v-700h-672v700h88v-622z" />
    <glyph glyph-name="afii10043" unicode="&#x429;" horiz-adv-x="851" 
d="M743 0h-663v700h88v-622h204v622h88v-622h204v622h88v-622h79v-198h-88v120z" />
    <glyph glyph-name="afii10044" unicode="&#x42a;" horiz-adv-x="688" 
d="M273 700v-289h138c149 0 237 -79 237 -205s-88 -206 -237 -206h-226v622h-165v78h253zM558 206c0 83 -51 127 -157 127h-128v-255h128c106 0 157 46 157 128z" />
    <glyph glyph-name="afii10045" unicode="&#x42b;" horiz-adv-x="799" 
d="M631 700h88v-700h-88v700zM80 700h88v-289h138c149 0 237 -79 237 -205s-88 -206 -237 -206h-226v700zM453 206c0 83 -51 127 -157 127h-128v-255h128c106 0 157 46 157 128z" />
    <glyph glyph-name="afii10046" unicode="&#x42c;" horiz-adv-x="583" 
d="M80 700h88v-289h138c149 0 237 -79 237 -205s-88 -206 -237 -206h-226v700zM453 206c0 83 -51 127 -157 127h-128v-255h128c106 0 157 46 157 128z" />
    <glyph glyph-name="afii10047" unicode="&#x42d;" horiz-adv-x="684" 
d="M639 350c0 -213 -130 -362 -329 -362c-127 0 -219 60 -270 142l72 45c53 -74 115 -107 198 -107c126 0 224 85 237 243h-331v78h331c-13 158 -111 243 -237 243c-83 0 -145 -33 -198 -107l-72 45c51 82 143 142 270 142c199 0 329 -149 329 -362z" />
    <glyph glyph-name="afii10048" unicode="&#x42e;" horiz-adv-x="835" 
d="M80 700h88v-311h107c10 184 95 323 257 323c173 0 258 -158 258 -362s-85 -362 -258 -362c-162 0 -247 138 -257 323h-107v-311h-88v700zM366 350c0 -175 56 -282 166 -282s166 107 166 282s-56 282 -166 282s-166 -107 -166 -282z" />
    <glyph glyph-name="afii10049" unicode="&#x42f;" horiz-adv-x="629" 
d="M63 496c0 132 99 204 253 204h233v-700h-88v292h-151l-189 -292h-101l199 303c-99 29 -156 91 -156 193zM153 496c0 -84 55 -126 169 -126h139v252h-139c-114 0 -169 -42 -169 -126z" />
    <glyph glyph-name="afii10065" unicode="&#x430;" horiz-adv-x="546" 
d="M40 156c0 92 76 168 197 168c66 0 115 -20 160 -51v63c0 68 -26 120 -131 120c-50 0 -98 -15 -145 -55l-52 55c63 52 131 74 204 74c135 0 208 -71 208 -176v-354h-84v56c-37 -38 -91 -68 -160 -68c-121 0 -197 76 -197 168zM257 250c-79 0 -131 -32 -131 -94
s52 -94 131 -94c53 0 104 28 140 65v70c-40 34 -87 53 -140 53z" />
    <glyph glyph-name="afii10066" unicode="&#x431;" horiz-adv-x="560" 
d="M296 496c135 0 224 -92 224 -254s-97 -254 -224 -254c-163 0 -246 130 -246 336c0 246 109 389 455 418l-6 -75c-210 -12 -336 -93 -357 -234c35 38 93 63 154 63zM134 346v-21c0 -192 68 -263 162 -263c86 0 138 71 138 180s-52 180 -138 180c-64 0 -122 -26 -162 -76z
" />
    <glyph glyph-name="afii10067" unicode="&#x432;" horiz-adv-x="517" 
d="M266 0h-196v518h183c130 0 197 -52 197 -136c0 -54 -24 -90 -67 -107c55 -17 94 -58 94 -125c0 -88 -68 -150 -211 -150zM364 376c0 53 -41 70 -108 70h-108v-141h108c67 0 108 18 108 71zM391 153c0 55 -46 81 -119 81h-124v-162h124c73 0 119 26 119 81z" />
    <glyph glyph-name="afii10068" unicode="&#x433;" horiz-adv-x="448" 
d="M428 446h-274v-446h-84v518h358v-72z" />
    <glyph glyph-name="afii10069" unicode="&#x434;" horiz-adv-x="571" 
d="M551 72v-182h-84v110h-363v-110h-84v182h67c32 95 48 206 48 314v132h337v-446h79zM172 72h216v374h-169v-73c0 -97 -17 -204 -47 -301z" />
    <glyph glyph-name="afii10070" unicode="&#x435;" horiz-adv-x="569" 
d="M305 -12c-157 0 -265 115 -265 271s98 271 246 271c144 0 243 -113 243 -274c0 -10 0 -21 -1 -31h-400c11 -101 75 -163 172 -163c58 0 100 24 142 71l62 -45c-48 -63 -117 -100 -199 -100zM128 297h314c-6 97 -74 159 -156 159c-87 0 -146 -61 -158 -159z" />
    <glyph glyph-name="afii10071" unicode="&#x451;" horiz-adv-x="569" 
d="M305 -12c82 0 151 37 199 100l-62 45c-42 -47 -84 -71 -142 -71c-97 0 -161 62 -172 163h400c1 10 1 21 1 31c0 161 -99 274 -243 274c-148 0 -246 -115 -246 -271s108 -271 265 -271zM442 297h-314c12 98 71 159 158 159c82 0 150 -62 156 -159zM131 669
c0 31 26 57 57 57s57 -26 57 -57s-26 -57 -57 -57s-57 26 -57 57zM333 669c0 31 26 57 57 57s57 -26 57 -57s-26 -57 -57 -57s-57 26 -57 57z" />
    <glyph glyph-name="afii10072" unicode="&#x436;" horiz-adv-x="756" 
d="M336 518h84v-257l203 257h99l-166 -203l195 -315h-91l-154 253l-86 -105v-148h-84v148l-86 105l-154 -253h-91l195 315l-166 203h99l203 -257v257z" />
    <glyph glyph-name="afii10073" unicode="&#x437;" horiz-adv-x="484" 
d="M236 62c78 0 122 29 122 80c0 63 -73 94 -157 94h-55v74h55c79 0 137 28 137 77c0 44 -42 69 -103 69c-45 0 -95 -16 -138 -53l-57 51c56 53 122 76 191 76c108 0 193 -50 193 -138c0 -61 -40 -100 -92 -120c70 -20 112 -67 112 -130c0 -90 -77 -154 -210 -154
c-92 0 -166 29 -219 76l56 58c50 -39 98 -60 165 -60z" />
    <glyph glyph-name="afii10074" unicode="&#x438;" horiz-adv-x="602" 
d="M532 0h-84v391l-293 -391h-85v518h84v-391l293 391h85v-518z" />
    <glyph glyph-name="afii10075" unicode="&#x439;" horiz-adv-x="602" 
d="M532 0h-84v391l-293 -391h-85v518h84v-391l293 391h85v-518zM301 658c44 0 79 26 99 86l60 -16c-21 -80 -73 -135 -159 -135s-137 55 -159 135l60 16c20 -60 55 -86 99 -86z" />
    <glyph glyph-name="afii10076" unicode="&#x43a;" horiz-adv-x="520" 
d="M70 518h84v-270l229 270h103l-179 -204l208 -314h-95l-165 255l-101 -116v-139h-84v518z" />
    <glyph glyph-name="afii10077" unicode="&#x43b;" horiz-adv-x="586" 
d="M142 518h374v-518h-84v446h-206v-300c0 -111 -60 -158 -166 -158c-11 0 -29 1 -40 2v75c17 -2 28 -3 44 -3c59 0 78 33 78 90v366z" />
    <glyph glyph-name="afii10078" unicode="&#x43c;" horiz-adv-x="698" 
d="M154 0h-84v518h79l200 -315l200 315h79v-518h-84v368l-169 -260h-52l-169 261v-369z" />
    <glyph glyph-name="afii10079" unicode="&#x43d;" horiz-adv-x="584" 
d="M154 318h276v200h84v-518h-84v246h-276v-246h-84v518h84v-200z" />
    <glyph glyph-name="afii10080" unicode="&#x43e;" horiz-adv-x="580" 
d="M40 259c0 156 96 271 250 271s250 -115 250 -271s-96 -271 -250 -271s-250 115 -250 271zM126 259c0 -120 60 -197 164 -197s164 77 164 197s-60 197 -164 197s-164 -77 -164 -197z" />
    <glyph glyph-name="afii10081" unicode="&#x43f;" horiz-adv-x="564" 
d="M410 446h-256v-446h-84v518h424v-518h-84v446z" />
    <glyph glyph-name="afii10082" unicode="&#x440;" horiz-adv-x="586" 
d="M154 50v-262h-84v730h84v-51c40 38 98 63 160 63c149 0 227 -110 227 -271s-78 -271 -227 -271c-62 0 -120 25 -160 62zM455 259c0 120 -46 197 -154 197c-51 0 -111 -24 -147 -65v-265c36 -40 96 -64 147 -64c108 0 154 77 154 197z" />
    <glyph glyph-name="afii10083" unicode="&#x441;" horiz-adv-x="534" 
d="M40 259c0 156 94 271 244 271c99 0 176 -46 220 -121l-65 -39c-39 56 -82 86 -149 86c-104 0 -164 -77 -164 -197s60 -197 164 -197c67 0 110 30 149 86l65 -39c-44 -75 -121 -121 -220 -121c-150 0 -244 115 -244 271z" />
    <glyph glyph-name="afii10084" unicode="&#x442;" horiz-adv-x="494" 
d="M205 0v446h-190v72h464v-72h-190v-446h-84z" />
    <glyph glyph-name="afii10085" unicode="&#x443;" horiz-adv-x="519" 
d="M229 -212h-83l80 214l-211 516h87l164 -410l153 410h85z" />
    <glyph glyph-name="afii10086" unicode="&#x444;" horiz-adv-x="894" 
d="M261 530c61 0 108 -27 144 -61v261h84v-261c36 34 82 61 144 61c149 0 216 -108 216 -271c0 -161 -65 -271 -214 -271c-60 0 -105 23 -146 59v-259h-84v259c-41 -36 -86 -59 -146 -59c-149 0 -214 110 -214 271c0 163 67 271 216 271zM272 62c48 0 100 24 133 63v273
c-33 33 -79 58 -126 58c-113 0 -148 -75 -148 -197c0 -117 34 -197 141 -197zM615 456c-47 0 -93 -25 -126 -58v-273c33 -39 85 -63 133 -63c107 0 141 80 141 197c0 122 -35 197 -148 197z" />
    <glyph glyph-name="afii10087" unicode="&#x445;" horiz-adv-x="500" 
d="M122 518l128 -181l128 181h94l-175 -247l193 -271h-95l-145 205l-145 -205h-95l193 271l-175 247h94z" />
    <glyph glyph-name="afii10088" unicode="&#x446;" horiz-adv-x="598" 
d="M494 72h84v-182h-84v110h-424v518h84v-446h256v446h84v-446z" />
    <glyph glyph-name="afii10089" unicode="&#x447;" horiz-adv-x="533" 
d="M253 252c52 0 97 21 126 48v218h84v-518h-84v227c-39 -27 -85 -49 -137 -49c-118 0 -197 61 -197 194v146h84v-140c0 -92 44 -126 124 -126z" />
    <glyph glyph-name="afii10090" unicode="&#x448;" horiz-adv-x="706" 
d="M395 72h157v446h84v-518h-566v518h84v-446h157v446h84v-446z" />
    <glyph glyph-name="afii10091" unicode="&#x449;" horiz-adv-x="740" 
d="M636 0h-566v518h84v-446h157v446h84v-446h157v446h84v-446h84v-182h-84v110z" />
    <glyph glyph-name="afii10092" unicode="&#x44a;" horiz-adv-x="568" 
d="M234 322h94c136 0 210 -58 210 -161s-74 -161 -210 -161h-178v446h-145v72h229v-196zM452 161c0 60 -37 89 -130 89h-87v-178h87c93 0 130 29 130 89z" />
    <glyph glyph-name="afii10093" unicode="&#x44b;" horiz-adv-x="699" 
d="M545 0v518h84v-518h-84zM70 0v518h84v-196h94c136 0 210 -58 210 -161s-74 -161 -210 -161h-178zM372 161c0 60 -37 89 -130 89h-87v-178h87c93 0 130 29 130 89z" />
    <glyph glyph-name="afii10094" unicode="&#x44c;" horiz-adv-x="488" 
d="M70 0v518h84v-196h94c136 0 210 -58 210 -161s-74 -161 -210 -161h-178zM372 161c0 60 -37 89 -130 89h-87v-178h87c93 0 130 29 130 89z" />
    <glyph glyph-name="afii10095" unicode="&#x44d;" horiz-adv-x="534" 
d="M494 259c0 -156 -96 -271 -250 -271c-99 0 -170 46 -214 121l65 39c39 -56 82 -86 149 -86c93 0 151 62 162 161h-226v72h226c-11 99 -69 161 -162 161c-67 0 -110 -30 -149 -86l-65 39c44 75 115 121 214 121c154 0 250 -115 250 -271z" />
    <glyph glyph-name="afii10096" unicode="&#x44e;" horiz-adv-x="724" 
d="M70 0v518h84v-223h81c12 138 95 235 224 235c139 0 225 -115 225 -271s-86 -271 -225 -271c-129 0 -212 97 -224 235h-81v-223h-84zM320 259c0 -120 55 -197 139 -197s139 77 139 197s-55 197 -139 197s-139 -77 -139 -197z" />
    <glyph glyph-name="afii10097" unicode="&#x44f;" horiz-adv-x="536" 
d="M382 214h-134l-138 -214h-100l149 226c-73 21 -109 72 -109 140c0 98 71 152 202 152h214v-518h-84v214zM257 286h125v160h-125c-83 0 -123 -32 -123 -80s40 -80 123 -80z" />
    <glyph glyph-name="AEacute" unicode="&#x1fc;" horiz-adv-x="864" 
d="M211 181l-92 -181h-99l363 700h432v-78h-294v-222h259v-78h-259v-244h303v-78h-391v181h-222zM433 259v359l-183 -359h183zM612 939l64 -53l-152 -136l-46 40z" />
    <glyph glyph-name="Aacute" unicode="&#xc1;" horiz-adv-x="676" 
d="M290 700h96l270 -700h-97l-66 181h-310l-66 -181h-97zM338 608l-127 -349h254zM408 939l64 -53l-152 -136l-46 40z" />
    <glyph glyph-name="Abreve" unicode="&#x102;" horiz-adv-x="676" 
d="M290 700h96l270 -700h-97l-66 181h-310l-66 -181h-97zM338 608l-127 -349h254zM338 830c44 0 79 26 99 86l60 -16c-21 -80 -73 -135 -159 -135s-137 55 -159 135l60 16c20 -60 55 -86 99 -86z" />
    <glyph glyph-name="Acircumflex" unicode="&#xc2;" horiz-adv-x="676" 
d="M290 700h96l270 -700h-97l-66 181h-310l-66 -181h-97zM338 608l-127 -349h254zM308 924h60l128 -136l-44 -38l-114 103l-114 -103l-44 38z" />
    <glyph glyph-name="Adieresis" unicode="&#xc4;" horiz-adv-x="676" 
d="M386 700h-96l-270 -700h97l66 181h310l66 -181h97zM211 259l127 349l127 -349h-254zM180 843c0 31 26 57 57 57s57 -26 57 -57s-26 -57 -57 -57s-57 26 -57 57zM382 843c0 31 26 57 57 57s57 -26 57 -57s-26 -57 -57 -57s-57 26 -57 57z" />
    <glyph glyph-name="Agrave" unicode="&#xc0;" horiz-adv-x="676" 
d="M290 700h96l270 -700h-97l-66 181h-310l-66 -181h-97zM338 608l-127 -349h254zM204 886l64 53l134 -149l-46 -40z" />
    <glyph glyph-name="Amacron" unicode="&#x100;" horiz-adv-x="676" 
d="M386 700h-96l-270 -700h97l66 181h310l66 -181h97zM211 259l127 349l127 -349h-254zM192 809v68h292v-68h-292z" />
    <glyph glyph-name="Aogonek" unicode="&#x104;" horiz-adv-x="676" 
d="M386 700l270 -700c-40 -31 -63 -63 -63 -103c0 -33 22 -51 49 -51c16 0 35 8 46 20l39 -48c-27 -23 -53 -37 -97 -37c-71 0 -112 49 -112 104c0 42 26 87 64 115h-23l-66 181h-310l-66 -181h-97l270 700h96zM338 608l-127 -349h254z" />
    <glyph glyph-name="Aring" unicode="&#xc5;" horiz-adv-x="676" 
d="M290 700h96l270 -700h-97l-66 181h-310l-66 -181h-97zM338 608l-127 -349h254zM444 843c0 -58 -46 -104 -106 -104s-106 46 -106 104s46 104 106 104s106 -46 106 -104zM295 843c0 -26 18 -45 43 -45s43 19 43 45s-18 45 -43 45s-43 -19 -43 -45z" />
    <glyph glyph-name="Aringacute" unicode="&#x1fa;" horiz-adv-x="676" 
d="M444 741c0 -34 -16 -64 -42 -83l254 -658h-97l-66 181h-310l-66 -181h-97l253 658c-25 19 -41 49 -41 83c0 58 46 104 106 104s106 -46 106 -104zM338 613l-127 -354h254zM295 741c0 -26 18 -45 43 -45s43 19 43 45s-18 45 -43 45s-43 -19 -43 -45zM409 1000l47 -57
l-146 -85l-33 40z" />
    <glyph glyph-name="Atilde" unicode="&#xc3;" horiz-adv-x="676" 
d="M386 700h-96l-270 -700h97l66 181h310l66 -181h97zM211 259l127 349l127 -349h-254zM354 873c15 -14 29 -24 48 -24c20 0 33 18 41 49l61 -10c-15 -67 -50 -105 -103 -105c-30 0 -55 10 -79 32c-15 14 -29 24 -48 24c-20 0 -33 -18 -41 -49l-61 10c15 67 50 105 103 105
c30 0 55 -10 79 -32z" />
    <glyph glyph-name="Cacute" unicode="&#x106;" horiz-adv-x="684" 
d="M45 350c0 213 127 362 326 362c127 0 222 -60 273 -142l-72 -45c-53 74 -115 107 -198 107c-136 0 -239 -99 -239 -282s103 -282 239 -282c83 0 145 33 198 107l72 -45c-51 -82 -146 -142 -273 -142c-199 0 -326 149 -326 362zM438 939l64 -53l-152 -136l-46 40z" />
    <glyph glyph-name="Ccaron" unicode="&#x10c;" horiz-adv-x="684" 
d="M45 350c0 -213 127 -362 326 -362c127 0 222 60 273 142l-72 45c-53 -74 -115 -107 -198 -107c-136 0 -239 99 -239 282s103 282 239 282c83 0 145 -33 198 -107l72 45c-51 82 -146 142 -273 142c-199 0 -326 -149 -326 -362zM399 762h-60l-128 136l44 38l114 -103
l114 103l44 -38z" />
    <glyph glyph-name="Ccedilla" unicode="&#xc7;" horiz-adv-x="684" 
d="M358 -175c29 0 50 16 50 42c0 33 -37 50 -89 50l-6 8l30 64c-183 13 -298 158 -298 361c0 213 127 362 326 362c127 0 222 -60 273 -142l-72 -45c-53 74 -115 107 -198 107c-136 0 -239 -99 -239 -282s103 -282 239 -282c83 0 145 33 198 107l72 -45
c-45 -73 -125 -128 -230 -139l-15 -32c52 -12 84 -49 84 -96c0 -49 -36 -101 -123 -101c-37 0 -77 12 -102 37l39 48c16 -14 35 -22 61 -22z" />
    <glyph glyph-name="Ccircumflex" unicode="&#x108;" horiz-adv-x="684" 
d="M45 350c0 213 127 362 326 362c127 0 222 -60 273 -142l-72 -45c-53 74 -115 107 -198 107c-136 0 -239 -99 -239 -282s103 -282 239 -282c83 0 145 33 198 107l72 -45c-51 -82 -146 -142 -273 -142c-199 0 -326 149 -326 362zM344 924h60l128 -136l-44 -38l-114 103
l-114 -103l-44 38z" />
    <glyph glyph-name="Cdotaccent" unicode="&#x10a;" horiz-adv-x="684" 
d="M45 350c0 -213 127 -362 326 -362c127 0 222 60 273 142l-72 45c-53 -74 -115 -107 -198 -107c-136 0 -239 99 -239 282s103 282 239 282c83 0 145 -33 198 -107l72 45c-51 82 -146 142 -273 142c-199 0 -326 -149 -326 -362zM306 843c0 31 26 57 57 57s57 -26 57 -57
s-26 -57 -57 -57s-57 26 -57 57z" />
    <glyph glyph-name="Dcaron" unicode="&#x10e;" horiz-adv-x="685" 
d="M80 0v700h228c211 0 332 -132 332 -350c0 -219 -121 -350 -332 -350h-228zM168 78h133c158 0 249 98 249 272c0 173 -91 272 -249 272h-133v-544zM320 762h-60l-128 136l44 38l114 -103l114 103l44 -38z" />
    <glyph glyph-name="Dcroat" unicode="&#x110;" horiz-adv-x="685" 
d="M80 0v314h-75v72h75v314h228c211 0 332 -132 332 -350c0 -219 -121 -350 -332 -350h-228zM168 78h133c158 0 249 98 249 272c0 173 -91 272 -249 272h-133v-236h166v-72h-166v-236z" />
    <glyph glyph-name="Eacute" unicode="&#xc9;" horiz-adv-x="565" 
d="M80 0v700h436v-78h-348v-222h313v-78h-313v-244h357v-78h-445zM362 939l64 -53l-152 -136l-46 40z" />
    <glyph glyph-name="Ebreve" unicode="&#x114;" horiz-adv-x="565" 
d="M80 0v700h436v-78h-348v-222h313v-78h-313v-244h357v-78h-445zM303 830c44 0 79 26 99 86l60 -16c-21 -80 -73 -135 -159 -135s-137 55 -159 135l60 16c20 -60 55 -86 99 -86z" />
    <glyph glyph-name="Ecaron" unicode="&#x11a;" horiz-adv-x="565" 
d="M80 0v700h436v-78h-348v-222h313v-78h-313v-244h357v-78h-445zM333 762h-60l-128 136l44 38l114 -103l114 103l44 -38z" />
    <glyph glyph-name="Ecircumflex" unicode="&#xca;" horiz-adv-x="565" 
d="M80 0v700h436v-78h-348v-222h313v-78h-313v-244h357v-78h-445zM273 924h60l128 -136l-44 -38l-114 103l-114 -103l-44 38z" />
    <glyph glyph-name="Edieresis" unicode="&#xcb;" horiz-adv-x="565" 
d="M80 0v700h436v-78h-348v-222h313v-78h-313v-244h357v-78h-445zM145 843c0 31 26 57 57 57s57 -26 57 -57s-26 -57 -57 -57s-57 26 -57 57zM347 843c0 31 26 57 57 57s57 -26 57 -57s-26 -57 -57 -57s-57 26 -57 57z" />
    <glyph glyph-name="Edotaccent" unicode="&#x116;" horiz-adv-x="565" 
d="M80 0v700h436v-78h-348v-222h313v-78h-313v-244h357v-78h-445zM246 843c0 31 26 57 57 57s57 -26 57 -57s-26 -57 -57 -57s-57 26 -57 57z" />
    <glyph glyph-name="Egrave" unicode="&#xc8;" horiz-adv-x="565" 
d="M80 0v700h436v-78h-348v-222h313v-78h-313v-244h357v-78h-445zM178 886l64 53l134 -149l-46 -40z" />
    <glyph glyph-name="Emacron" unicode="&#x112;" horiz-adv-x="565" 
d="M80 0v700h436v-78h-348v-222h313v-78h-313v-244h357v-78h-445zM157 809v68h292v-68h-292z" />
    <glyph glyph-name="Eogonek" unicode="&#x118;" horiz-adv-x="565" 
d="M80 0v700h436v-78h-348v-222h313v-78h-313v-244h357v-78h-53c-40 -31 -63 -63 -63 -103c0 -33 22 -51 49 -51c16 0 35 8 46 20l39 -48c-27 -23 -53 -37 -97 -37c-71 0 -112 49 -112 104c0 42 26 87 64 115h-318z" />
    <glyph glyph-name="Gbreve" unicode="&#x11e;" horiz-adv-x="705" 
d="M45 350c0 213 130 362 316 362c135 0 224 -54 280 -141l-72 -45c-50 73 -110 106 -205 106c-123 0 -229 -99 -229 -282c0 -177 108 -282 248 -282c74 0 139 25 174 70v150h-175v78h263v-260c-58 -75 -151 -118 -264 -118c-199 0 -336 155 -336 362zM361 830
c44 0 79 26 99 86l60 -16c-21 -80 -73 -135 -159 -135s-137 55 -159 135l60 16c20 -60 55 -86 99 -86z" />
    <glyph glyph-name="Gcircumflex" unicode="&#x11c;" horiz-adv-x="705" 
d="M45 350c0 213 130 362 316 362c135 0 224 -54 280 -141l-72 -45c-50 73 -110 106 -205 106c-123 0 -229 -99 -229 -282c0 -177 108 -282 248 -282c74 0 139 25 174 70v150h-175v78h263v-260c-58 -75 -151 -118 -264 -118c-199 0 -336 155 -336 362zM331 924h60l128 -136
l-44 -38l-114 103l-114 -103l-44 38z" />
    <glyph glyph-name="Gcommaaccent" unicode="&#x122;" horiz-adv-x="705" 
d="M45 350c0 213 130 362 316 362c135 0 224 -54 280 -141l-72 -45c-50 73 -110 106 -205 106c-123 0 -229 -99 -229 -282c0 -177 108 -282 248 -282c74 0 139 25 174 70v150h-175v78h263v-260c-58 -75 -151 -118 -264 -118c-199 0 -336 155 -336 362zM315 -241l58 199
l75 -26l-75 -193z" />
    <glyph glyph-name="Gdotaccent" unicode="&#x120;" horiz-adv-x="705" 
d="M45 350c0 -207 137 -362 336 -362c113 0 206 43 264 118v260h-263v-78h175v-150c-35 -45 -100 -70 -174 -70c-140 0 -248 105 -248 282c0 183 106 282 229 282c95 0 155 -33 205 -106l72 45c-56 87 -145 141 -280 141c-186 0 -316 -149 -316 -362zM304 843
c0 31 26 57 57 57s57 -26 57 -57s-26 -57 -57 -57s-57 26 -57 57z" />
    <glyph glyph-name="Hcircumflex" unicode="&#x124;" horiz-adv-x="702" 
d="M80 0v700h88v-289h366v289h88v-700h-88v333h-366v-333h-88zM321 924h60l128 -136l-44 -38l-114 103l-114 -103l-44 38z" />
    <glyph glyph-name="Iacute" unicode="&#xcd;" horiz-adv-x="258" 
d="M85 700h88v-700h-88v700zM228 939l64 -53l-152 -136l-46 40z" />
    <glyph glyph-name="Ibreve" unicode="&#x12c;" horiz-adv-x="258" 
d="M85 700h88v-700h-88v700zM129 830c44 0 79 26 99 86l60 -16c-21 -80 -73 -135 -159 -135s-137 55 -159 135l60 16c20 -60 55 -86 99 -86z" />
    <glyph glyph-name="Icircumflex" unicode="&#xce;" horiz-adv-x="258" 
d="M85 700h88v-700h-88v700zM99 924h60l128 -136l-44 -38l-114 103l-114 -103l-44 38z" />
    <glyph glyph-name="Idieresis" unicode="&#xcf;" horiz-adv-x="258" 
d="M85 700h88v-700h-88v700zM-29 843c0 31 26 57 57 57s57 -26 57 -57s-26 -57 -57 -57s-57 26 -57 57zM173 843c0 31 26 57 57 57s57 -26 57 -57s-26 -57 -57 -57s-57 26 -57 57z" />
    <glyph glyph-name="Idotaccent" unicode="&#x130;" horiz-adv-x="258" 
d="M85 700h88v-700h-88v700zM72 843c0 31 26 57 57 57s57 -26 57 -57s-26 -57 -57 -57s-57 26 -57 57z" />
    <glyph glyph-name="Igrave" unicode="&#xcc;" horiz-adv-x="258" 
d="M85 700h88v-700h-88v700zM-34 886l64 53l134 -149l-46 -40z" />
    <glyph glyph-name="Imacron" unicode="&#x12a;" horiz-adv-x="258" 
d="M85 700h88v-700h-88v700zM-17 809v68h292v-68h-292z" />
    <glyph glyph-name="Iogonek" unicode="&#x12e;" horiz-adv-x="258" 
d="M85 700h88v-700c-40 -31 -63 -63 -63 -103c0 -33 22 -51 49 -51c16 0 35 8 46 20l39 -48c-27 -23 -53 -37 -97 -37c-71 0 -112 49 -112 104c0 42 26 87 64 115h-14v700z" />
    <glyph glyph-name="Itilde" unicode="&#x128;" horiz-adv-x="258" 
d="M85 700h88v-700h-88v700zM145 873c15 -14 29 -24 48 -24c20 0 33 18 41 49l61 -10c-15 -67 -50 -105 -103 -105c-30 0 -55 10 -79 32c-15 14 -29 24 -48 24c-20 0 -33 -18 -41 -49l-61 10c15 67 50 105 103 105c30 0 55 -10 79 -32z" />
    <glyph glyph-name="Jcircumflex" unicode="&#x134;" horiz-adv-x="568" 
d="M260 68c95 0 140 69 140 174v458h88v-458c0 -153 -76 -254 -225 -254c-104 0 -186 49 -233 140l72 41c37 -66 91 -101 158 -101zM414 924h60l128 -136l-44 -38l-114 103l-114 -103l-44 38z" />
    <glyph glyph-name="Kcommaaccent" unicode="&#x136;" horiz-adv-x="614" 
d="M168 700v-384l301 384h104l-228 -287l259 -413h-106l-209 344l-121 -153v-191h-88v700h88zM249 -241l58 199l75 -26l-75 -193z" />
    <glyph glyph-name="Lacute" unicode="&#x139;" horiz-adv-x="535" 
d="M80 0v700h88v-622h347v-78h-435zM220 939l64 -53l-152 -136l-46 40z" />
    <glyph glyph-name="Lcaron" unicode="&#x13d;" horiz-adv-x="535" 
d="M80 0v700h88v-622h347v-78h-435zM321 508l65 234l80 -27l-87 -223z" />
    <glyph glyph-name="Lcommaaccent" unicode="&#x13b;" horiz-adv-x="535" 
d="M80 0v700h88v-622h347v-78h-435zM225 -241l58 199l75 -26l-75 -193z" />
    <glyph glyph-name="Nacute" unicode="&#x143;" horiz-adv-x="708" 
d="M80 0v700h85l379 -561v561h84v-700h-85l-379 561v-561h-84zM447 939l64 -53l-152 -136l-46 40z" />
    <glyph glyph-name="Ncaron" unicode="&#x147;" horiz-adv-x="708" 
d="M80 0v700h85l379 -561v561h84v-700h-85l-379 561v-561h-84zM384 762h-60l-128 136l44 38l114 -103l114 103l44 -38z" />
    <glyph glyph-name="Ncommaaccent" unicode="&#x145;" horiz-adv-x="708" 
d="M80 0v700h85l379 -561v561h84v-700h-85l-379 561v-561h-84zM291 -241l58 199l75 -26l-75 -193z" />
    <glyph glyph-name="Ntilde" unicode="&#xd1;" horiz-adv-x="708" 
d="M80 0v700h85l379 -561v561h84v-700h-85l-379 561v-561h-84zM370 873c15 -14 29 -24 48 -24c20 0 33 18 41 49l61 -10c-15 -67 -50 -105 -103 -105c-30 0 -55 10 -79 32c-15 14 -29 24 -48 24c-20 0 -33 -18 -41 -49l-61 10c15 67 50 105 103 105c30 0 55 -10 79 -32z" />
    <glyph glyph-name="Oacute" unicode="&#xd3;" horiz-adv-x="715" 
d="M670 350c0 -203 -114 -362 -312 -362c-199 0 -313 159 -313 362s114 362 313 362c198 0 312 -159 312 -362zM135 350c0 -173 87 -282 223 -282c135 0 222 109 222 282s-87 282 -222 282c-136 0 -223 -109 -223 -282zM422 939l64 -53l-152 -136l-46 40z" />
    <glyph glyph-name="Obreve" unicode="&#x14e;" horiz-adv-x="715" 
d="M670 350c0 -203 -114 -362 -312 -362c-199 0 -313 159 -313 362s114 362 313 362c198 0 312 -159 312 -362zM135 350c0 -173 87 -282 223 -282c135 0 222 109 222 282s-87 282 -222 282c-136 0 -223 -109 -223 -282zM357 830c44 0 79 26 99 86l60 -16
c-21 -80 -73 -135 -159 -135s-137 55 -159 135l60 16c20 -60 55 -86 99 -86z" />
    <glyph glyph-name="Ocircumflex" unicode="&#xd4;" horiz-adv-x="715" 
d="M670 350c0 -203 -114 -362 -312 -362c-199 0 -313 159 -313 362s114 362 313 362c198 0 312 -159 312 -362zM135 350c0 -173 87 -282 223 -282c135 0 222 109 222 282s-87 282 -222 282c-136 0 -223 -109 -223 -282zM327 924h60l128 -136l-44 -38l-114 103l-114 -103
l-44 38z" />
    <glyph glyph-name="Odieresis" unicode="&#xd6;" horiz-adv-x="715" 
d="M670 350c0 -203 -114 -362 -312 -362c-199 0 -313 159 -313 362s114 362 313 362c198 0 312 -159 312 -362zM135 350c0 -173 87 -282 223 -282c135 0 222 109 222 282s-87 282 -222 282c-136 0 -223 -109 -223 -282zM200 843c0 31 26 57 57 57s57 -26 57 -57
s-26 -57 -57 -57s-57 26 -57 57zM402 843c0 31 26 57 57 57s57 -26 57 -57s-26 -57 -57 -57s-57 26 -57 57z" />
    <glyph glyph-name="Ograve" unicode="&#xd2;" horiz-adv-x="715" 
d="M670 350c0 -203 -114 -362 -312 -362c-199 0 -313 159 -313 362s114 362 313 362c198 0 312 -159 312 -362zM135 350c0 -173 87 -282 223 -282c135 0 222 109 222 282s-87 282 -222 282c-136 0 -223 -109 -223 -282zM229 886l64 53l134 -149l-46 -40z" />
    <glyph glyph-name="Ohungarumlaut" unicode="&#x150;" horiz-adv-x="715" 
d="M670 350c0 -203 -114 -362 -312 -362c-199 0 -313 159 -313 362s114 362 313 362c198 0 312 -159 312 -362zM135 350c0 -173 87 -282 223 -282c135 0 222 109 222 282s-87 282 -222 282c-136 0 -223 -109 -223 -282zM573 879l-147 -137l-54 38l136 151zM392 880
l-115 -138l-54 38l105 151z" />
    <glyph glyph-name="Omacron" unicode="&#x14c;" horiz-adv-x="715" 
d="M670 350c0 -203 -114 -362 -312 -362c-199 0 -313 159 -313 362s114 362 313 362c198 0 312 -159 312 -362zM135 350c0 -173 87 -282 223 -282c135 0 222 109 222 282s-87 282 -222 282c-136 0 -223 -109 -223 -282zM211 809v68h292v-68h-292z" />
    <glyph glyph-name="Oslashacute" unicode="&#x1fe;" horiz-adv-x="715" 
d="M71 4l59 84c-56 66 -85 158 -85 262c0 203 114 362 313 362c69 0 127 -19 175 -53l55 78l57 -39l-61 -86c56 -66 86 -158 86 -262c0 -203 -114 -362 -312 -362c-70 0 -129 19 -177 53l-54 -77zM580 350c0 76 -18 140 -48 188l-302 -428c35 -27 78 -42 128 -42
c135 0 222 109 222 282zM135 350c0 -76 17 -140 47 -188l302 428c-34 27 -77 42 -126 42c-136 0 -223 -109 -223 -282zM422 939l64 -53l-152 -136l-46 40z" />
    <glyph glyph-name="Otilde" unicode="&#xd5;" horiz-adv-x="715" 
d="M670 350c0 -203 -114 -362 -312 -362c-199 0 -313 159 -313 362s114 362 313 362c198 0 312 -159 312 -362zM135 350c0 -173 87 -282 223 -282c135 0 222 109 222 282s-87 282 -222 282c-136 0 -223 -109 -223 -282zM373 873c15 -14 29 -24 48 -24c20 0 33 18 41 49
l61 -10c-15 -67 -50 -105 -103 -105c-30 0 -55 10 -79 32c-15 14 -29 24 -48 24c-20 0 -33 -18 -41 -49l-61 10c15 67 50 105 103 105c30 0 55 -10 79 -32z" />
    <glyph glyph-name="Racute" unicode="&#x154;" horiz-adv-x="629" 
d="M566 496c0 -102 -57 -164 -156 -193l199 -303h-101l-189 292h-151v-292h-88v700h233c154 0 253 -72 253 -204zM476 496c0 84 -55 126 -169 126h-139v-252h139c114 0 169 42 169 126zM326 939l64 -53l-152 -136l-46 40z" />
    <glyph glyph-name="Rcaron" unicode="&#x158;" horiz-adv-x="629" 
d="M566 496c0 -102 -57 -164 -156 -193l199 -303h-101l-189 292h-151v-292h-88v700h233c154 0 253 -72 253 -204zM476 496c0 84 -55 126 -169 126h-139v-252h139c114 0 169 42 169 126zM307 762h-60l-128 136l44 38l114 -103l114 103l44 -38z" />
    <glyph glyph-name="Rcommaaccent" unicode="&#x156;" horiz-adv-x="629" 
d="M566 496c0 -102 -57 -164 -156 -193l199 -303h-101l-189 292h-151v-292h-88v700h233c154 0 253 -72 253 -204zM476 496c0 84 -55 126 -169 126h-139v-252h139c114 0 169 42 169 126zM258 -241l58 199l75 -26l-75 -193z" />
    <glyph glyph-name="Sacute" unicode="&#x15a;" horiz-adv-x="601" 
d="M318 68c91 0 148 48 148 111c0 82 -52 116 -184 150c-168 43 -215 119 -215 203c0 105 82 180 220 180c94 0 180 -39 242 -108l-64 -53c-52 52 -109 81 -176 81c-89 0 -132 -41 -132 -100c0 -51 44 -97 149 -125c173 -46 250 -99 250 -223c0 -115 -89 -196 -239 -196
c-113 0 -207 41 -282 121l67 56c63 -67 134 -97 216 -97zM366 939l64 -53l-152 -136l-46 40z" />
    <glyph glyph-name="Scaron" unicode="&#x160;" horiz-adv-x="601" 
d="M318 68c91 0 148 48 148 111c0 82 -52 116 -184 150c-168 43 -215 119 -215 203c0 105 82 180 220 180c94 0 180 -39 242 -108l-64 -53c-52 52 -109 81 -176 81c-89 0 -132 -41 -132 -100c0 -51 44 -97 149 -125c173 -46 250 -99 250 -223c0 -115 -89 -196 -239 -196
c-113 0 -207 41 -282 121l67 56c63 -67 134 -97 216 -97zM326 762h-60l-128 136l44 38l114 -103l114 103l44 -38z" />
    <glyph glyph-name="Scedilla" unicode="&#x15e;" horiz-adv-x="601" 
d="M289 -175c29 0 50 16 50 42c0 33 -37 50 -89 50l-6 8l30 65c-94 9 -174 49 -239 119l67 56c63 -67 134 -97 216 -97c91 0 148 48 148 111c0 82 -52 116 -184 150c-168 43 -215 119 -215 203c0 105 82 180 220 180c94 0 180 -39 242 -108l-64 -53c-52 52 -109 81 -176 81
c-89 0 -132 -41 -132 -100c0 -51 44 -97 149 -125c173 -46 250 -99 250 -223c0 -108 -79 -185 -212 -195l-14 -30c52 -12 84 -49 84 -96c0 -49 -36 -101 -123 -101c-37 0 -77 12 -102 37l39 48c16 -14 35 -22 61 -22z" />
    <glyph glyph-name="Scircumflex" unicode="&#x15c;" horiz-adv-x="601" 
d="M318 68c91 0 148 48 148 111c0 82 -52 116 -184 150c-168 43 -215 119 -215 203c0 105 82 180 220 180c94 0 180 -39 242 -108l-64 -53c-52 52 -109 81 -176 81c-89 0 -132 -41 -132 -100c0 -51 44 -97 149 -125c173 -46 250 -99 250 -223c0 -115 -89 -196 -239 -196
c-113 0 -207 41 -282 121l67 56c63 -67 134 -97 216 -97zM276 924h60l128 -136l-44 -38l-114 103l-114 -103l-44 38z" />
    <glyph glyph-name="Tcaron" unicode="&#x164;" horiz-adv-x="544" 
d="M228 0v622h-218v78h524v-78h-218v-622h-88zM302 762h-60l-128 136l44 38l114 -103l114 103l44 -38z" />
    <glyph glyph-name="Tcommaaccent" unicode="&#x162;" horiz-adv-x="564" 
d="M238 0v622h-218v78h524v-78h-218v-622h-8l-20 -41c52 -12 84 -49 84 -96c0 -49 -36 -101 -123 -101c-37 0 -77 12 -102 37l39 48c16 -14 35 -22 61 -22c29 0 50 16 50 42c0 33 -37 50 -89 50l-6 8l35 75h-9z" />
    <glyph glyph-name="Uacute" unicode="&#xda;" horiz-adv-x="715" 
d="M358 -12c-163 0 -278 93 -278 285v427h88v-422c0 -132 55 -210 190 -210c134 0 189 78 189 210v422h88v-427c0 -192 -107 -285 -277 -285zM442 939l64 -53l-152 -136l-46 40z" />
    <glyph glyph-name="Ubreve" unicode="&#x16c;" horiz-adv-x="715" 
d="M358 -12c-163 0 -278 93 -278 285v427h88v-422c0 -132 55 -210 190 -210c134 0 189 78 189 210v422h88v-427c0 -192 -107 -285 -277 -285zM357 830c44 0 79 26 99 86l60 -16c-21 -80 -73 -135 -159 -135s-137 55 -159 135l60 16c20 -60 55 -86 99 -86z" />
    <glyph glyph-name="Ucircumflex" unicode="&#xdb;" horiz-adv-x="715" 
d="M358 -12c-163 0 -278 93 -278 285v427h88v-422c0 -132 55 -210 190 -210c134 0 189 78 189 210v422h88v-427c0 -192 -107 -285 -277 -285zM327 924h60l128 -136l-44 -38l-114 103l-114 -103l-44 38z" />
    <glyph glyph-name="Udieresis" unicode="&#xdc;" horiz-adv-x="715" 
d="M358 -12c-163 0 -278 93 -278 285v427h88v-422c0 -132 55 -210 190 -210c134 0 189 78 189 210v422h88v-427c0 -192 -107 -285 -277 -285zM200 843c0 31 26 57 57 57s57 -26 57 -57s-26 -57 -57 -57s-57 26 -57 57zM402 843c0 31 26 57 57 57s57 -26 57 -57
s-26 -57 -57 -57s-57 26 -57 57z" />
    <glyph glyph-name="Ugrave" unicode="&#xd9;" horiz-adv-x="715" 
d="M358 -12c-163 0 -278 93 -278 285v427h88v-422c0 -132 55 -210 190 -210c134 0 189 78 189 210v422h88v-427c0 -192 -107 -285 -277 -285zM209 886l64 53l134 -149l-46 -40z" />
    <glyph glyph-name="Uhungarumlaut" unicode="&#x170;" horiz-adv-x="715" 
d="M358 -12c-163 0 -278 93 -278 285v427h88v-422c0 -132 55 -210 190 -210c134 0 189 78 189 210v422h88v-427c0 -192 -107 -285 -277 -285zM583 879l-147 -137l-54 38l136 151zM402 880l-115 -138l-54 38l105 151z" />
    <glyph glyph-name="Umacron" unicode="&#x16a;" horiz-adv-x="715" 
d="M358 -12c-163 0 -278 93 -278 285v427h88v-422c0 -132 55 -210 190 -210c134 0 189 78 189 210v422h88v-427c0 -192 -107 -285 -277 -285zM211 809v68h292v-68h-292z" />
    <glyph glyph-name="Uogonek" unicode="&#x172;" horiz-adv-x="715" 
d="M635 273c0 -175 -89 -268 -233 -282c-33 -28 -51 -58 -51 -94c0 -33 22 -51 49 -51c16 0 35 8 46 20l39 -48c-27 -23 -53 -37 -97 -37c-71 0 -112 49 -112 104c0 37 20 76 50 104c-146 11 -246 104 -246 284v427h88v-422c0 -132 55 -210 190 -210c134 0 189 78 189 210
v422h88v-427z" />
    <glyph glyph-name="Uring" unicode="&#x16e;" horiz-adv-x="715" 
d="M358 -12c-163 0 -278 93 -278 285v427h88v-422c0 -132 55 -210 190 -210c134 0 189 78 189 210v422h88v-427c0 -192 -107 -285 -277 -285zM463 843c0 -58 -46 -104 -106 -104s-106 46 -106 104s46 104 106 104s106 -46 106 -104zM314 843c0 -26 18 -45 43 -45
s43 19 43 45s-18 45 -43 45s-43 -19 -43 -45z" />
    <glyph glyph-name="Utilde" unicode="&#x168;" horiz-adv-x="715" 
d="M358 -12c-163 0 -278 93 -278 285v427h88v-422c0 -132 55 -210 190 -210c134 0 189 78 189 210v422h88v-427c0 -192 -107 -285 -277 -285zM373 873c15 -14 29 -24 48 -24c20 0 33 18 41 49l61 -10c-15 -67 -50 -105 -103 -105c-30 0 -55 10 -79 32c-15 14 -29 24 -48 24
c-20 0 -33 -18 -41 -49l-61 10c15 67 50 105 103 105c30 0 55 -10 79 -32z" />
    <glyph glyph-name="Wcircumflex" unicode="&#x174;" horiz-adv-x="996" 
d="M445 700h106l149 -597l181 597h95l-215 -700h-118l-145 587l-145 -587h-118l-215 700h95l181 -597zM468 924h60l128 -136l-44 -38l-114 103l-114 -103l-44 38z" />
    <glyph glyph-name="Yacute" unicode="&#xdd;" horiz-adv-x="608" 
d="M593 700l-245 -423v-277h-88v277l-245 423h97l192 -329l192 329h97zM402 939l64 -53l-152 -136l-46 40z" />
    <glyph glyph-name="Ycircumflex" unicode="&#x176;" horiz-adv-x="608" 
d="M593 700l-245 -423v-277h-88v277l-245 423h97l192 -329l192 329h97zM274 924h60l128 -136l-44 -38l-114 103l-114 -103l-44 38z" />
    <glyph glyph-name="Ydieresis" unicode="&#x178;" horiz-adv-x="608" 
d="M593 700l-245 -423v-277h-88v277l-245 423h97l192 -329l192 329h97zM146 843c0 31 26 57 57 57s57 -26 57 -57s-26 -57 -57 -57s-57 26 -57 57zM348 843c0 31 26 57 57 57s57 -26 57 -57s-26 -57 -57 -57s-57 26 -57 57z" />
    <glyph glyph-name="Zacute" unicode="&#x179;" horiz-adv-x="562" 
d="M30 73l386 549h-366v78h472v-73l-386 -549h396v-78h-502v73zM351 939l64 -53l-152 -136l-46 40z" />
    <glyph glyph-name="Zcaron" unicode="&#x17d;" horiz-adv-x="562" 
d="M30 73l386 549h-366v78h472v-73l-386 -549h396v-78h-502v73zM311 762h-60l-128 136l44 38l114 -103l114 103l44 -38z" />
    <glyph glyph-name="Zdotaccent" unicode="&#x17b;" horiz-adv-x="562" 
d="M30 73l386 549h-366v78h472v-73l-386 -549h396v-78h-502v73zM219 843c0 31 26 57 57 57s57 -26 57 -57s-26 -57 -57 -57s-57 26 -57 57z" />
    <glyph glyph-name="aacute" unicode="&#xe1;" horiz-adv-x="546" 
d="M40 156c0 92 76 168 197 168c66 0 115 -20 160 -51v63c0 68 -26 120 -131 120c-50 0 -98 -15 -145 -55l-52 55c63 52 131 74 204 74c135 0 208 -71 208 -176v-354h-84v56c-37 -38 -91 -68 -160 -68c-121 0 -197 76 -197 168zM257 250c-79 0 -131 -32 -131 -94
s52 -94 131 -94c53 0 104 28 140 65v70c-40 34 -87 53 -140 53zM344 765l64 -53l-152 -136l-46 40z" />
    <glyph glyph-name="abreve" unicode="&#x103;" horiz-adv-x="546" 
d="M40 156c0 92 76 168 197 168c66 0 115 -20 160 -51v63c0 68 -26 120 -131 120c-50 0 -98 -15 -145 -55l-52 55c63 52 131 74 204 74c135 0 208 -71 208 -176v-354h-84v56c-37 -38 -91 -68 -160 -68c-121 0 -197 76 -197 168zM257 250c-79 0 -131 -32 -131 -94
s52 -94 131 -94c53 0 104 28 140 65v70c-40 34 -87 53 -140 53zM277 658c44 0 79 26 99 86l60 -16c-21 -80 -73 -135 -159 -135s-137 55 -159 135l60 16c20 -60 55 -86 99 -86z" />
    <glyph glyph-name="acircumflex" unicode="&#xe2;" horiz-adv-x="546" 
d="M40 156c0 92 76 168 197 168c66 0 115 -20 160 -51v63c0 68 -26 120 -131 120c-50 0 -98 -15 -145 -55l-52 55c63 52 131 74 204 74c135 0 208 -71 208 -176v-354h-84v56c-37 -38 -91 -68 -160 -68c-121 0 -197 76 -197 168zM257 250c-79 0 -131 -32 -131 -94
s52 -94 131 -94c53 0 104 28 140 65v70c-40 34 -87 53 -140 53zM248 750h60l128 -136l-44 -38l-114 103l-114 -103l-44 38z" />
    <glyph glyph-name="acutecomb" unicode="&#x301;" horiz-adv-x="0" 
d="M-190 745l64 -53l-152 -136l-46 40z" />
    <glyph glyph-name="adieresis" unicode="&#xe4;" horiz-adv-x="546" 
d="M40 156c0 -92 76 -168 197 -168c69 0 123 30 160 68v-56h84v354c0 105 -73 176 -208 176c-73 0 -141 -22 -204 -74l52 -55c47 40 95 55 145 55c105 0 131 -52 131 -120v-63c-45 31 -94 51 -160 51c-121 0 -197 -76 -197 -168zM257 250c53 0 100 -19 140 -53v-70
c-36 -37 -87 -65 -140 -65c-79 0 -131 32 -131 94s52 94 131 94zM128 669c0 31 26 57 57 57s57 -26 57 -57s-26 -57 -57 -57s-57 26 -57 57zM330 669c0 31 26 57 57 57s57 -26 57 -57s-26 -57 -57 -57s-57 26 -57 57z" />
    <glyph glyph-name="aeacute" unicode="&#x1fd;" horiz-adv-x="923" 
d="M654 -12c-88 0 -159 36 -205 95c-49 -55 -119 -95 -206 -95c-129 0 -203 76 -203 168s76 168 197 168c62 0 112 -19 157 -49c0 10 2 20 3 29v32c0 68 -26 120 -131 120c-50 0 -98 -15 -145 -55l-52 55c61 51 128 74 201 74c98 0 155 -35 181 -89c43 55 109 89 189 89
c144 0 243 -113 243 -274c0 -10 0 -21 -1 -31h-400c11 -101 75 -163 172 -163c58 0 100 24 142 71l62 -45c-48 -63 -118 -100 -204 -100zM257 250c-79 0 -131 -32 -131 -94s52 -94 131 -94c63 0 123 35 157 84c-6 15 -11 31 -14 48c-41 36 -91 56 -143 56zM482 297h314
c-6 97 -74 159 -156 159c-87 0 -146 -61 -158 -159zM538 765l64 -53l-152 -136l-46 40z" />
    <glyph glyph-name="agrave" unicode="&#xe0;" horiz-adv-x="546" 
d="M40 156c0 92 76 168 197 168c66 0 115 -20 160 -51v63c0 68 -26 120 -131 120c-50 0 -98 -15 -145 -55l-52 55c63 52 131 74 204 74c135 0 208 -71 208 -176v-354h-84v56c-37 -38 -91 -68 -160 -68c-121 0 -197 76 -197 168zM257 250c-79 0 -131 -32 -131 -94
s52 -94 131 -94c53 0 104 28 140 65v70c-40 34 -87 53 -140 53zM140 712l64 53l134 -149l-46 -40z" />
    <glyph glyph-name="amacron" unicode="&#x101;" horiz-adv-x="546" 
d="M40 156c0 -92 76 -168 197 -168c69 0 123 30 160 68v-56h84v354c0 105 -73 176 -208 176c-73 0 -141 -22 -204 -74l52 -55c47 40 95 55 145 55c105 0 131 -52 131 -120v-63c-45 31 -94 51 -160 51c-121 0 -197 -76 -197 -168zM257 250c53 0 100 -19 140 -53v-70
c-36 -37 -87 -65 -140 -65c-79 0 -131 32 -131 94s52 94 131 94zM125 635v68h292v-68h-292z" />
    <glyph glyph-name="aogonek" unicode="&#x105;" horiz-adv-x="546" 
d="M40 156c0 92 76 168 197 168c66 0 115 -20 160 -51v63c0 68 -26 120 -131 120c-50 0 -98 -15 -145 -55l-52 55c63 52 131 74 204 74c135 0 208 -71 208 -176v-354c-40 -31 -63 -63 -63 -103c0 -33 22 -51 49 -51c16 0 35 8 46 20l39 -48c-27 -23 -53 -37 -97 -37
c-71 0 -112 49 -112 104c0 42 26 87 64 115h-10v56c-37 -38 -91 -68 -160 -68c-121 0 -197 76 -197 168zM257 250c-79 0 -131 -32 -131 -94s52 -94 131 -94c53 0 104 28 140 65v70c-40 34 -87 53 -140 53z" />
    <glyph glyph-name="approxequal" unicode="&#x2248;" horiz-adv-x="618" 
d="M328 459c35 -25 60 -40 97 -40c36 0 60 26 74 74l73 -12c-13 -77 -69 -140 -144 -140c-49 0 -91 19 -138 54c-35 25 -60 40 -97 40c-36 0 -60 -26 -74 -74l-73 12c13 77 69 140 144 140c49 0 90 -19 138 -54zM328 270c35 -25 60 -40 97 -40c36 0 60 26 74 74l73 -12
c-13 -77 -69 -140 -144 -140c-49 0 -91 19 -138 54c-35 25 -60 40 -97 40c-36 0 -60 -26 -74 -74l-73 12c13 77 69 140 144 140c49 0 90 -19 138 -54z" />
    <glyph glyph-name="aring" unicode="&#xe5;" horiz-adv-x="546" 
d="M40 156c0 92 76 168 197 168c66 0 115 -20 160 -51v63c0 68 -26 120 -131 120c-50 0 -98 -15 -145 -55l-52 55c63 52 131 74 204 74c135 0 208 -71 208 -176v-354h-84v56c-37 -38 -91 -68 -160 -68c-121 0 -197 76 -197 168zM257 250c-79 0 -131 -32 -131 -94
s52 -94 131 -94c53 0 104 28 140 65v70c-40 34 -87 53 -140 53zM386 669c0 -58 -46 -104 -106 -104s-106 46 -106 104s46 104 106 104s106 -46 106 -104zM237 669c0 -26 18 -45 43 -45s43 19 43 45s-18 45 -43 45s-43 -19 -43 -45z" />
    <glyph glyph-name="aringacute" unicode="&#x1fb;" horiz-adv-x="546" 
d="M386 669c0 -58 -46 -104 -106 -104s-106 46 -106 104s46 104 106 104s106 -46 106 -104zM237 669c0 -26 18 -45 43 -45s43 19 43 45s-18 45 -43 45s-43 -19 -43 -45zM351 928l47 -57l-146 -85l-33 40zM40 156c0 92 76 168 197 168c66 0 115 -20 160 -51v63
c0 68 -26 120 -131 120c-50 0 -98 -15 -145 -55l-52 55c63 52 131 74 204 74c135 0 208 -71 208 -176v-354h-84v56c-37 -38 -91 -68 -160 -68c-121 0 -197 76 -197 168zM257 250c-79 0 -131 -32 -131 -94s52 -94 131 -94c53 0 104 28 140 65v70c-40 34 -87 53 -140 53z" />
    <glyph glyph-name="arrowupdnbse" unicode="&#x21a8;" horiz-adv-x="860" 
d="M442 -24h181v-64h-386v64h181l-181 209l160 -49v440l-160 -49l193 223l193 -223l-160 49v-440l160 49z" />
    <glyph glyph-name="atilde" unicode="&#xe3;" horiz-adv-x="546" 
d="M40 156c0 -92 76 -168 197 -168c69 0 123 30 160 68v-56h84v354c0 105 -73 176 -208 176c-73 0 -141 -22 -204 -74l52 -55c47 40 95 55 145 55c105 0 131 -52 131 -120v-63c-45 31 -94 51 -160 51c-121 0 -197 -76 -197 -168zM257 250c53 0 100 -19 140 -53v-70
c-36 -37 -87 -65 -140 -65c-79 0 -131 32 -131 94s52 94 131 94zM290 699c15 -14 29 -24 48 -24c20 0 33 18 41 49l61 -10c-15 -67 -50 -105 -103 -105c-30 0 -55 10 -79 32c-15 14 -29 24 -48 24c-20 0 -33 -18 -41 -49l-61 10c15 67 50 105 103 105c30 0 55 -10 79 -32z
" />
    <glyph glyph-name="brokenbar" unicode="&#xa6;" horiz-adv-x="292" 
d="M110 220h72v-320h-72v320zM110 688h72v-320h-72v320z" />
    <glyph glyph-name="bullet" unicode="&#x2022;" horiz-adv-x="448" 
d="M93 331c0 72 59 131 131 131s131 -59 131 -131s-59 -131 -131 -131s-131 59 -131 131z" />
    <glyph glyph-name="cacute" unicode="&#x107;" horiz-adv-x="534" 
d="M40 259c0 156 94 271 244 271c99 0 176 -46 220 -121l-65 -39c-39 56 -82 86 -149 86c-104 0 -164 -77 -164 -197s60 -197 164 -197c67 0 110 30 149 86l65 -39c-44 -75 -121 -121 -220 -121c-150 0 -244 115 -244 271zM334 765l64 -53l-152 -136l-46 40z" />
    <glyph glyph-name="ccaron" unicode="&#x10d;" horiz-adv-x="534" 
d="M40 259c0 156 94 271 244 271c99 0 176 -46 220 -121l-65 -39c-39 56 -82 86 -149 86c-104 0 -164 -77 -164 -197s60 -197 164 -197c67 0 110 30 149 86l65 -39c-44 -75 -121 -121 -220 -121c-150 0 -244 115 -244 271zM323 588h-60l-128 136l44 38l114 -103l114 103
l44 -38z" />
    <glyph glyph-name="ccedilla" unicode="&#xe7;" horiz-adv-x="534" 
d="M277 -175c29 0 50 16 50 42c0 33 -37 50 -89 50l-6 8l30 64c-137 11 -222 122 -222 270c0 156 94 271 244 271c99 0 176 -46 220 -121l-65 -39c-39 56 -82 86 -149 86c-104 0 -164 -77 -164 -197s60 -197 164 -197c67 0 110 30 149 86l65 -39c-37 -62 -95 -104 -170 -117
l-16 -33c52 -12 84 -49 84 -96c0 -49 -36 -101 -123 -101c-37 0 -77 12 -102 37l39 48c16 -14 35 -22 61 -22z" />
    <glyph glyph-name="ccircumflex" unicode="&#x109;" horiz-adv-x="534" 
d="M40 259c0 156 94 271 244 271c99 0 176 -46 220 -121l-65 -39c-39 56 -82 86 -149 86c-104 0 -164 -77 -164 -197s60 -197 164 -197c67 0 110 30 149 86l65 -39c-44 -75 -121 -121 -220 -121c-150 0 -244 115 -244 271zM258 750h60l128 -136l-44 -38l-114 103l-114 -103
l-44 38z" />
    <glyph glyph-name="cdotaccent" unicode="&#x10b;" horiz-adv-x="534" 
d="M40 259c0 156 94 271 244 271c99 0 176 -46 220 -121l-65 -39c-39 56 -82 86 -149 86c-104 0 -164 -77 -164 -197s60 -197 164 -197c67 0 110 30 149 86l65 -39c-44 -75 -121 -121 -220 -121c-150 0 -244 115 -244 271zM226 669c0 31 26 57 57 57s57 -26 57 -57
s-26 -57 -57 -57s-57 26 -57 57z" />
    <glyph glyph-name="cent" unicode="&#xa2;" horiz-adv-x="534" 
d="M322 616v-88c82 -9 143 -53 182 -119l-65 -39c-33 46 -68 75 -117 83v-389c49 9 84 37 117 84l65 -39c-39 -67 -100 -110 -182 -119v-88h-62v88c-137 13 -220 123 -220 269c0 145 83 255 220 269v88h62zM126 259c0 -108 48 -181 134 -195v389c-86 -13 -134 -86 -134 -194
z" />
    <glyph glyph-name="circumflex" unicode="&#x2c6;" horiz-adv-x="400" 
d="M170 730h60l128 -136l-44 -38l-114 103l-114 -103l-44 38z" />
    <glyph glyph-name="colonmonetary" unicode="&#x20a1;" horiz-adv-x="684" 
d="M327 -9l-17 -60l-58 17l16 55c-18 6 -35 13 -51 22l-27 -94l-58 17l32 112c-75 64 -119 166 -119 290c0 205 120 351 307 361l23 77l58 -17l-18 -61c19 -2 37 -6 54 -11l26 89l58 -17l-27 -93c50 -26 90 -64 118 -108l-72 -45c-22 30 -45 53 -70 70l-152 -526
c8 -1 16 -1 24 -1c83 0 145 33 198 107l72 -45c-51 -82 -143 -142 -270 -142c-16 0 -32 1 -47 3zM135 350c0 -83 21 -149 56 -196l137 474c-113 -20 -193 -116 -193 -278zM392 631l-151 -524c15 -10 32 -19 49 -25l157 540c-17 5 -35 8 -55 9z" />
    <glyph glyph-name="copyright" unicode="&#xa9;" horiz-adv-x="830" 
d="M221 350c0 -125 76 -217 200 -217c79 0 136 37 171 97l-54 31c-29 -46 -64 -68 -117 -68c-84 0 -132 65 -132 157s48 157 132 157c53 0 88 -22 117 -68l54 31c-35 60 -92 97 -171 97c-124 0 -200 -92 -200 -217zM53 350c0 200 162 362 362 362s362 -162 362 -362
s-162 -362 -362 -362s-362 162 -362 362zM109 350c0 -172 137 -310 306 -310s306 138 306 310s-137 310 -306 310s-306 -138 -306 -310z" />
    <glyph glyph-name="dcaron" unicode="&#x10f;" horiz-adv-x="691" 
d="M432 0v50c-41 -37 -98 -62 -160 -62c-149 0 -227 110 -227 271s78 271 227 271c62 0 119 -25 160 -63v263h84v-730h-84zM131 259c0 -120 46 -197 154 -197c51 0 110 24 147 64v265c-37 41 -96 65 -147 65c-108 0 -154 -77 -154 -197zM556 508l65 234l80 -27l-87 -223z
" />
    <glyph glyph-name="dong" unicode="&#x20ab;" horiz-adv-x="586" 
d="M432 0v50c-41 -37 -98 -62 -160 -62c-149 0 -227 98 -227 256s78 256 227 256c62 0 119 -25 160 -63v126h-208v68h208v69h84v-69h64v-68h-64v-563h-84zM131 244c0 -112 46 -182 154 -182c51 0 110 24 147 64v235c-37 41 -96 65 -147 65c-108 0 -154 -70 -154 -182z
M495 -84v-68h-361v68h361z" />
    <glyph glyph-name="eacute" unicode="&#xe9;" horiz-adv-x="569" 
d="M305 -12c-157 0 -265 115 -265 271s98 271 246 271c144 0 243 -113 243 -274c0 -10 0 -21 -1 -31h-400c11 -101 75 -163 172 -163c58 0 100 24 142 71l62 -45c-48 -63 -117 -100 -199 -100zM128 297h314c-6 97 -74 159 -156 159c-87 0 -146 -61 -158 -159zM354 765
l64 -53l-152 -136l-46 40z" />
    <glyph glyph-name="ebreve" unicode="&#x115;" horiz-adv-x="569" 
d="M305 -12c-157 0 -265 115 -265 271s98 271 246 271c144 0 243 -113 243 -274c0 -10 0 -21 -1 -31h-400c11 -101 75 -163 172 -163c58 0 100 24 142 71l62 -45c-48 -63 -117 -100 -199 -100zM128 297h314c-6 97 -74 159 -156 159c-87 0 -146 -61 -158 -159zM284 658
c44 0 79 26 99 86l60 -16c-21 -80 -73 -135 -159 -135s-137 55 -159 135l60 16c20 -60 55 -86 99 -86z" />
    <glyph glyph-name="ecaron" unicode="&#x11b;" horiz-adv-x="569" 
d="M305 -12c-157 0 -265 115 -265 271s98 271 246 271c144 0 243 -113 243 -274c0 -10 0 -21 -1 -31h-400c11 -101 75 -163 172 -163c58 0 100 24 142 71l62 -45c-48 -63 -117 -100 -199 -100zM128 297h314c-6 97 -74 159 -156 159c-87 0 -146 -61 -158 -159zM314 588h-60
l-128 136l44 38l114 -103l114 103l44 -38z" />
    <glyph glyph-name="ecircumflex" unicode="&#xea;" horiz-adv-x="569" 
d="M305 -12c-157 0 -265 115 -265 271s98 271 246 271c144 0 243 -113 243 -274c0 -10 0 -21 -1 -31h-400c11 -101 75 -163 172 -163c58 0 100 24 142 71l62 -45c-48 -63 -117 -100 -199 -100zM128 297h314c-6 97 -74 159 -156 159c-87 0 -146 -61 -158 -159zM256 750h60
l128 -136l-44 -38l-114 103l-114 -103l-44 38z" />
    <glyph glyph-name="edieresis" unicode="&#xeb;" horiz-adv-x="569" 
d="M305 -12c-157 0 -265 115 -265 271s98 271 246 271c144 0 243 -113 243 -274c0 -10 0 -21 -1 -31h-400c11 -101 75 -163 172 -163c58 0 100 24 142 71l62 -45c-48 -63 -117 -100 -199 -100zM128 297h314c-6 97 -74 159 -156 159c-87 0 -146 -61 -158 -159zM131 669
c0 31 26 57 57 57s57 -26 57 -57s-26 -57 -57 -57s-57 26 -57 57zM333 669c0 31 26 57 57 57s57 -26 57 -57s-26 -57 -57 -57s-57 26 -57 57z" />
    <glyph glyph-name="edotaccent" unicode="&#x117;" horiz-adv-x="569" 
d="M305 -12c82 0 151 37 199 100l-62 45c-42 -47 -84 -71 -142 -71c-97 0 -161 62 -172 163h400c1 10 1 21 1 31c0 161 -99 274 -243 274c-148 0 -246 -115 -246 -271s108 -271 265 -271zM442 297h-314c12 98 71 159 158 159c82 0 150 -62 156 -159zM227 669
c0 31 26 57 57 57s57 -26 57 -57s-26 -57 -57 -57s-57 26 -57 57z" />
    <glyph glyph-name="egrave" unicode="&#xe8;" horiz-adv-x="569" 
d="M305 -12c-157 0 -265 115 -265 271s98 271 246 271c144 0 243 -113 243 -274c0 -10 0 -21 -1 -31h-400c11 -101 75 -163 172 -163c58 0 100 24 142 71l62 -45c-48 -63 -117 -100 -199 -100zM128 297h314c-6 97 -74 159 -156 159c-87 0 -146 -61 -158 -159zM165 712l64 53
l134 -149l-46 -40z" />
    <glyph glyph-name="emacron" unicode="&#x113;" horiz-adv-x="569" 
d="M305 -12c82 0 151 37 199 100l-62 45c-42 -47 -84 -71 -142 -71c-97 0 -161 62 -172 163h400c1 10 1 21 1 31c0 161 -99 274 -243 274c-148 0 -246 -115 -246 -271s108 -271 265 -271zM442 297h-314c12 98 71 159 158 159c82 0 150 -62 156 -159zM138 635v68h292v-68
h-292z" />
    <glyph glyph-name="emdash" unicode="&#x2014;" horiz-adv-x="1000" 
d="M1000 293h-1000v78h1000v-78z" />
    <glyph glyph-name="endash" unicode="&#x2013;" horiz-adv-x="500" 
d="M500 293h-500v78h500v-78z" />
    <glyph glyph-name="eogonek" unicode="&#x119;" horiz-adv-x="569" 
d="M299 -103c0 -33 22 -51 49 -51c16 0 35 8 46 20l39 -48c-27 -23 -53 -37 -97 -37c-71 0 -112 49 -112 104c0 37 20 77 51 105c-141 13 -235 123 -235 269c0 156 98 271 246 271c144 0 243 -113 243 -274c0 -10 0 -21 -1 -31h-400c11 -101 75 -163 172 -163
c58 0 100 24 142 71l62 -45c-39 -51 -90 -84 -152 -95c-34 -29 -53 -59 -53 -96zM128 297h314c-6 97 -74 159 -156 159c-87 0 -146 -61 -158 -159z" />
    <glyph glyph-name="estimated" unicode="&#x212e;" horiz-adv-x="738" 
d="M404 36c68 0 137 26 187 71l40 -38c-61 -49 -133 -81 -229 -81c-264 0 -357 164 -357 362c0 197 119 362 330 362c203 0 318 -165 318 -368v-21h-499v-222c48 -42 117 -65 210 -65zM372 663c-72 0 -133 -25 -178 -69v-222h355v225c-44 43 -104 66 -177 66z" />
    <glyph glyph-name="exclamdbl" unicode="&#x203c;" horiz-adv-x="477" 
d="M118 169l-24 350v181h100v-181l-24 -350h-52zM81 51c0 35 28 63 63 63s63 -28 63 -63s-28 -63 -63 -63s-63 28 -63 63zM307 169l-24 350v181h100v-181l-24 -350h-52zM270 51c0 35 28 63 63 63s63 -28 63 -63s-28 -63 -63 -63s-63 28 -63 63z" />
    <glyph glyph-name="florin" unicode="&#x192;" horiz-adv-x="344" 
d="M108 -60v506h-93v72h93v54c0 109 50 158 168 158c19 0 39 -1 53 -3v-74c-16 2 -33 3 -51 3c-67 0 -86 -31 -86 -90v-48h127v-72h-127v-512c0 -109 -50 -158 -168 -158c-19 0 -39 1 -53 3v74c16 -2 33 -3 51 -3c67 0 86 31 86 90z" />
    <glyph glyph-name="fraction" unicode="&#x2044;" horiz-adv-x="194" 
d="M254 715l60 -33l-374 -697l-60 33z" />
    <glyph glyph-name="franc" unicode="&#x20a3;" horiz-adv-x="536" 
d="M20 268v58h60v76h-60v58h60v240h436v-78h-348v-162h295v-58h-295v-76h294v-58h-294v-268h-88v268h-60z" />
    <glyph glyph-name="gbreve" unicode="&#x11f;" horiz-adv-x="586" 
d="M70 -119l66 46c38 -46 90 -77 154 -77c84 0 142 49 142 155v45c-41 -37 -98 -62 -160 -62c-149 0 -227 110 -227 271s78 271 227 271c62 0 119 -25 160 -63v51h84v-503c0 -158 -81 -239 -222 -239c-94 0 -171 37 -224 105zM131 259c0 -120 46 -197 154 -197
c51 0 110 24 147 64v265c-37 41 -96 65 -147 65c-108 0 -154 -77 -154 -197zM286 658c44 0 79 26 99 86l60 -16c-21 -80 -73 -135 -159 -135s-137 55 -159 135l60 16c20 -60 55 -86 99 -86z" />
    <glyph glyph-name="gcircumflex" unicode="&#x11d;" horiz-adv-x="586" 
d="M70 -119l66 46c38 -46 90 -77 154 -77c84 0 142 49 142 155v45c-41 -37 -98 -62 -160 -62c-149 0 -227 110 -227 271s78 271 227 271c62 0 119 -25 160 -63v51h84v-503c0 -158 -81 -239 -222 -239c-94 0 -171 37 -224 105zM131 259c0 -120 46 -197 154 -197
c51 0 110 24 147 64v265c-37 41 -96 65 -147 65c-108 0 -154 -77 -154 -197zM253 750h60l128 -136l-44 -38l-114 103l-114 -103l-44 38z" />
    <glyph glyph-name="gcommaaccent" unicode="&#x123;" horiz-adv-x="586" 
d="M70 -119l66 46c38 -46 90 -77 154 -77c84 0 142 49 142 155v45c-41 -37 -98 -62 -160 -62c-149 0 -227 110 -227 271s78 271 227 271c62 0 119 -25 160 -63v51h84v-503c0 -158 -81 -239 -222 -239c-94 0 -171 37 -224 105zM131 259c0 -120 46 -197 154 -197
c51 0 110 24 147 64v265c-37 41 -96 65 -147 65c-108 0 -154 -77 -154 -197zM367 778l-58 -199l-75 26l75 193z" />
    <glyph glyph-name="gdotaccent" unicode="&#x121;" horiz-adv-x="586" 
d="M70 -119l66 46c38 -46 90 -77 154 -77c84 0 142 49 142 155v45c-41 -37 -98 -62 -160 -62c-149 0 -227 110 -227 271s78 271 227 271c62 0 119 -25 160 -63v51h84v-503c0 -158 -81 -239 -222 -239c-94 0 -171 37 -224 105zM131 259c0 -120 46 -197 154 -197
c51 0 110 24 147 64v265c-37 41 -96 65 -147 65c-108 0 -154 -77 -154 -197zM225 669c0 31 26 57 57 57s57 -26 57 -57s-26 -57 -57 -57s-57 26 -57 57z" />
    <glyph glyph-name="gravecomb" unicode="&#x300;" horiz-adv-x="0" 
d="M-379 692l64 53l134 -149l-46 -40z" />
    <glyph glyph-name="guillemotleft" unicode="&#xab;" horiz-adv-x="585" 
d="M50 296v32l223 161l42 -56l-172 -121l172 -121l-42 -56zM270 296v32l223 161l42 -56l-172 -121l172 -121l-42 -56z" />
    <glyph glyph-name="guillemotright" unicode="&#xbb;" horiz-adv-x="585" 
d="M535 328v-32l-223 -161l-42 56l172 121l-172 121l42 56zM315 328v-32l-223 -161l-42 56l172 121l-172 121l42 56z" />
    <glyph glyph-name="guilsinglleft" unicode="&#x2039;" horiz-adv-x="365" 
d="M50 296v32l223 161l42 -56l-172 -121l172 -121l-42 -56z" />
    <glyph glyph-name="guilsinglright" unicode="&#x203a;" horiz-adv-x="365" 
d="M315 328v-32l-223 -161l-42 56l172 121l-172 121l42 56z" />
    <glyph glyph-name="hcircumflex" unicode="&#x125;" horiz-adv-x="583" 
d="M333 530c110 0 185 -68 185 -190v-340h-84v320c0 86 -37 136 -118 136c-69 0 -130 -43 -162 -82v-374h-84v730h84v-273c44 41 99 73 179 73zM82 924h60l128 -136l-44 -38l-114 103l-114 -103l-44 38z" />
    <glyph glyph-name="house" unicode="&#x2302;" horiz-adv-x="712" 
d="M184 70h344v228l-172 193l-172 -193v-228zM612 0h-512v328l256 288l256 -288v-328z" />
    <glyph glyph-name="iacute" unicode="&#xed;" horiz-adv-x="234" 
d="M75 0v518h84v-518h-84zM214 765l64 -53l-152 -136l-46 40z" />
    <glyph glyph-name="ibreve" unicode="&#x12d;" horiz-adv-x="234" 
d="M75 0v518h84v-518h-84zM117 658c44 0 79 26 99 86l60 -16c-21 -80 -73 -135 -159 -135s-137 55 -159 135l60 16c20 -60 55 -86 99 -86z" />
    <glyph glyph-name="icircumflex" unicode="&#xee;" horiz-adv-x="234" 
d="M75 0v518h84v-518h-84zM87 750h60l128 -136l-44 -38l-114 103l-114 -103l-44 38z" />
    <glyph glyph-name="idieresis" unicode="&#xef;" horiz-adv-x="234" 
d="M75 0v518h84v-518h-84zM-41 669c0 31 26 57 57 57s57 -26 57 -57s-26 -57 -57 -57s-57 26 -57 57zM161 669c0 31 26 57 57 57s57 -26 57 -57s-26 -57 -57 -57s-57 26 -57 57z" />
    <glyph glyph-name="igrave" unicode="&#xec;" horiz-adv-x="234" 
d="M75 0v518h84v-518h-84zM-44 712l64 53l134 -149l-46 -40z" />
    <glyph glyph-name="imacron" unicode="&#x12b;" horiz-adv-x="234" 
d="M75 0v518h84v-518h-84zM-29 635v68h292v-68h-292z" />
    <glyph glyph-name="Delta" unicode="&#x2206;" horiz-adv-x="662" 
d="M321 712h20l301 -695l-11 -17h-600l-11 17zM145 82h372l-186 451z" />
    <glyph glyph-name="iogonek" unicode="&#x12f;" horiz-adv-x="234" 
d="M75 0v518h84v-518c-40 -31 -63 -63 -63 -103c0 -33 22 -51 49 -51c16 0 35 8 46 20l39 -48c-27 -23 -53 -37 -97 -37c-71 0 -112 49 -112 104c0 42 26 87 64 115h-10zM61 677c0 32 24 56 56 56s56 -24 56 -56s-24 -56 -56 -56s-56 24 -56 56z" />
    <glyph glyph-name="itilde" unicode="&#x129;" horiz-adv-x="234" 
d="M75 0v518h84v-518h-84zM133 699c15 -14 29 -24 48 -24c20 0 33 18 41 49l61 -10c-15 -67 -50 -105 -103 -105c-30 0 -55 10 -79 32c-15 14 -29 24 -48 24c-20 0 -33 -18 -41 -49l-61 10c15 67 50 105 103 105c30 0 55 -10 79 -32z" />
    <glyph glyph-name="jcircumflex" unicode="&#x135;" horiz-adv-x="234" 
d="M87 750h60l128 -136l-44 -38l-114 103l-114 -103l-44 38zM-12 -224c-11 0 -29 1 -40 2v74c12 -1 29 -2 44 -2c64 0 83 33 83 90v578h84v-584c0 -111 -60 -158 -171 -158z" />
    <glyph glyph-name="kcommaaccent" unicode="&#x137;" horiz-adv-x="520" 
d="M70 730h84v-482l229 270h103l-179 -204l208 -314h-95l-165 255l-101 -116v-139h-84v730zM198 -241l58 199l75 -26l-75 -193z" />
    <glyph glyph-name="lacute" unicode="&#x13a;" horiz-adv-x="234" 
d="M75 0v730h84v-730h-84zM214 939l64 -53l-152 -136l-46 40z" />
    <glyph glyph-name="lcaron" unicode="&#x13e;" horiz-adv-x="334" 
d="M75 0v730h84v-730h-84zM199 508l65 234l80 -27l-87 -223z" />
    <glyph glyph-name="lcommaaccent" unicode="&#x13c;" horiz-adv-x="234" 
d="M75 0v730h84v-730h-84zM29 -241l58 199l75 -26l-75 -193z" />
    <glyph glyph-name="lira" unicode="&#x20a4;" horiz-adv-x="585" 
d="M120 427v76c0 142 78 209 214 209c82 0 153 -32 205 -89l-65 -54c-34 39 -84 63 -137 63c-85 0 -129 -40 -129 -125v-80h207v-58h-207v-76h207v-58h-207c-3 -71 -25 -125 -65 -157h412v-78h-515v70c51 40 80 90 80 160v5h-80v58h80v76h-80v58h80z" />
    <glyph glyph-name="logicalnot" unicode="&#xac;" horiz-adv-x="618" 
d="M55 366v78h498v-281h-90v203h-408z" />
    <glyph glyph-name="longs" unicode="&#x17f;" horiz-adv-x="344" 
d="M276 730c19 0 39 -1 53 -3v-74c-16 2 -33 3 -51 3c-67 0 -86 -31 -86 -90v-566h-84v446h-93v72h93v54c0 109 50 158 168 158z" />
    <glyph glyph-name="lozenge" unicode="&#x25ca;" horiz-adv-x="568" 
d="M528 302l-244 -459l-244 459l244 459zM135 302l149 -285l149 285l-149 285z" />
    <glyph glyph-name="minus" unicode="&#x2212;" horiz-adv-x="618" 
d="M558 293h-498v78h498v-78z" />
    <glyph glyph-name="mu" unicode="&#xb5;" horiz-adv-x="588" 
d="M434 131v387h84v-518h-84v48c-32 -41 -88 -60 -140 -60s-108 19 -140 60v-260h-84v730h84v-387c31 -45 88 -67 140 -67s109 22 140 67z" />
    <glyph glyph-name="nacute" unicode="&#x144;" horiz-adv-x="583" 
d="M364 765l64 -53l-152 -136l-46 40zM333 530c110 0 185 -68 185 -190v-340h-84v320c0 86 -37 136 -118 136c-69 0 -130 -43 -162 -82v-374h-84v518h84v-61c44 41 99 73 179 73z" />
    <glyph glyph-name="uni00A0" unicode="&#xa0;" horiz-adv-x="300" 
 />
    <glyph glyph-name="ncaron" unicode="&#x148;" horiz-adv-x="583" 
d="M321 588h-60l-128 136l44 38l114 -103l114 103l44 -38zM333 530c110 0 185 -68 185 -190v-340h-84v320c0 86 -37 136 -118 136c-69 0 -130 -43 -162 -82v-374h-84v518h84v-61c44 41 99 73 179 73z" />
    <glyph glyph-name="ncommaaccent" unicode="&#x146;" horiz-adv-x="583" 
d="M333 530c110 0 185 -68 185 -190v-340h-84v320c0 86 -37 136 -118 136c-69 0 -130 -43 -162 -82v-374h-84v518h84v-61c44 41 99 73 179 73zM213 -241l58 199l75 -26l-75 -193z" />
    <glyph glyph-name="ntilde" unicode="&#xf1;" horiz-adv-x="583" 
d="M308 699c15 -14 29 -24 48 -24c20 0 33 18 41 49l61 -10c-15 -67 -50 -105 -103 -105c-30 0 -55 10 -79 32c-15 14 -29 24 -48 24c-20 0 -33 -18 -41 -49l-61 10c15 67 50 105 103 105c30 0 55 -10 79 -32zM333 530c110 0 185 -68 185 -190v-340h-84v320
c0 86 -37 136 -118 136c-69 0 -130 -43 -162 -82v-374h-84v518h84v-61c44 41 99 73 179 73z" />
    <glyph glyph-name="oacute" unicode="&#xf3;" horiz-adv-x="580" 
d="M40 259c0 156 96 271 250 271s250 -115 250 -271s-96 -271 -250 -271s-250 115 -250 271zM126 259c0 -120 60 -197 164 -197s164 77 164 197s-60 197 -164 197s-164 -77 -164 -197zM351 765l64 -53l-152 -136l-46 40z" />
    <glyph glyph-name="obreve" unicode="&#x14f;" horiz-adv-x="580" 
d="M40 259c0 156 96 271 250 271s250 -115 250 -271s-96 -271 -250 -271s-250 115 -250 271zM126 259c0 -120 60 -197 164 -197s164 77 164 197s-60 197 -164 197s-164 -77 -164 -197zM290 658c44 0 79 26 99 86l60 -16c-21 -80 -73 -135 -159 -135s-137 55 -159 135l60 16
c20 -60 55 -86 99 -86z" />
    <glyph glyph-name="ocircumflex" unicode="&#xf4;" horiz-adv-x="580" 
d="M40 259c0 156 96 271 250 271s250 -115 250 -271s-96 -271 -250 -271s-250 115 -250 271zM126 259c0 -120 60 -197 164 -197s164 77 164 197s-60 197 -164 197s-164 -77 -164 -197zM260 750h60l128 -136l-44 -38l-114 103l-114 -103l-44 38z" />
    <glyph glyph-name="odieresis" unicode="&#xf6;" horiz-adv-x="580" 
d="M40 259c0 156 96 271 250 271s250 -115 250 -271s-96 -271 -250 -271s-250 115 -250 271zM126 259c0 -120 60 -197 164 -197s164 77 164 197s-60 197 -164 197s-164 -77 -164 -197zM132 669c0 31 26 57 57 57s57 -26 57 -57s-26 -57 -57 -57s-57 26 -57 57zM334 669
c0 31 26 57 57 57s57 -26 57 -57s-26 -57 -57 -57s-57 26 -57 57z" />
    <glyph glyph-name="ograve" unicode="&#xf2;" horiz-adv-x="580" 
d="M40 259c0 156 96 271 250 271s250 -115 250 -271s-96 -271 -250 -271s-250 115 -250 271zM126 259c0 -120 60 -197 164 -197s164 77 164 197s-60 197 -164 197s-164 -77 -164 -197zM165 712l64 53l134 -149l-46 -40z" />
    <glyph glyph-name="ohungarumlaut" unicode="&#x151;" horiz-adv-x="580" 
d="M40 259c0 156 96 271 250 271s250 -115 250 -271s-96 -271 -250 -271s-250 115 -250 271zM126 259c0 -120 60 -197 164 -197s164 77 164 197s-60 197 -164 197s-164 -77 -164 -197zM490 705l-147 -137l-54 38l136 151zM309 706l-115 -138l-54 38l105 151z" />
    <glyph glyph-name="omacron" unicode="&#x14d;" horiz-adv-x="580" 
d="M40 259c0 156 96 271 250 271s250 -115 250 -271s-96 -271 -250 -271s-250 115 -250 271zM126 259c0 -120 60 -197 164 -197s164 77 164 197s-60 197 -164 197s-164 -77 -164 -197zM144 635v68h292v-68h-292z" />
    <glyph glyph-name="onedotenleader" unicode="&#x2024;" horiz-adv-x="300" 
d="M87 51c0 35 28 63 63 63s63 -28 63 -63s-28 -63 -63 -63s-63 28 -63 63z" />
    <glyph glyph-name="orthogonal" unicode="&#x221f;" horiz-adv-x="640" 
d="M620 72v-72h-520v575h84v-503h436z" />
    <glyph glyph-name="oslashacute" unicode="&#x1ff;" horiz-adv-x="580" 
d="M63 -2l46 65c-44 49 -69 117 -69 196c0 156 96 271 250 271c48 0 91 -11 126 -32l44 62l57 -39l-47 -66c45 -48 70 -117 70 -196c0 -156 -96 -271 -250 -271c-49 0 -91 12 -127 32l-44 -62zM454 259c0 51 -12 94 -32 127l-215 -304c23 -13 51 -20 83 -20
c104 0 164 77 164 197zM126 259c0 -51 11 -94 31 -127l215 303c-23 13 -51 21 -82 21c-104 0 -164 -77 -164 -197zM351 765l64 -53l-152 -136l-46 40z" />
    <glyph glyph-name="otilde" unicode="&#xf5;" horiz-adv-x="580" 
d="M40 259c0 156 96 271 250 271s250 -115 250 -271s-96 -271 -250 -271s-250 115 -250 271zM126 259c0 -120 60 -197 164 -197s164 77 164 197s-60 197 -164 197s-164 -77 -164 -197zM306 699c15 -14 29 -24 48 -24c20 0 33 18 41 49l61 -10c-15 -67 -50 -105 -103 -105
c-30 0 -55 10 -79 32c-15 14 -29 24 -48 24c-20 0 -33 -18 -41 -49l-61 10c15 67 50 105 103 105c30 0 55 -10 79 -32z" />
    <glyph glyph-name="macron" unicode="&#xaf;" horiz-adv-x="400" 
d="M54 614v68h292v-68h-292z" />
    <glyph glyph-name="peseta" unicode="&#x20a7;" horiz-adv-x="1048" 
d="M599 673v-155h182c21 8 43 12 64 12c66 0 106 -22 152 -68l-52 -47c-31 27 -61 41 -94 41c-39 0 -69 -23 -69 -61c0 -40 24 -65 91 -89c91 -33 135 -82 135 -155c0 -96 -69 -151 -174 -151h-158c-101 0 -161 55 -161 177v269h-60c-16 -117 -116 -182 -258 -182h-29v-264
h-88v700h117c142 0 242 -65 258 -182h60v155h84zM696 389c0 22 3 41 10 57h-107v-271c0 -78 29 -103 86 -103h149c60 0 88 31 88 74c0 35 -19 65 -86 89c-96 35 -140 76 -140 154zM368 482c0 96 -58 140 -178 140h-22v-280h22c120 0 178 44 178 140z" />
    <glyph glyph-name="quotedblbase" unicode="&#x201e;" horiz-adv-x="468" 
d="M45 -137l75 263l98 -33l-104 -252zM213 -137l75 263l98 -33l-104 -252z" />
    <glyph glyph-name="quotereversed" unicode="&#x201b;" horiz-adv-x="300" 
d="M180 787l75 -263l-69 -22l-104 252z" />
    <glyph glyph-name="quotesinglbase" unicode="&#x201a;" horiz-adv-x="300" 
d="M45 -137l75 263l98 -33l-104 -252z" />
    <glyph glyph-name="racute" unicode="&#x155;" horiz-adv-x="363" 
d="M348 529v-77c-17 2 -28 3 -44 3c-61 0 -120 -34 -150 -82v-373h-84v518h84v-61c38 46 93 73 161 73c11 0 22 0 33 -1zM249 765l64 -53l-152 -136l-46 40z" />
    <glyph glyph-name="rcaron" unicode="&#x159;" horiz-adv-x="363" 
d="M348 529v-77c-17 2 -28 3 -44 3c-61 0 -120 -34 -150 -82v-373h-84v518h84v-61c38 46 93 73 161 73c11 0 22 0 33 -1zM221 588h-60l-128 136l44 38l114 -103l114 103l44 -38z" />
    <glyph glyph-name="rcommaaccent" unicode="&#x157;" horiz-adv-x="363" 
d="M348 529v-77c-17 2 -28 3 -44 3c-61 0 -120 -34 -150 -82v-373h-84v518h84v-61c38 46 93 73 161 73c11 0 22 0 33 -1zM19 -241l58 199l75 -26l-75 -193z" />
    <glyph glyph-name="revlogicalnot" unicode="&#x2310;" horiz-adv-x="618" 
d="M563 444v-78h-408v-203h-90v281h498z" />
    <glyph glyph-name="sacute" unicode="&#x15b;" horiz-adv-x="498" 
d="M30 87l60 54c47 -52 107 -79 170 -79c76 0 112 36 112 76c0 50 -39 72 -134 99c-135 38 -180 81 -180 155c0 77 61 138 180 138c74 0 143 -25 195 -78l-57 -51c-43 39 -88 55 -135 55c-57 0 -97 -23 -97 -60c0 -38 25 -58 131 -88c121 -34 183 -80 183 -165
c0 -91 -66 -155 -193 -155c-92 0 -174 31 -235 99zM303 765l64 -53l-152 -136l-46 40z" />
    <glyph glyph-name="scaron" unicode="&#x161;" horiz-adv-x="498" 
d="M30 87l60 54c47 -52 107 -79 170 -79c76 0 112 36 112 76c0 50 -39 72 -134 99c-135 38 -180 81 -180 155c0 77 61 138 180 138c74 0 143 -25 195 -78l-57 -51c-43 39 -88 55 -135 55c-57 0 -97 -23 -97 -60c0 -38 25 -58 131 -88c121 -34 183 -80 183 -165
c0 -91 -66 -155 -193 -155c-92 0 -174 31 -235 99zM275 588h-60l-128 136l44 38l114 -103l114 103l44 -38z" />
    <glyph glyph-name="scedilla" unicode="&#x15f;" horiz-adv-x="498" 
d="M242 -175c29 0 50 16 50 42c0 33 -37 50 -89 50l-6 8l30 65c-77 8 -145 38 -197 97l60 54c47 -52 107 -79 170 -79c76 0 112 36 112 76c0 50 -39 72 -134 99c-135 38 -180 81 -180 155c0 77 61 138 180 138c74 0 143 -25 195 -78l-57 -51c-43 39 -88 55 -135 55
c-57 0 -97 -23 -97 -60c0 -38 25 -58 131 -88c121 -34 183 -80 183 -165c0 -83 -55 -143 -160 -153l-15 -31c52 -12 84 -49 84 -96c0 -49 -36 -101 -123 -101c-37 0 -77 12 -102 37l39 48c16 -14 35 -22 61 -22z" />
    <glyph glyph-name="scircumflex" unicode="&#x15d;" horiz-adv-x="498" 
d="M30 87l60 54c47 -52 107 -79 170 -79c76 0 112 36 112 76c0 50 -39 72 -134 99c-135 38 -180 81 -180 155c0 77 61 138 180 138c74 0 143 -25 195 -78l-57 -51c-43 39 -88 55 -135 55c-57 0 -97 -23 -97 -60c0 -38 25 -58 131 -88c121 -34 183 -80 183 -165
c0 -91 -66 -155 -193 -155c-92 0 -174 31 -235 99zM211 750h60l128 -136l-44 -38l-114 103l-114 -103l-44 38z" />
    <glyph glyph-name="sterling" unicode="&#xa3;" horiz-adv-x="585" 
d="M539 623l-65 -54c-34 39 -84 63 -137 63c-85 0 -129 -40 -129 -125v-114h207v-58h-207v-88c0 -76 -23 -135 -65 -169h412v-78h-515v70c51 40 80 90 80 160v105h-80v58h80v110c0 142 78 209 214 209c82 0 153 -32 205 -89z" />
    <glyph glyph-name="tcaron" unicode="&#x165;" horiz-adv-x="474" 
d="M279 -12c11 0 29 1 40 2v73c-13 -1 -28 -1 -44 -1c-64 0 -83 33 -83 90v294h127v72h-127v155h-84v-155h-93v-72h93v-300c0 -111 60 -158 171 -158zM339 508l65 234l80 -27l-87 -223z" />
    <glyph glyph-name="tcommaaccent" unicode="&#x163;" horiz-adv-x="344" 
d="M183 -175c29 0 50 16 50 42c0 33 -37 50 -89 50l-6 8l39 83c-46 23 -69 68 -69 138v300h-93v72h93v155h84v-155h127v-72h-127v-294c0 -57 19 -90 83 -90c16 0 31 0 44 1v-73c-11 -1 -29 -2 -40 -2c-14 0 -28 1 -40 2l-15 -31c52 -12 84 -49 84 -96
c0 -49 -36 -101 -123 -101c-37 0 -77 12 -102 37l39 48c16 -14 35 -22 61 -22z" />
    <glyph glyph-name="tilde" unicode="&#x2dc;" horiz-adv-x="400" 
d="M216 680c15 -14 29 -24 48 -24c20 0 33 18 41 49l61 -10c-15 -67 -50 -105 -103 -105c-30 0 -55 10 -79 32c-15 14 -29 24 -48 24c-20 0 -33 -18 -41 -49l-61 10c15 67 50 105 103 105c30 0 55 -10 79 -32z" />
    <glyph glyph-name="tildecomb" unicode="&#x303;" horiz-adv-x="0" 
d="M-237 680c15 -14 29 -24 48 -24c20 0 33 18 41 49l61 -10c-15 -67 -50 -105 -103 -105c-30 0 -55 10 -79 32c-15 14 -29 24 -48 24c-20 0 -33 -18 -41 -49l-61 10c15 67 50 105 103 105c30 0 55 -10 79 -32z" />
    <glyph glyph-name="uacute" unicode="&#xfa;" horiz-adv-x="578" 
d="M289 62c79 0 140 49 140 156v300h84v-306c0 -156 -92 -224 -224 -224s-224 68 -224 224v306h84v-300c0 -107 61 -156 140 -156zM364 765l64 -53l-152 -136l-46 40z" />
    <glyph glyph-name="ubreve" unicode="&#x16d;" horiz-adv-x="578" 
d="M289 62c79 0 140 49 140 156v300h84v-306c0 -156 -92 -224 -224 -224s-224 68 -224 224v306h84v-300c0 -107 61 -156 140 -156zM289 658c44 0 79 26 99 86l60 -16c-21 -80 -73 -135 -159 -135s-137 55 -159 135l60 16c20 -60 55 -86 99 -86z" />
    <glyph glyph-name="ucircumflex" unicode="&#xfb;" horiz-adv-x="578" 
d="M289 62c79 0 140 49 140 156v300h84v-306c0 -156 -92 -224 -224 -224s-224 68 -224 224v306h84v-300c0 -107 61 -156 140 -156zM259 750h60l128 -136l-44 -38l-114 103l-114 -103l-44 38z" />
    <glyph glyph-name="udieresis" unicode="&#xfc;" horiz-adv-x="578" 
d="M289 62c-79 0 -140 49 -140 156v300h-84v-306c0 -156 92 -224 224 -224s224 68 224 224v306h-84v-300c0 -107 -61 -156 -140 -156zM131 669c0 31 26 57 57 57s57 -26 57 -57s-26 -57 -57 -57s-57 26 -57 57zM333 669c0 31 26 57 57 57s57 -26 57 -57s-26 -57 -57 -57
s-57 26 -57 57z" />
    <glyph glyph-name="ugrave" unicode="&#xf9;" horiz-adv-x="578" 
d="M289 62c79 0 140 49 140 156v300h84v-306c0 -156 -92 -224 -224 -224s-224 68 -224 224v306h84v-300c0 -107 61 -156 140 -156zM145 712l64 53l134 -149l-46 -40z" />
    <glyph glyph-name="uhungarumlaut" unicode="&#x171;" horiz-adv-x="578" 
d="M289 62c79 0 140 49 140 156v300h84v-306c0 -156 -92 -224 -224 -224s-224 68 -224 224v306h84v-300c0 -107 61 -156 140 -156zM497 705l-147 -137l-54 38l136 151zM316 706l-115 -138l-54 38l105 151z" />
    <glyph glyph-name="umacron" unicode="&#x16b;" horiz-adv-x="578" 
d="M289 62c79 0 140 49 140 156v300h84v-306c0 -156 -92 -224 -224 -224s-224 68 -224 224v306h84v-300c0 -107 61 -156 140 -156zM143 635v68h292v-68h-292z" />
    <glyph glyph-name="underscoredbl" unicode="&#x2017;" horiz-adv-x="600" 
d="M50 -200v68h500v-68h-500zM50 -98v68h500v-68h-500z" />
    <glyph glyph-name="uni0191" unicode="&#x191;" horiz-adv-x="536" 
d="M80 -60v760h436v-78h-348v-242h313v-78h-313v-368c0 -111 -60 -158 -171 -158c-11 0 -29 1 -40 2v75c17 -2 28 -3 44 -3c64 0 79 33 79 90z" />
    <glyph glyph-name="uni02C9" unicode="&#x2c9;" horiz-adv-x="400" 
d="M54 614v68h292v-68h-292z" />
    <glyph glyph-name="uni0302" unicode="&#x302;" horiz-adv-x="0" 
d="M-283 730h60l128 -136l-44 -38l-114 103l-114 -103l-44 38z" />
    <glyph glyph-name="uni0304" unicode="&#x304;" horiz-adv-x="0" 
d="M-396 615v68h292v-68h-292z" />
    <glyph glyph-name="uni0306" unicode="&#x306;" horiz-adv-x="0" 
d="M-253 638c44 0 79 26 99 86l60 -16c-21 -80 -73 -135 -159 -135s-137 55 -159 135l60 16c20 -60 55 -86 99 -86z" />
    <glyph glyph-name="uni0307" unicode="&#x307;" horiz-adv-x="0" 
d="M-310 649c0 31 26 57 57 57s57 -26 57 -57s-26 -57 -57 -57s-57 26 -57 57z" />
    <glyph glyph-name="uni0308" unicode="&#x308;" horiz-adv-x="0" 
d="M-411 649c0 31 26 57 57 57s57 -26 57 -57s-26 -57 -57 -57s-57 26 -57 57zM-209 649c0 31 26 57 57 57s57 -26 57 -57s-26 -57 -57 -57s-57 26 -57 57z" />
    <glyph glyph-name="uni030A" unicode="&#x30a;" horiz-adv-x="0" 
d="M-147 649c0 -58 -46 -104 -106 -104s-106 46 -106 104s46 104 106 104s106 -46 106 -104zM-296 649c0 -26 18 -45 43 -45s43 19 43 45s-18 45 -43 45s-43 -19 -43 -45z" />
    <glyph glyph-name="uni030C" unicode="&#x30c;" horiz-adv-x="0" 
d="M-223 568h-60l-128 136l44 38l114 -103l114 103l44 -38z" />
    <glyph glyph-name="uni0327" unicode="&#x327;" horiz-adv-x="0" 
d="M-273 -175c29 0 50 16 50 42c0 33 -37 50 -89 50l-6 8l35 75h71l-20 -41c52 -12 84 -49 84 -96c0 -49 -36 -101 -123 -101c-37 0 -77 12 -102 37l39 48c16 -14 35 -22 61 -22z" />
    <glyph glyph-name="uni0400" unicode="&#x400;" horiz-adv-x="565" 
d="M80 0v700h436v-78h-348v-222h313v-78h-313v-244h357v-78h-445zM178 886l64 53l134 -149l-46 -40z" />
    <glyph glyph-name="afii10051" unicode="&#x402;" horiz-adv-x="753" 
d="M618 231c0 84 -45 153 -144 153c-61 0 -114 -21 -148 -52v-332h-88v622h-218v78h524v-78h-218v-216c41 31 95 54 157 54c137 0 225 -94 225 -223c0 -134 -81 -237 -219 -237h-19v80h14c88 0 134 71 134 151z" />
    <glyph glyph-name="afii10052" unicode="&#x403;" horiz-adv-x="538" 
d="M360 939l64 -53l-152 -136l-46 40zM80 0v700h438v-78h-350v-622h-88z" />
    <glyph glyph-name="afii10053" unicode="&#x404;" horiz-adv-x="684" 
d="M45 350c0 213 130 362 329 362c127 0 219 -60 270 -142l-72 -45c-53 74 -115 107 -198 107c-126 0 -224 -85 -238 -243h332v-78h-332c14 -158 112 -243 238 -243c83 0 145 33 198 107l72 -45c-51 -82 -143 -142 -270 -142c-199 0 -329 149 -329 362z" />
    <glyph glyph-name="afii10054" unicode="&#x405;" horiz-adv-x="601" 
d="M318 68c91 0 148 48 148 111c0 82 -52 116 -184 150c-168 43 -215 119 -215 203c0 105 82 180 220 180c94 0 180 -39 242 -108l-64 -53c-52 52 -109 81 -176 81c-89 0 -132 -41 -132 -100c0 -51 44 -97 149 -125c173 -46 250 -99 250 -223c0 -115 -89 -196 -239 -196
c-113 0 -207 41 -282 121l67 56c63 -67 134 -97 216 -97z" />
    <glyph glyph-name="afii10055" unicode="&#x406;" horiz-adv-x="258" 
d="M85 700h88v-700h-88v700z" />
    <glyph glyph-name="afii10056" unicode="&#x407;" horiz-adv-x="258" 
d="M85 700h88v-700h-88v700zM-29 843c0 31 26 57 57 57s57 -26 57 -57s-26 -57 -57 -57s-57 26 -57 57zM173 843c0 31 26 57 57 57s57 -26 57 -57s-26 -57 -57 -57s-57 26 -57 57z" />
    <glyph glyph-name="afii10057" unicode="&#x408;" horiz-adv-x="568" 
d="M260 68c95 0 140 69 140 174v458h88v-458c0 -153 -76 -254 -225 -254c-104 0 -186 49 -233 140l72 41c37 -66 91 -101 158 -101z" />
    <glyph glyph-name="afii10058" unicode="&#x409;" horiz-adv-x="1028" 
d="M613 411h138c149 0 237 -79 237 -205s-88 -206 -237 -206h-226v622h-290v-476c0 -111 -64 -158 -175 -158c-11 0 -29 1 -40 2v75c17 -2 28 -3 44 -3c63 0 83 33 83 90v548h466v-289zM898 206c0 83 -51 127 -157 127h-128v-255h128c106 0 157 46 157 128z" />
    <glyph glyph-name="afii10059" unicode="&#x40a;" horiz-adv-x="1017" 
d="M514 700h88v-289h138c149 0 237 -79 237 -205s-88 -206 -237 -206h-226v333h-346v-333h-88v700h88v-289h346v289zM887 206c0 83 -51 127 -157 127h-128v-255h128c106 0 157 46 157 128z" />
    <glyph glyph-name="afii10060" unicode="&#x40b;" horiz-adv-x="773" 
d="M474 384c-61 0 -114 -21 -148 -52v-332h-88v622h-218v78h524v-78h-218v-216c41 31 95 54 157 54c142 0 225 -81 225 -231v-229h-88v223c0 107 -42 161 -146 161z" />
    <glyph glyph-name="afii10061" unicode="&#x40c;" horiz-adv-x="614" 
d="M168 700v-384l301 384h104l-228 -287l259 -413h-106l-209 344l-121 -153v-191h-88v700h88zM387 939l64 -53l-152 -136l-46 40z" />
    <glyph glyph-name="uni040D" unicode="&#x40d;" horiz-adv-x="708" 
d="M80 700v-700h85l379 561v-561h84v700h-85l-379 -561v561h-84zM218 886l64 53l134 -149l-46 -40z" />
    <glyph glyph-name="afii10062" unicode="&#x40e;" horiz-adv-x="609" 
d="M312 302l187 398h95l-330 -700h-94l98 209l-253 491h95zM299 830c44 0 79 26 99 86l60 -16c-21 -80 -73 -135 -159 -135s-137 55 -159 135l60 16c20 -60 55 -86 99 -86z" />
    <glyph glyph-name="afii10145" unicode="&#x40f;" horiz-adv-x="698" 
d="M168 78h362v622h88v-700h-225v-120h-88v120h-225v700h88v-622z" />
    <glyph glyph-name="uni0450" unicode="&#x450;" horiz-adv-x="569" 
d="M305 -12c-157 0 -265 115 -265 271s98 271 246 271c144 0 243 -113 243 -274c0 -10 0 -21 -1 -31h-400c11 -101 75 -163 172 -163c58 0 100 24 142 71l62 -45c-48 -63 -117 -100 -199 -100zM128 297h314c-6 97 -74 159 -156 159c-87 0 -146 -61 -158 -159zM175 712l64 53
l134 -149l-46 -40z" />
    <glyph glyph-name="afii10099" unicode="&#x452;" horiz-adv-x="583" 
d="M434 320c0 86 -37 136 -118 136c-69 0 -130 -43 -162 -82v-374h-84v593h-65v68h65v69h84v-69h207v-68h-207v-136c44 41 99 73 179 73c110 0 185 -68 185 -190v-406c0 -111 -60 -158 -171 -158c-11 0 -29 1 -40 2v75c17 -2 28 -3 44 -3c64 0 83 33 83 90v380z" />
    <glyph glyph-name="afii10100" unicode="&#x453;" horiz-adv-x="448" 
d="M428 446h-274v-446h-84v518h358v-72zM307 765l64 -53l-152 -136l-46 40z" />
    <glyph glyph-name="afii10101" unicode="&#x454;" horiz-adv-x="534" 
d="M40 259c0 156 96 271 250 271c99 0 170 -46 214 -121l-65 -39c-39 56 -82 86 -149 86c-93 0 -151 -62 -162 -161h226v-72h-226c11 -99 69 -161 162 -161c67 0 110 30 149 86l65 -39c-44 -75 -115 -121 -214 -121c-154 0 -250 115 -250 271z" />
    <glyph glyph-name="afii10102" unicode="&#x455;" horiz-adv-x="498" 
d="M30 87l60 54c47 -52 107 -79 170 -79c76 0 112 36 112 76c0 50 -39 72 -134 99c-135 38 -180 81 -180 155c0 77 61 138 180 138c74 0 143 -25 195 -78l-57 -51c-43 39 -88 55 -135 55c-57 0 -97 -23 -97 -60c0 -38 25 -58 131 -88c121 -34 183 -80 183 -165
c0 -91 -66 -155 -193 -155c-92 0 -174 31 -235 99z" />
    <glyph glyph-name="afii10103" unicode="&#x456;" horiz-adv-x="234" 
d="M75 0v518h84v-518h-84zM61 677c0 32 24 56 56 56s56 -24 56 -56s-24 -56 -56 -56s-56 24 -56 56z" />
    <glyph glyph-name="afii10104" unicode="&#x457;" horiz-adv-x="234" 
d="M75 0v518h84v-518h-84zM-41 669c0 31 26 57 57 57s57 -26 57 -57s-26 -57 -57 -57s-57 26 -57 57zM161 669c0 31 26 57 57 57s57 -26 57 -57s-26 -57 -57 -57s-57 26 -57 57z" />
    <glyph glyph-name="afii10105" unicode="&#x458;" horiz-adv-x="234" 
d="M61 677c0 32 24 56 56 56s56 -24 56 -56s-24 -56 -56 -56s-56 24 -56 56zM-12 -224c-11 0 -29 1 -40 2v74c12 -1 29 -2 44 -2c64 0 83 33 83 90v578h84v-584c0 -111 -60 -158 -171 -158z" />
    <glyph glyph-name="afii10106" unicode="&#x459;" horiz-adv-x="850" 
d="M432 0v446h-206v-300c0 -111 -60 -158 -166 -158c-11 0 -29 1 -40 2v75c17 -2 28 -3 44 -3c59 0 78 33 78 90v366h374v-196h94c136 0 210 -58 210 -161s-74 -161 -210 -161h-178zM734 161c0 60 -37 89 -130 89h-87v-178h87c93 0 130 29 130 89z" />
    <glyph glyph-name="afii10107" unicode="&#x45a;" horiz-adv-x="818" 
d="M400 0v246h-246v-246h-84v518h84v-200h246v200h84v-196h94c136 0 210 -58 210 -161s-74 -161 -210 -161h-178zM702 161c0 60 -37 89 -130 89h-87v-178h87c93 0 130 29 130 89z" />
    <glyph glyph-name="afii10108" unicode="&#x45b;" horiz-adv-x="583" 
d="M5 661h65v69h84v-69h207v-68h-207v-136c44 41 99 73 179 73c110 0 185 -68 185 -190v-340h-84v320c0 86 -37 136 -118 136c-69 0 -130 -43 -162 -82v-374h-84v593h-65v68z" />
    <glyph glyph-name="afii10109" unicode="&#x45c;" horiz-adv-x="520" 
d="M70 518h84v-270l229 270h103l-179 -204l208 -314h-95l-165 255l-101 -116v-139h-84v518zM329 765l64 -53l-152 -136l-46 40z" />
    <glyph glyph-name="uni045D" unicode="&#x45d;" horiz-adv-x="602" 
d="M532 0h-84v391l-293 -391h-85v518h84v-391l293 391h85v-518zM167 712l64 53l134 -149l-46 -40z" />
    <glyph glyph-name="afii10110" unicode="&#x45e;" horiz-adv-x="519" 
d="M229 -212h-83l80 214l-211 516h87l164 -410l153 410h85zM259 658c44 0 79 26 99 86l60 -16c-21 -80 -73 -135 -159 -135s-137 55 -159 135l60 16c20 -60 55 -86 99 -86z" />
    <glyph glyph-name="afii10193" unicode="&#x45f;" horiz-adv-x="564" 
d="M324 -110h-84v110h-170v518h84v-446h256v446h84v-518h-170v-110z" />
    <glyph glyph-name="afii10050" unicode="&#x490;" horiz-adv-x="538" 
d="M80 0v700h350v123h88v-201h-350v-622h-88z" />
    <glyph glyph-name="afii10098" unicode="&#x491;" horiz-adv-x="448" 
d="M428 446h-274v-446h-84v518h274v132h84v-204z" />
    <glyph glyph-name="uni2016" unicode="&#x2016;" horiz-adv-x="432" 
d="M100 -130v879h72v-879h-72zM260 -130v879h72v-879h-72z" />
    <glyph glyph-name="uni201F" unicode="&#x201f;" horiz-adv-x="468" 
d="M180 787l75 -263l-69 -22l-104 252zM348 787l75 -263l-69 -22l-104 252z" />
    <glyph glyph-name="uni203E" unicode="&#x203e;" horiz-adv-x="400" 
d="M54 614v68h292v-68h-292z" />
    <glyph glyph-name="zerosuperior" unicode="&#x2070;" 
d="M32 469c0 135 58 239 173 239s173 -104 173 -239s-58 -239 -173 -239s-173 104 -173 239zM108 469c0 -105 32 -171 97 -171s97 66 97 171s-32 171 -97 171s-97 -66 -97 -171z" />
    <glyph glyph-name="uni2071" unicode="&#x2071;" 
d="M168 237v332h74v-332h-74zM159 661c0 25 21 46 46 46s46 -21 46 -46s-21 -46 -46 -46s-46 21 -46 46z" />
    <glyph glyph-name="fivesuperior" unicode="&#x2075;" 
d="M92 448l-14 9v243h262v-66h-192v-108c19 4 40 5 57 5c92 0 158 -61 158 -157c0 -79 -62 -145 -156 -145c-67 0 -116 23 -156 66l52 47c32 -33 62 -44 106 -44c47 0 78 38 78 81c0 53 -37 85 -90 85c-37 0 -73 -5 -105 -16z" />
    <glyph glyph-name="sixsuperior" unicode="&#x2076;" 
d="M210 640c-44 0 -79 -41 -85 -131c27 21 60 35 94 35c92 0 151 -69 151 -159c0 -91 -62 -156 -157 -156c-97 0 -169 68 -169 227c0 171 71 252 168 252c58 0 103 -17 143 -74l-55 -40c-26 35 -53 46 -90 46zM211 476c-29 0 -62 -12 -88 -38c4 -102 42 -141 88 -141
c54 0 83 35 83 90c0 54 -31 89 -83 89z" />
    <glyph glyph-name="sevensuperior" unicode="&#x2077;" 
d="M357 634l-170 -397h-83l172 397h-213v66h294v-66z" />
    <glyph glyph-name="eightsuperior" unicode="&#x2078;" 
d="M44 373c0 48 26 88 67 115c-40 28 -56 60 -56 98c0 76 57 122 145 122c85 0 147 -48 147 -131c0 -43 -22 -81 -58 -103c53 -31 76 -65 76 -111c0 -80 -67 -134 -160 -134c-94 0 -161 54 -161 144zM180 451l-14 6c-29 -22 -46 -51 -46 -86c0 -46 38 -73 86 -73
c49 0 83 26 83 62c0 35 -17 51 -109 91zM131 586c0 -32 14 -50 100 -85c27 21 40 47 40 78c0 39 -29 62 -75 62c-41 0 -65 -26 -65 -55z" />
    <glyph glyph-name="ninesuperior" unicode="&#x2079;" 
d="M197 297c51 0 82 36 88 131c-27 -21 -60 -35 -94 -35c-92 0 -151 69 -151 159c0 91 62 156 157 156c97 0 169 -68 169 -227c0 -176 -67 -252 -171 -252c-53 0 -93 18 -128 53l50 48c22 -23 47 -33 80 -33zM199 461c29 0 62 12 88 38c-4 102 -42 141 -88 141
c-54 0 -83 -35 -83 -90c0 -54 31 -89 83 -89z" />
    <glyph glyph-name="uni207A" unicode="&#x207a;" 
d="M169 312v127h-128v64h128v127h72v-127h128v-64h-128v-127h-72z" />
    <glyph glyph-name="uni207B" unicode="&#x207b;" 
d="M369 439h-328v64h328v-64z" />
    <glyph glyph-name="uni207C" unicode="&#x207c;" 
d="M369 379h-328v64h328v-64zM369 499h-328v64h328v-64z" />
    <glyph glyph-name="uni207D" unicode="&#x207d;" 
d="M134 469c0 101 32 201 94 290l51 -23c-51 -82 -78 -165 -78 -267s27 -185 78 -267l-51 -23c-62 89 -94 189 -94 290z" />
    <glyph glyph-name="uni207E" unicode="&#x207e;" 
d="M276 469c0 -101 -32 -201 -94 -290l-51 23c51 82 78 165 78 267s-27 185 -78 267l51 23c62 -89 94 -189 94 -290z" />
    <glyph glyph-name="zeroinferior" unicode="&#x2080;" 
d="M32 106c0 135 58 239 173 239s173 -104 173 -239s-58 -239 -173 -239s-173 104 -173 239zM108 106c0 -105 32 -171 97 -171s97 66 97 171s-32 171 -97 171s-97 -66 -97 -171z" />
    <glyph glyph-name="fiveinferior" unicode="&#x2085;" 
d="M92 85l-14 9v243h262v-66h-192v-108c19 4 40 5 57 5c92 0 158 -61 158 -157c0 -79 -62 -145 -156 -145c-67 0 -116 23 -156 66l52 47c32 -33 62 -44 106 -44c47 0 78 38 78 81c0 53 -37 85 -90 85c-37 0 -73 -5 -105 -16z" />
    <glyph glyph-name="sixinferior" unicode="&#x2086;" 
d="M210 277c-44 0 -79 -41 -85 -131c27 21 60 35 94 35c92 0 151 -69 151 -159c0 -91 -62 -156 -157 -156c-97 0 -169 68 -169 227c0 171 71 252 168 252c58 0 103 -17 143 -74l-55 -40c-26 35 -53 46 -90 46zM211 113c-29 0 -62 -12 -88 -38c4 -102 42 -141 88 -141
c54 0 83 35 83 90c0 54 -31 89 -83 89z" />
    <glyph glyph-name="seveninferior" unicode="&#x2087;" 
d="M357 271l-170 -397h-83l172 397h-213v66h294v-66z" />
    <glyph glyph-name="eightinferior" unicode="&#x2088;" 
d="M44 10c0 48 26 88 67 115c-40 28 -56 60 -56 98c0 76 57 122 145 122c85 0 147 -48 147 -131c0 -43 -22 -81 -58 -103c53 -31 76 -65 76 -111c0 -80 -67 -134 -160 -134c-94 0 -161 54 -161 144zM180 88l-14 6c-29 -22 -46 -51 -46 -86c0 -46 38 -73 86 -73
c49 0 83 26 83 62c0 35 -17 51 -109 91zM131 223c0 -32 14 -50 100 -85c27 21 40 47 40 78c0 39 -29 62 -75 62c-41 0 -65 -26 -65 -55z" />
    <glyph glyph-name="nineinferior" unicode="&#x2089;" 
d="M197 -66c51 0 82 36 88 131c-27 -21 -60 -35 -94 -35c-92 0 -151 69 -151 159c0 91 62 156 157 156c97 0 169 -68 169 -227c0 -176 -67 -252 -171 -252c-53 0 -93 18 -128 53l50 48c22 -23 47 -33 80 -33zM199 98c29 0 62 12 88 38c-4 102 -42 141 -88 141
c-54 0 -83 -35 -83 -90c0 -54 31 -89 83 -89z" />
    <glyph glyph-name="uni208A" unicode="&#x208a;" 
d="M169 -51v127h-128v64h128v127h72v-127h128v-64h-128v-127h-72z" />
    <glyph glyph-name="uni208B" unicode="&#x208b;" 
d="M369 76h-328v64h328v-64z" />
    <glyph glyph-name="uni208C" unicode="&#x208c;" 
d="M369 16h-328v64h328v-64zM369 136h-328v64h328v-64z" />
    <glyph glyph-name="uni208D" unicode="&#x208d;" 
d="M134 106c0 101 32 201 94 290l51 -23c-51 -82 -78 -165 -78 -267s27 -185 78 -267l-51 -23c-62 89 -94 189 -94 290z" />
    <glyph glyph-name="uni208E" unicode="&#x208e;" 
d="M276 106c0 -101 -32 -201 -94 -290l-51 23c51 82 78 165 78 267s-27 185 -78 267l51 23c62 -89 94 -189 94 -290z" />
    <glyph glyph-name="uni2090" unicode="&#x2090;" 
d="M45 -22c0 67 59 112 137 112c35 0 73 -8 102 -28v32c0 37 -19 69 -78 69c-35 0 -71 -11 -99 -32l-42 45c39 30 89 49 144 49c90 0 143 -48 143 -120v-230h-68v28c-27 -23 -65 -36 -102 -36c-78 0 -137 45 -137 111zM196 -72c26 0 69 11 88 29v50c-23 14 -63 21 -88 21
c-48 0 -81 -17 -81 -50s33 -50 81 -50z" />
    <glyph glyph-name="uni2091" unicode="&#x2091;" 
d="M205 163c-47 0 -79 -29 -87 -86h175c-8 57 -44 86 -88 86zM211 -133c-102 0 -169 72 -169 179c0 103 65 179 163 179c97 0 162 -75 162 -181c0 -9 0 -15 -2 -27h-248c8 -58 44 -88 94 -88c34 0 66 13 87 40l48 -37c-35 -44 -83 -65 -135 -65z" />
    <glyph glyph-name="uni2092" unicode="&#x2092;" 
d="M301 46c0 69 -41 117 -96 117s-96 -48 -96 -117s41 -117 96 -117s96 48 96 117zM33 46c0 103 65 179 172 179s172 -76 172 -179s-65 -179 -172 -179s-172 76 -172 179z" />
    <glyph glyph-name="uni2093" unicode="&#x2093;" 
d="M205 105l87 112h83l-128 -167l137 -175h-87l-92 120l-92 -120h-87l136 175l-127 167h83z" />
    <glyph glyph-name="uni2094" unicode="&#x2094;" 
d="M204 -71c47 0 79 29 87 86h-175c8 -57 44 -86 88 -86zM198 225c102 0 169 -72 169 -179c0 -103 -65 -179 -163 -179c-97 0 -162 75 -162 181c0 9 0 15 2 27h248c-8 58 -44 88 -94 88c-34 0 -66 -13 -87 -40l-48 37c35 44 83 65 135 65z" />
    <glyph glyph-name="uni20A0" unicode="&#x20a0;" horiz-adv-x="773" 
d="M401 0v244c-35 -25 -75 -39 -128 -39c-133 0 -233 109 -233 253c0 146 90 254 233 254c88 0 158 -41 197 -108l-69 -44c-32 46 -73 72 -128 72c-90 0 -143 -68 -143 -174c0 -105 63 -172 143 -172c50 0 98 15 128 51v153h325v-78h-237v-121h220v-78h-220v-135h244v-78
h-332z" />
    <glyph glyph-name="uni20A2" unicode="&#x20a2;" horiz-adv-x="684" 
d="M548 439v-77c-17 2 -28 3 -44 3c-61 0 -120 -34 -150 -82v-215h20c83 0 145 33 198 107l72 -45c-51 -82 -143 -142 -270 -142c-199 0 -329 149 -329 362s130 362 329 362c127 0 219 -60 270 -142l-72 -45c-53 74 -115 107 -198 107c-136 0 -239 -99 -239 -282
c0 -133 53 -221 135 -260v338h84v-61c38 46 93 73 161 73c11 0 22 0 33 -1z" />
    <glyph glyph-name="uni20A6" unicode="&#x20a6;" horiz-adv-x="718" 
d="M20 446h65v254h85l172 -254h207v254h84v-254h65v-58h-65v-76h65v-58h-65v-254h-85l-172 254h-207v-254h-84v254h-65v58h65v76h-65v58zM381 388l51 -76h117v76h-168zM169 388v-76h168l-52 76h-116zM169 561v-115h77zM471 254l78 -115v115h-78z" />
    <glyph glyph-name="uni20A8" unicode="&#x20a8;" horiz-adv-x="1026" 
d="M536 496c0 -102 -64 -166 -156 -192l179 -304h-101l-170 292h-120v-292h-88v700h203c142 0 253 -70 253 -204zM446 496c0 84 -55 126 -169 126h-109v-252h109c114 0 169 42 169 126zM558 87l60 54c47 -52 107 -79 170 -79c76 0 112 36 112 76c0 50 -39 72 -134 99
c-135 38 -180 81 -180 155c0 77 61 138 180 138c74 0 143 -25 195 -78l-57 -51c-43 39 -88 55 -135 55c-57 0 -97 -23 -97 -60c0 -38 25 -58 131 -88c121 -34 183 -80 183 -165c0 -91 -66 -155 -193 -155c-92 0 -174 31 -235 99z" />
    <glyph glyph-name="uni20A9" unicode="&#x20a9;" horiz-adv-x="996" 
d="M20 432h82l-82 268h95l81 -268h182l67 268h106l67 -268h181l82 268h95l-82 -268h82v-58h-100l-24 -76h124v-58h-142l-73 -240h-118l-59 240h-172l-59 -240h-118l-74 240h-141v58h124l-24 76h-100v58zM214 374l23 -76h107l19 76h-149zM632 374l19 -76h108l23 76h-150z
M445 374l-18 -76h142l-18 76h-106zM498 587l-38 -155h76zM666 240l34 -137l41 137h-75zM254 240l42 -137l34 137h-76z" />
    <glyph glyph-name="afii57636" unicode="&#x20aa;" horiz-adv-x="860" 
d="M80 0v700h253c155 0 252 -95 252 -287v-151h-88v139c0 177 -64 221 -164 221h-165v-622h-88zM780 700v-700h-253c-155 0 -252 95 -252 287v151h88v-139c0 -177 64 -221 164 -221h165v622h88z" />
    <glyph glyph-name="afii61248" unicode="&#x2105;" horiz-adv-x="1034" 
d="M30 483c0 130 80 226 209 226c83 0 144 -39 182 -105l-62 -36c-33 46 -67 71 -120 71c-82 0 -126 -61 -126 -156s44 -156 126 -156c53 0 87 24 120 70l62 -36c-38 -66 -99 -105 -182 -105c-129 0 -209 96 -209 227zM592 215c0 128 81 225 206 225s206 -97 206 -225
s-81 -225 -206 -225s-206 97 -206 225zM675 215c0 -93 50 -155 123 -155s123 62 123 155s-50 155 -123 155s-123 -62 -123 -155zM669 715l60 -33l-374 -697l-60 33z" />
    <glyph glyph-name="uni2117" unicode="&#x2117;" horiz-adv-x="830" 
d="M53 350c0 200 162 362 362 362s362 -162 362 -362s-162 -362 -362 -362s-362 162 -362 362zM109 350c0 -172 137 -310 306 -310s306 138 306 310s-137 310 -306 310s-306 -138 -306 -310zM522 417c0 51 -24 85 -92 85h-73v-170h73c68 0 92 35 92 85zM590 417
c0 -89 -56 -142 -156 -142h-77v-144h-68v427h145c100 0 156 -52 156 -141z" />
    <glyph glyph-name="uni2120" unicode="&#x2120;" horiz-adv-x="675" 
d="M151 424c29 0 50 14 50 40c0 28 -14 40 -67 57c-72 23 -97 49 -97 98s44 85 108 85c47 0 82 -17 111 -49l-38 -33c-22 21 -46 32 -71 32c-26 0 -47 -13 -47 -35c0 -23 17 -33 62 -48c71 -24 102 -49 102 -105s-46 -92 -116 -92c-50 0 -94 21 -124 56l40 35
c25 -25 53 -41 87 -41zM488 431h-48l-77 147v-200h-60v322h55l106 -203l106 203h55v-322h-60v200z" />
    <glyph glyph-name="onefifth" unicode="&#x2155;" horiz-adv-x="980" 
d="M189 606l-69 -51l-48 54l126 92h65v-464h-74v369zM647 715l60 -33l-374 -697l-60 33zM632 220l14 -9c32 11 68 16 105 16c53 0 90 -32 90 -85c0 -43 -31 -81 -78 -81c-44 0 -74 11 -106 44l-52 -47c40 -43 89 -66 156 -66c94 0 156 66 156 145c0 96 -66 157 -158 157
c-17 0 -38 -1 -57 -5v108h192v66h-262v-243z" />
    <glyph glyph-name="twofifths" unicode="&#x2156;" horiz-adv-x="980" 
d="M189 641c-36 0 -74 -20 -99 -49l-53 43c34 42 93 73 159 73c87 0 142 -49 142 -133c0 -57 -24 -105 -78 -165c-41 -45 -75 -79 -106 -107h188v-66h-294v62c48 41 103 95 149 145c47 52 65 88 65 129c0 43 -24 68 -73 68zM647 715l60 -33l-374 -697l-60 33zM632 220l14 -9
c32 11 68 16 105 16c53 0 90 -32 90 -85c0 -43 -31 -81 -78 -81c-44 0 -74 11 -106 44l-52 -47c40 -43 89 -66 156 -66c94 0 156 66 156 145c0 96 -66 157 -158 157c-17 0 -38 -1 -57 -5v108h192v66h-262v-243z" />
    <glyph glyph-name="threefifths" unicode="&#x2157;" horiz-adv-x="980" 
d="M201 640c43 0 64 -25 64 -62c0 -42 -36 -68 -93 -68h-47v-66h47c62 0 107 -22 107 -77c0 -38 -32 -70 -84 -70c-39 0 -75 17 -99 54l-55 -43c35 -52 90 -79 154 -79c102 0 160 61 160 138c0 57 -41 94 -85 111c37 17 71 55 71 105c0 78 -58 125 -141 125
c-64 0 -111 -28 -146 -71l53 -43c26 34 52 46 94 46zM647 715l60 -33l-374 -697l-60 33zM632 220l14 -9c32 11 68 16 105 16c53 0 90 -32 90 -85c0 -43 -31 -81 -78 -81c-44 0 -74 11 -106 44l-52 -47c40 -43 89 -66 156 -66c94 0 156 66 156 145c0 96 -66 157 -158 157
c-17 0 -38 -1 -57 -5v108h192v66h-262v-243z" />
    <glyph glyph-name="fourfifths" unicode="&#x2158;" horiz-adv-x="980" 
d="M632 220l14 -9c32 11 68 16 105 16c53 0 90 -32 90 -85c0 -43 -31 -81 -78 -81c-44 0 -74 11 -106 44l-52 -47c40 -43 89 -66 156 -66c94 0 156 66 156 145c0 96 -66 157 -158 157c-17 0 -38 -1 -57 -5v108h192v66h-262v-243zM243 336h-216v60l222 304h68v-298h56v-66
h-56v-99h-74v99zM243 579l-127 -177h127v177zM647 715l60 -33l-374 -697l-60 33z" />
    <glyph glyph-name="onesixth" unicode="&#x2159;" horiz-adv-x="980" 
d="M189 606l-69 -51l-48 54l126 92h65v-464h-74v369zM647 715l60 -33l-374 -697l-60 33zM758 403c-44 0 -79 -41 -85 -131c27 21 60 35 94 35c92 0 151 -69 151 -159c0 -91 -62 -156 -157 -156c-97 0 -169 68 -169 227c0 171 71 252 168 252c58 0 103 -17 143 -74l-55 -40
c-26 35 -53 46 -90 46zM759 239c-29 0 -62 -12 -88 -38c4 -102 42 -141 88 -141c54 0 83 35 83 90c0 54 -31 89 -83 89z" />
    <glyph glyph-name="fivesixths" unicode="&#x215a;" horiz-adv-x="980" 
d="M78 457l14 -9c32 11 68 16 105 16c53 0 90 -32 90 -85c0 -43 -31 -81 -78 -81c-44 0 -74 11 -106 44l-52 -47c40 -43 89 -66 156 -66c94 0 156 66 156 145c0 96 -66 157 -158 157c-17 0 -38 -1 -57 -5v108h192v66h-262v-243zM758 403c-44 0 -79 -41 -85 -131
c27 21 60 35 94 35c92 0 151 -69 151 -159c0 -91 -62 -156 -157 -156c-97 0 -169 68 -169 227c0 171 71 252 168 252c58 0 103 -17 143 -74l-55 -40c-26 35 -53 46 -90 46zM759 239c-29 0 -62 -12 -88 -38c4 -102 42 -141 88 -141c54 0 83 35 83 90c0 54 -31 89 -83 89z
M647 715l60 -33l-374 -697l-60 33z" />
    <glyph glyph-name="uni215F" unicode="&#x215f;" horiz-adv-x="980" 
d="M647 715l60 -33l-374 -697l-60 33zM189 606l-69 -51l-48 54l126 92h65v-464h-74v369z" />
    <glyph glyph-name="uni2219" unicode="&#x2219;" horiz-adv-x="290" 
d="M82 336c0 35 28 63 63 63s63 -28 63 -63s-28 -63 -63 -63s-63 28 -63 63z" />
    <glyph glyph-name="uni2318" unicode="&#x2318;" horiz-adv-x="917" 
d="M523 260v126h-129v-126h129zM265 452h49v51c0 49 -20 81 -66 81c-40 0 -66 -27 -66 -66c0 -49 34 -66 83 -66zM314 194h-49c-49 0 -83 -17 -83 -66c0 -39 26 -66 66 -66c46 0 66 32 66 81v51zM523 452v53c0 88 53 147 147 147c92 0 147 -58 147 -134
c0 -92 -69 -132 -158 -132h-56v-126h56c89 0 158 -40 158 -132c0 -76 -55 -134 -147 -134c-94 0 -147 59 -147 147v53h-129v-53c0 -88 -53 -147 -147 -147c-92 0 -147 58 -147 134c0 92 69 132 158 132h56v126h-56c-89 0 -158 40 -158 132c0 76 55 134 147 134
c94 0 147 -59 147 -147v-53h129zM603 452h49c49 0 83 17 83 66c0 39 -26 66 -66 66c-46 0 -66 -32 -66 -81v-51zM652 194h-49v-51c0 -49 20 -81 66 -81c40 0 66 27 66 66c0 49 -34 66 -83 66z" />
    <glyph glyph-name="uogonek" unicode="&#x173;" horiz-adv-x="578" 
d="M289 62c79 0 140 49 140 156v300h84v-306c0 -130 -64 -200 -162 -218c-35 -29 -55 -60 -55 -97c0 -33 22 -51 49 -51c16 0 35 8 46 20l39 -48c-27 -23 -53 -37 -97 -37c-71 0 -112 49 -112 104c0 37 20 76 50 104c-123 6 -206 74 -206 223v306h84v-300
c0 -107 61 -156 140 -156z" />
    <glyph glyph-name="uring" unicode="&#x16f;" horiz-adv-x="578" 
d="M289 62c79 0 140 49 140 156v300h84v-306c0 -156 -92 -224 -224 -224s-224 68 -224 224v306h84v-300c0 -107 61 -156 140 -156zM395 669c0 -58 -46 -104 -106 -104s-106 46 -106 104s46 104 106 104s106 -46 106 -104zM246 669c0 -26 18 -45 43 -45s43 19 43 45
s-18 45 -43 45s-43 -19 -43 -45z" />
    <glyph glyph-name="utilde" unicode="&#x169;" horiz-adv-x="578" 
d="M289 62c-79 0 -140 49 -140 156v300h-84v-306c0 -156 92 -224 224 -224s224 68 224 224v306h-84v-300c0 -107 -61 -156 -140 -156zM305 699c15 -14 29 -24 48 -24c20 0 33 18 41 49l61 -10c-15 -67 -50 -105 -103 -105c-30 0 -55 10 -79 32c-15 14 -29 24 -48 24
c-20 0 -33 -18 -41 -49l-61 10c15 67 50 105 103 105c30 0 55 -10 79 -32z" />
    <glyph glyph-name="wcircumflex" unicode="&#x175;" horiz-adv-x="788" 
d="M356 518h76l124 -412l126 412h91l-177 -518h-80l-122 402l-122 -402h-80l-177 518h91l126 -412zM364 750h60l128 -136l-44 -38l-114 103l-114 -103l-44 38z" />
    <glyph glyph-name="yacute" unicode="&#xfd;" horiz-adv-x="519" 
d="M229 -212h-83l80 214l-211 516h87l164 -410l153 410h85zM332 765l64 -53l-152 -136l-46 40z" />
    <glyph glyph-name="ycircumflex" unicode="&#x177;" horiz-adv-x="519" 
d="M229 -212h-83l80 214l-211 516h87l164 -410l153 410h85zM229 750h60l128 -136l-44 -38l-114 103l-114 -103l-44 38z" />
    <glyph glyph-name="ydieresis" unicode="&#xff;" horiz-adv-x="519" 
d="M229 -212h-83l80 214l-211 516h87l164 -410l153 410h85zM102 669c0 31 26 57 57 57s57 -26 57 -57s-26 -57 -57 -57s-57 26 -57 57zM304 669c0 31 26 57 57 57s57 -26 57 -57s-26 -57 -57 -57s-57 26 -57 57z" />
    <glyph glyph-name="yen" unicode="&#xa5;" horiz-adv-x="608" 
d="M557 153h-209v-153h-88v153h-209v58h209v66h-209v58h175l-211 365h97l192 -329l192 329h97l-212 -365h176v-58h-209v-66h209v-58z" />
    <glyph glyph-name="zacute" unicode="&#x17a;" horiz-adv-x="469" 
d="M25 0v67l304 379h-286v72h391v-67l-304 -379h314v-72h-419zM303 765l64 -53l-152 -136l-46 40z" />
    <glyph glyph-name="zcaron" unicode="&#x17e;" horiz-adv-x="469" 
d="M25 0v67l304 379h-286v72h391v-67l-304 -379h314v-72h-419zM264 588h-60l-128 136l44 38l114 -103l114 103l44 -38z" />
    <glyph glyph-name="zdotaccent" unicode="&#x17c;" horiz-adv-x="469" 
d="M25 0v67l304 379h-286v72h391v-67l-304 -379h314v-72h-419zM172 669c0 31 26 57 57 57s57 -26 57 -57s-26 -57 -57 -57s-57 26 -57 57z" />
    <glyph glyph-name="space" unicode=" " horiz-adv-x="300" 
 />
    <glyph glyph-name="ampersand" unicode="&#x26;" horiz-adv-x="631" 
d="M604 0h-107l-43 50c-51 -38 -113 -62 -187 -62c-127 0 -217 82 -217 182c0 85 38 138 138 197l-7 9c-44 57 -73 98 -73 167c0 102 71 169 183 169c93 0 176 -64 176 -170c0 -89 -67 -151 -149 -197l144 -175c29 35 54 75 73 116l71 -33c-25 -53 -54 -103 -91 -146z
M137 170c0 -55 44 -104 140 -104c45 0 87 17 125 46l-162 193c-75 -44 -103 -86 -103 -135zM380 548c0 44 -36 88 -90 88c-62 0 -95 -44 -95 -92c0 -50 29 -88 64 -129l6 -7c59 31 115 75 115 140z" />
    <glyph glyph-name=".null" horiz-adv-x="0" 
 />
    <glyph glyph-name=".null" horiz-adv-x="0" 
 />
    <glyph glyph-name=".null" horiz-adv-x="0" 
 />
    <glyph glyph-name="CR" unicode="&#x9;" horiz-adv-x="237" 
 />
    <glyph glyph-name="CR" unicode="&#xd;" horiz-adv-x="237" 
 />
    <glyph glyph-name="Scommaaccent" unicode="&#x218;" horiz-adv-x="601" 
d="M318 68c91 0 148 48 148 111c0 82 -52 116 -184 150c-168 43 -215 119 -215 203c0 105 82 180 220 180c94 0 180 -39 242 -108l-64 -53c-52 52 -109 81 -176 81c-89 0 -132 -41 -132 -100c0 -51 44 -97 149 -125c173 -46 250 -99 250 -223c0 -115 -89 -196 -239 -196
c-113 0 -207 41 -282 121l67 56c63 -67 134 -97 216 -97zM230 -241l58 199l75 -26l-75 -193z" />
    <glyph glyph-name="scommaaccent" unicode="&#x219;" horiz-adv-x="498" 
d="M30 87l60 54c47 -52 107 -79 170 -79c76 0 112 36 112 76c0 50 -39 72 -134 99c-135 38 -180 81 -180 155c0 77 61 138 180 138c74 0 143 -25 195 -78l-57 -51c-43 39 -88 55 -135 55c-57 0 -97 -23 -97 -60c0 -38 25 -58 131 -88c121 -34 183 -80 183 -165
c0 -91 -66 -155 -193 -155c-92 0 -174 31 -235 99zM187 -241l58 199l75 -26l-75 -193z" />
    <glyph glyph-name="uni021A" unicode="&#x21a;" horiz-adv-x="564" 
d="M238 0v622h-218v78h524v-78h-218v-622h-88zM187 -241l58 199l75 -26l-75 -193z" />
    <glyph glyph-name="uni021B" unicode="&#x21b;" horiz-adv-x="344" 
d="M279 -12c-111 0 -171 47 -171 158v300h-93v72h93v155h84v-155h127v-72h-127v-294c0 -57 19 -90 83 -90c16 0 31 0 44 1v-73c-11 -1 -29 -2 -40 -2zM130 -241l58 199l75 -26l-75 -193z" />
    <glyph glyph-name="dotlessj" unicode="&#x237;" horiz-adv-x="234" 
d="M-12 -224c-11 0 -29 1 -40 2v74c12 -1 29 -2 44 -2c64 0 83 33 83 90v578h84v-584c0 -111 -60 -158 -171 -158z" />
    <glyph glyph-name="apostrophe" unicode="&#x2bc;" horiz-adv-x="400" 
d="M127 516l65 234l80 -27l-87 -223z" />
    <glyph glyph-name="Wgrave" unicode="&#x1e80;" horiz-adv-x="996" 
d="M445 700h106l149 -597l181 597h95l-215 -700h-118l-145 587l-145 -587h-118l-215 700h95l181 -597zM344 886l64 53l134 -149l-46 -40z" />
    <glyph glyph-name="wgrave" unicode="&#x1e81;" horiz-adv-x="788" 
d="M356 518h76l124 -412l126 412h91l-177 -518h-80l-122 402l-122 -402h-80l-177 518h91l126 -412zM237 712l64 53l134 -149l-46 -40z" />
    <glyph glyph-name="Wacute" unicode="&#x1e82;" horiz-adv-x="996" 
d="M445 700h106l149 -597l181 597h95l-215 -700h-118l-145 587l-145 -587h-118l-215 700h95l181 -597zM578 939l64 -53l-152 -136l-46 40z" />
    <glyph glyph-name="wacute" unicode="&#x1e83;" horiz-adv-x="788" 
d="M356 518h76l124 -412l126 412h91l-177 -518h-80l-122 402l-122 -402h-80l-177 518h91l126 -412zM487 765l64 -53l-152 -136l-46 40z" />
    <glyph glyph-name="Wdieresis" unicode="&#x1e84;" horiz-adv-x="996" 
d="M445 700h106l149 -597l181 597h95l-215 -700h-118l-145 587l-145 -587h-118l-215 700h95l181 -597zM340 843c0 31 26 57 57 57s57 -26 57 -57s-26 -57 -57 -57s-57 26 -57 57zM542 843c0 31 26 57 57 57s57 -26 57 -57s-26 -57 -57 -57s-57 26 -57 57z" />
    <glyph glyph-name="wdieresis" unicode="&#x1e85;" horiz-adv-x="788" 
d="M356 518h76l124 -412l126 412h91l-177 -518h-80l-122 402l-122 -402h-80l-177 518h91l126 -412zM236 669c0 31 26 57 57 57s57 -26 57 -57s-26 -57 -57 -57s-57 26 -57 57zM438 669c0 31 26 57 57 57s57 -26 57 -57s-26 -57 -57 -57s-57 26 -57 57z" />
    <glyph glyph-name="Ygrave" unicode="&#x1ef2;" horiz-adv-x="608" 
d="M593 700l-245 -423v-277h-88v277l-245 423h97l192 -329l192 329h97zM196 886l64 53l134 -149l-46 -40z" />
    <glyph glyph-name="ygrave" unicode="&#x1ef3;" horiz-adv-x="519" 
d="M229 -212h-83l80 214l-211 516h87l164 -410l153 410h85zM120 712l64 53l134 -149l-46 -40z" />
    <glyph glyph-name="uni2215" unicode="&#x2215;" horiz-adv-x="194" 
d="M254 715l60 -33l-374 -697l-60 33z" />
    <glyph glyph-name="fi" horiz-adv-x="566" 
d="M276 730c19 0 39 -1 53 -3v-74c-16 2 -33 3 -51 3c-67 0 -86 -31 -86 -90v-48h299v-518h-84v446h-215v-446h-84v446h-93v72h93v54c0 109 50 158 168 158zM393 677c0 32 24 56 56 56s56 -24 56 -56s-24 -56 -56 -56s-56 24 -56 56z" />
    <glyph glyph-name="fl" horiz-adv-x="552" 
d="M276 730c35 0 80 -6 117 -14v14h84v-730h-84v645c-39 7 -77 11 -115 11c-67 0 -86 -31 -86 -90v-48h127v-72h-127v-446h-84v446h-93v72h93v54c0 109 50 158 168 158z" />
    <glyph glyph-name="commaaccent" horiz-adv-x="400" 
d="M133 -241l58 199l75 -26l-75 -193z" />
    <glyph glyph-name="exclam" unicode="!" horiz-adv-x="288" 
d="M118 169l-24 350v181h100v-181l-24 -350h-52zM81 51c0 35 28 63 63 63s63 -28 63 -63s-28 -63 -63 -63s-63 28 -63 63z" />
    <glyph glyph-name="quotedbl" unicode="&#x22;" horiz-adv-x="488" 
d="M299 428l-13 272h102v-30l-27 -242h-62zM114 428l-14 272h103v-30l-27 -242h-62z" />
    <glyph glyph-name="uni2010" unicode="&#x2010;" horiz-adv-x="406" 
d="M346 289h-286v86h286v-86z" />
    <glyph glyph-name="figuredash" unicode="&#x2012;" horiz-adv-x="580" 
d="M540 293h-500v78h500v-78z" />
    <glyph glyph-name="numbersign" unicode="#" horiz-adv-x="679" 
d="M453 526l30 174h86l-30 -174h105v-75h-118l-34 -198h113v-75h-126l-30 -178h-86l30 178h-167l-30 -178h-86l30 178h-105v75h118l34 198h-113v75h126l30 174h86l-30 -174h167zM273 451l-34 -198h167l34 198h-167z" />
    <glyph glyph-name="dollar" unicode="$" horiz-adv-x="601" 
d="M264 -98v90c-90 10 -166 50 -229 117l67 56c49 -52 102 -82 162 -93v262c-154 43 -197 117 -197 198c0 99 73 171 197 179v89h62v-90c78 -10 149 -47 203 -106l-64 -53c-42 42 -88 69 -139 78v-228c159 -45 230 -98 230 -217c0 -113 -86 -193 -230 -196v-86h-62zM466 179
c0 72 -41 107 -140 138v-249c86 2 140 50 140 111zM157 532c0 -44 32 -84 107 -112v211c-72 -7 -107 -46 -107 -99z" />
    <glyph glyph-name="percent" unicode="%" horiz-adv-x="887" 
d="M719 668l-487 -680l-64 44l487 680zM80 528c0 103 60 179 158 179s158 -76 158 -179s-60 -179 -158 -179s-158 76 -158 179zM166 528c0 -70 26 -103 72 -103s72 33 72 103s-26 103 -72 103s-72 -33 -72 -103zM491 172c0 103 60 179 158 179s158 -76 158 -179
s-60 -179 -158 -179s-158 76 -158 179zM577 172c0 -70 26 -103 72 -103s72 33 72 103s-26 103 -72 103s-72 -33 -72 -103z" />
    <glyph glyph-name="zero.tnum" horiz-adv-x="606" 
d="M50 350c0 204 80 362 253 362s253 -158 253 -362s-80 -362 -253 -362s-253 158 -253 362zM142 350c0 -175 53 -282 161 -282s161 107 161 282s-53 282 -161 282s-161 -107 -161 -282z" />
    <glyph glyph-name="one.tnum" horiz-adv-x="400" 
d="M192 594l-128 -91l-54 60l192 137h78v-700h-88v594z" />
    <glyph glyph-name="two.tnum" horiz-adv-x="534" 
d="M253 712c130 0 220 -72 220 -201c0 -81 -43 -162 -126 -255c-67 -75 -117 -123 -180 -178h317v-78h-447v69c87 76 151 141 224 220c79 85 120 154 120 226c0 69 -47 117 -131 117c-59 0 -118 -29 -166 -83l-64 52c66 71 145 111 233 111z" />
    <glyph glyph-name="three.tnum" horiz-adv-x="564" 
d="M266 632c-57 0 -119 -25 -165 -78l-64 52c64 73 146 106 231 106c123 0 213 -64 213 -178c0 -88 -61 -150 -126 -168c93 -25 149 -85 149 -177c0 -118 -87 -201 -238 -201c-107 0 -196 45 -251 117l64 52c52 -61 115 -91 183 -91c91 0 150 48 150 124
c0 97 -84 137 -181 137h-62v78h62c91 0 158 45 158 121c0 66 -47 106 -123 106z" />
    <glyph glyph-name="four.tnum" horiz-adv-x="560" 
d="M364 155h-339v73l345 472h82v-467h93v-78h-93v-155h-88v155zM364 551l-234 -318h234v318z" />
    <glyph glyph-name="five.tnum" horiz-adv-x="565" 
d="M99 329l-10 6v365h390v-78h-302v-203c29 10 70 14 103 14c139 0 235 -90 235 -234c0 -117 -88 -211 -230 -211c-102 0 -181 36 -241 111l63 54c55 -66 110 -87 177 -87c84 0 141 65 141 140c0 94 -67 147 -160 147c-51 0 -116 -8 -166 -24z" />
    <glyph glyph-name="six.tnum" horiz-adv-x="575" 
d="M299 632c-82 0 -148 -59 -158 -245c42 38 103 67 168 67c138 0 226 -101 226 -236c0 -137 -94 -230 -236 -230c-151 0 -249 97 -249 349c0 267 99 375 246 375c86 0 158 -34 209 -106l-66 -48c-36 50 -79 74 -140 74zM297 374c-59 0 -112 -24 -157 -70
c7 -177 74 -236 157 -236c97 0 148 57 148 153s-56 153 -148 153z" />
    <glyph glyph-name="seven.tnum" horiz-adv-x="539" 
d="M499 622l-272 -622h-98l275 622h-364v78h459v-78z" />
    <glyph glyph-name="eight.tnum" horiz-adv-x="600" 
d="M79 528c0 103 78 184 221 184c138 0 221 -83 221 -186c0 -69 -37 -127 -99 -165c93 -48 128 -105 128 -180c0 -117 -104 -193 -250 -193c-149 0 -250 76 -250 206c0 81 42 145 117 188c-62 39 -88 88 -88 146zM142 191c0 -78 65 -123 158 -123s158 40 158 110
s-44 105 -207 164l-9 3c-63 -35 -100 -91 -100 -154zM429 520c0 67 -50 112 -129 112c-80 0 -129 -44 -129 -104c0 -51 42 -86 175 -135c50 31 83 79 83 127z" />
    <glyph glyph-name="nine.tnum" horiz-adv-x="575" 
d="M263 68c78 0 157 53 170 244c-43 -38 -103 -66 -167 -66c-138 0 -226 101 -226 236c0 137 94 230 238 230c146 0 247 -99 247 -339c0 -278 -114 -385 -265 -385c-72 0 -137 24 -191 76l58 56c41 -37 84 -52 136 -52zM278 326c59 0 111 24 156 70c-5 182 -73 236 -156 236
c-97 0 -148 -57 -148 -153s56 -153 148 -153z" />
    <glyph glyph-name="thinspace" unicode="&#x2009;" horiz-adv-x="200" 
 />
    <glyph glyph-name="parenleft.case" horiz-adv-x="359" 
d="M100 350c0 168 54 314 154 440l59 -29c-84 -125 -128 -260 -128 -411s44 -286 128 -411l-59 -29c-100 126 -154 272 -154 440z" />
    <glyph glyph-name="parenright.case" horiz-adv-x="359" 
d="M259 350c0 -168 -54 -314 -154 -440l-59 29c84 125 128 260 128 411s-44 286 -128 411l59 29c100 -126 154 -272 154 -440z" />
    <glyph glyph-name="hyphen.case" horiz-adv-x="406" 
d="M346 307h-286v86h286v-86z" />
    <glyph glyph-name="at.case" horiz-adv-x="956" 
d="M705 51l32 -55c-67 -53 -164 -84 -259 -84c-252 0 -406 194 -406 438s154 438 406 438c243 0 406 -185 406 -416c0 -123 -41 -239 -161 -239c-51 0 -96 19 -117 60c-40 -42 -95 -69 -150 -69c-134 0 -194 100 -194 223s60 223 194 223c53 0 99 -20 138 -59v47h80v-291
c0 -43 24 -66 55 -66c69 0 87 73 87 171c0 209 -153 356 -338 356c-192 0 -338 -155 -338 -378s146 -378 338 -378c78 0 166 30 227 79zM342 347c0 -88 26 -153 122 -153c51 0 96 26 130 67v172c-34 40 -79 67 -130 67c-96 0 -122 -65 -122 -153z" />
    <glyph glyph-name="bracketleft.case" horiz-adv-x="406" 
d="M120 -90v880h266v-70h-180v-740h180v-70h-266z" />
    <glyph glyph-name="bracketright.case" horiz-adv-x="406" 
d="M286 790v-880h-266v70h180v740h-180v70h266z" />
    <glyph glyph-name="braceleft.case" horiz-adv-x="385" 
d="M166 36v178c0 63 -49 100 -104 100v72c55 0 104 37 104 100v178c0 85 49 126 133 126h66v-72h-67c-31 0 -46 -17 -46 -48v-194c0 -68 -33 -109 -97 -126c64 -17 97 -58 97 -126v-194c0 -31 15 -48 46 -48h67v-72h-66c-84 0 -133 41 -133 126z" />
    <glyph glyph-name="braceright.case" horiz-adv-x="385" 
d="M219 214v-178c0 -85 -49 -126 -133 -126h-66v72h67c31 0 46 17 46 48v194c0 68 33 109 97 126c-64 17 -97 58 -97 126v194c0 31 -15 48 -46 48h-67v72h66c84 0 133 -41 133 -126v-178c0 -63 49 -100 104 -100v-72c-55 0 -104 -37 -104 -100z" />
    <glyph glyph-name="exclamdown.case" horiz-adv-x="288" 
d="M94 181l24 350h52l24 -350v-181h-100v181zM81 649c0 35 28 63 63 63s63 -28 63 -63s-28 -63 -63 -63s-63 28 -63 63z" />
    <glyph glyph-name="guillemotleft.case" horiz-adv-x="585" 
d="M50 334v32l223 161l42 -56l-172 -121l172 -121l-42 -56zM270 334v32l223 161l42 -56l-172 -121l172 -121l-42 -56z" />
    <glyph glyph-name="periodcentered.case" horiz-adv-x="300" 
d="M87 350c0 35 28 63 63 63s63 -28 63 -63s-28 -63 -63 -63s-63 28 -63 63z" />
    <glyph glyph-name="guillemotright.case" horiz-adv-x="585" 
d="M535 366v-32l-223 -161l-42 56l172 121l-172 121l42 56zM315 366v-32l-223 -161l-42 56l172 121l-172 121l42 56z" />
    <glyph glyph-name="questiondown.case" horiz-adv-x="533" 
d="M279 67c-72 0 -119 34 -119 94c0 54 18 87 96 137c71 45 95 103 95 180v52h-88v-50c0 -60 -18 -90 -74 -126c-84 -54 -119 -114 -119 -192c0 -112 82 -175 212 -175c83 0 153 42 206 104l-59 49c-39 -41 -89 -73 -150 -73zM369 648c0 -35 -28 -63 -63 -63s-63 28 -63 63
s28 63 63 63s63 -28 63 -63z" />
    <glyph glyph-name="endash.case" horiz-adv-x="500" 
d="M500 311h-500v78h500v-78z" />
    <glyph glyph-name="emdash.case" horiz-adv-x="1000" 
d="M1000 311h-1000v78h1000v-78z" />
    <glyph glyph-name="bullet.case" horiz-adv-x="448" 
d="M93 349c0 72 59 131 131 131s131 -59 131 -131s-59 -131 -131 -131s-131 59 -131 131z" />
    <glyph glyph-name="guilsinglleft.case" horiz-adv-x="365" 
d="M50 334v32l223 161l42 -56l-172 -121l172 -121l-42 -56z" />
    <glyph glyph-name="guilsinglright.case" horiz-adv-x="365" 
d="M315 366v-32l-223 -161l-42 56l172 121l-172 121l42 56z" />
    <glyph glyph-name="zero.numerator" 
d="M32 469c0 135 58 239 173 239s173 -104 173 -239s-58 -239 -173 -239s-173 104 -173 239zM108 469c0 -105 32 -171 97 -171s97 66 97 171s-32 171 -97 171s-97 -66 -97 -171z" />
    <glyph glyph-name="one.numerator" 
d="M189 606l-69 -51l-48 54l126 92h65v-464h-74v369z" />
    <glyph glyph-name="two.numerator" 
d="M189 641c-36 0 -74 -20 -99 -49l-53 43c34 42 93 73 159 73c87 0 142 -49 142 -133c0 -57 -24 -105 -78 -165c-41 -45 -75 -79 -106 -107h188v-66h-294v62c48 41 103 95 149 145c47 52 65 88 65 129c0 43 -24 68 -73 68z" />
    <glyph glyph-name="three.numerator" 
d="M201 640c-42 0 -68 -12 -94 -46l-53 43c35 43 82 71 146 71c83 0 141 -47 141 -125c0 -50 -34 -88 -71 -105c44 -17 85 -54 85 -111c0 -77 -58 -138 -160 -138c-64 0 -119 27 -154 79l55 43c24 -37 60 -54 99 -54c52 0 84 32 84 70c0 55 -45 77 -107 77h-47v66h47
c57 0 93 26 93 68c0 37 -21 62 -64 62z" />
    <glyph glyph-name="four.numerator" 
d="M243 336h-216v60l222 304h68v-298h56v-66h-56v-99h-74v99zM243 579l-127 -177h127v177z" />
    <glyph glyph-name="five.numerator" 
d="M92 448l-14 9v243h262v-66h-192v-108c19 4 40 5 57 5c92 0 158 -61 158 -157c0 -79 -62 -145 -156 -145c-67 0 -116 23 -156 66l52 47c32 -33 62 -44 106 -44c47 0 78 38 78 81c0 53 -37 85 -90 85c-37 0 -73 -5 -105 -16z" />
    <glyph glyph-name="six.numerator" 
d="M210 640c-44 0 -79 -41 -85 -131c27 21 60 35 94 35c92 0 151 -69 151 -159c0 -91 -62 -156 -157 -156c-97 0 -169 68 -169 227c0 171 71 252 168 252c58 0 103 -17 143 -74l-55 -40c-26 35 -53 46 -90 46zM211 476c-29 0 -62 -12 -88 -38c4 -102 42 -141 88 -141
c54 0 83 35 83 90c0 54 -31 89 -83 89z" />
    <glyph glyph-name="seven.numerator" 
d="M357 634l-170 -397h-83l172 397h-213v66h294v-66z" />
    <glyph glyph-name="eight.numerator" 
d="M44 373c0 48 26 88 67 115c-40 28 -56 60 -56 98c0 76 57 122 145 122c85 0 147 -48 147 -131c0 -43 -22 -81 -58 -103c53 -31 76 -65 76 -111c0 -80 -67 -134 -160 -134c-94 0 -161 54 -161 144zM180 451l-14 6c-29 -22 -46 -51 -46 -86c0 -46 38 -73 86 -73
c49 0 83 26 83 62c0 35 -17 51 -109 91zM131 586c0 -32 14 -50 100 -85c27 21 40 47 40 78c0 39 -29 62 -75 62c-41 0 -65 -26 -65 -55z" />
    <glyph glyph-name="nine.numerator" 
d="M197 297c51 0 82 36 88 131c-27 -21 -60 -35 -94 -35c-92 0 -151 69 -151 159c0 91 62 156 157 156c97 0 169 -68 169 -227c0 -176 -67 -252 -171 -252c-53 0 -93 18 -128 53l50 48c22 -23 47 -33 80 -33zM199 461c29 0 62 12 88 38c-4 102 -42 141 -88 141
c-54 0 -83 -35 -83 -90c0 -54 31 -89 83 -89z" />
    <glyph glyph-name="zero.denominator" 
d="M32 232c0 135 58 239 173 239s173 -104 173 -239s-58 -239 -173 -239s-173 104 -173 239zM108 232c0 -105 32 -171 97 -171s97 66 97 171s-32 171 -97 171s-97 -66 -97 -171z" />
    <glyph glyph-name="one.denominator" 
d="M189 369l-69 -51l-48 54l126 92h65v-464h-74v369z" />
    <glyph glyph-name="two.denominator" 
d="M189 404c-36 0 -74 -20 -99 -49l-53 43c34 42 93 73 159 73c87 0 142 -49 142 -133c0 -57 -24 -105 -78 -165c-41 -45 -75 -79 -106 -107h188v-66h-294v62c48 41 103 95 149 145c47 52 65 88 65 129c0 43 -24 68 -73 68z" />
    <glyph glyph-name="three.denominator" 
d="M201 403c-42 0 -68 -12 -94 -46l-53 43c35 43 82 71 146 71c83 0 141 -47 141 -125c0 -50 -34 -88 -71 -105c44 -17 85 -54 85 -111c0 -77 -58 -138 -160 -138c-64 0 -119 27 -154 79l55 43c24 -37 60 -54 99 -54c52 0 84 32 84 70c0 55 -45 77 -107 77h-47v66h47
c57 0 93 26 93 68c0 37 -21 62 -64 62z" />
    <glyph glyph-name="four.denominator" 
d="M243 99h-216v60l222 304h68v-298h56v-66h-56v-99h-74v99zM243 342l-127 -177h127v177z" />
    <glyph glyph-name="five.denominator" 
d="M92 211l-14 9v243h262v-66h-192v-108c19 4 40 5 57 5c92 0 158 -61 158 -157c0 -79 -62 -145 -156 -145c-67 0 -116 23 -156 66l52 47c32 -33 62 -44 106 -44c47 0 78 38 78 81c0 53 -37 85 -90 85c-37 0 -73 -5 -105 -16z" />
    <glyph glyph-name="six.denominator" 
d="M210 403c-44 0 -79 -41 -85 -131c27 21 60 35 94 35c92 0 151 -69 151 -159c0 -91 -62 -156 -157 -156c-97 0 -169 68 -169 227c0 171 71 252 168 252c58 0 103 -17 143 -74l-55 -40c-26 35 -53 46 -90 46zM211 239c-29 0 -62 -12 -88 -38c4 -102 42 -141 88 -141
c54 0 83 35 83 90c0 54 -31 89 -83 89z" />
    <glyph glyph-name="seven.denominator" 
d="M357 397l-170 -397h-83l172 397h-213v66h294v-66z" />
    <glyph glyph-name="eight.denominator" 
d="M44 136c0 48 26 88 67 115c-40 28 -56 60 -56 98c0 76 57 122 145 122c85 0 147 -48 147 -131c0 -43 -22 -81 -58 -103c53 -31 76 -65 76 -111c0 -80 -67 -134 -160 -134c-94 0 -161 54 -161 144zM180 214l-14 6c-29 -22 -46 -51 -46 -86c0 -46 38 -73 86 -73
c49 0 83 26 83 62c0 35 -17 51 -109 91zM131 349c0 -32 14 -50 100 -85c27 21 40 47 40 78c0 39 -29 62 -75 62c-41 0 -65 -26 -65 -55z" />
    <glyph glyph-name="nine.denominator" 
d="M197 60c51 0 82 36 88 131c-27 -21 -60 -35 -94 -35c-92 0 -151 69 -151 159c0 91 62 156 157 156c97 0 169 -68 169 -227c0 -176 -67 -252 -171 -252c-53 0 -93 18 -128 53l50 48c22 -23 47 -33 80 -33zM199 224c29 0 62 12 88 38c-4 102 -42 141 -88 141
c-54 0 -83 -35 -83 -90c0 -54 31 -89 83 -89z" />
    <glyph glyph-name="uni03A9" unicode="&#x3a9;" horiz-adv-x="716" 
d="M358 712c200 0 313 -151 313 -342c0 -132 -55 -227 -137 -292h128v-78h-242v78c104 72 161 165 161 292c0 140 -82 262 -223 262s-223 -122 -223 -262c0 -127 57 -220 161 -292v-78h-242v78h128c-82 65 -137 160 -137 292c0 191 113 342 313 342z" />
    <glyph glyph-name="H18533" unicode="&#x25cf;" horiz-adv-x="1000" 
d="M162 326c0 186 152 338 338 338s338 -152 338 -338s-152 -338 -338 -338s-338 152 -338 338z" />
    <glyph glyph-name="V" unicode="V" horiz-adv-x="676" 
d="M386 0h-96l-270 700h93l225 -597l225 597h93z" />
    </font>
</defs>
</svg>
