<svg width="12" height="12" viewBox="0 0 12 12" fill="none" xmlns="http://www.w3.org/2000/svg">
<path d="M8.95216 11.8082L9.34797 11.4151C9.47158 11.2914 9.53968 11.1268 9.53968 10.9509C9.53968 10.7751 9.47158 10.6103 9.34797 10.4866L4.86383 6.00268L9.35294 1.51357C9.47656 1.39006 9.54456 1.22528 9.54456 1.04947C9.54456 0.873666 9.47656 0.708786 9.35294 0.585176L8.95958 0.192002C8.70377 -0.0640005 8.28708 -0.0640005 8.03127 0.192002L2.66723 5.53683C2.54372 5.66034 2.45669 5.82493 2.45669 6.00229V6.00434C2.45669 6.18025 2.54382 6.34483 2.66723 6.46835L8.01674 11.8082C8.14025 11.9319 8.30981 11.9998 8.48562 12C8.66152 12 8.82874 11.9319 8.95216 11.8082Z" fill="#4434B2"/>
</svg>
