<svg width="37" height="45" viewBox="0 0 37 45" fill="none" xmlns="http://www.w3.org/2000/svg">
<path d="M23.6949 29.2169C24.5379 27.8081 25.7773 27.0864 27.4208 27.0672C29.0644 27.0479 29.8939 26.2107 29.9208 24.5633C29.9439 22.9236 30.6579 21.6842 32.0667 20.8451C33.4793 20.0022 33.7853 18.8686 32.9808 17.4329C32.1802 16.001 32.1802 14.5692 32.9808 13.1335C33.7853 11.7016 33.4812 10.57 32.0667 9.72703C30.6579 8.88216 29.942 7.64468 29.9208 5.99727C29.8939 4.35756 29.0644 3.52038 27.4208 3.50114C25.7773 3.47804 24.5379 2.76019 23.6949 1.35142C22.852 -0.0611888 21.7184 -0.367191 20.2865 0.437268C18.8547 1.23788 17.419 1.23788 15.9871 0.437268C14.5533 -0.365266 13.4198 -0.0611888 12.5768 1.35142C11.7358 2.76211 10.4945 3.47997 8.85285 3.50114C7.21314 3.52038 6.37981 4.35756 6.35672 5.99727C6.32977 7.64468 5.61577 8.88023 4.207 9.72703C2.79439 10.57 2.48454 11.6997 3.29285 13.1335C4.0973 14.5692 4.0973 16.001 3.29285 17.4329C2.48454 18.8686 2.79246 20.0041 4.207 20.8451C5.61577 21.6842 6.3317 22.9236 6.35672 24.5633C6.37981 26.2088 7.21314 27.0479 8.85285 27.0672C10.4964 27.0864 11.7358 27.8081 12.5788 29.2169C13.4217 30.6295 14.5553 30.9355 15.9871 30.1272C17.419 29.3343 18.8547 29.3343 20.2865 30.1272C21.7184 30.9336 22.8539 30.6295 23.6949 29.2169ZM18.1407 24.2766C13.1715 24.2766 9.14538 20.2504 9.14538 15.2813C9.14538 10.3159 13.1715 6.2898 18.1407 6.2898C23.106 6.2898 27.1321 10.3159 27.1321 15.2813C27.1321 20.2504 23.106 24.2766 18.1407 24.2766Z" fill="white"/>
<path d="M8.70855 28.3855C6.98031 28.3855 6.74937 27.5811 6.74937 27.5811L0 40.8469L5.41181 40.2388L8.40447 44.7422C8.40447 44.7422 14.64 31.7323 14.64 31.8189C11.4087 31.7381 12.6943 28.4721 8.70855 28.3855Z" fill="white"/>
<path d="M29.4357 28.1006C24.505 28.6164 25.5077 29.8404 24.3799 30.7911C23.0828 32.1748 21.4623 31.9035 21.4623 31.9035L29.0739 45L30.9465 40.1501L36.2698 40.8449L29.4357 28.1006Z" fill="white"/>
<path d="M20.0192 13.2969L18.137 9.48633L16.2529 13.2969L12.0401 13.9128L15.0847 16.8823L14.3669 21.0817L18.137 19.1013L21.9072 21.0817L21.1894 16.8823L24.234 13.9128L20.0192 13.2969Z" fill="white"/>
</svg>
