<svg width="14" height="14" viewBox="0 0 14 14" fill="none" xmlns="http://www.w3.org/2000/svg">
<path d="M13.1768 1.72216L13.3536 1.54538L13.1768 1.36861L12.6314 0.823223L12.4546 0.646447L12.2778 0.823223L7 6.10106L1.72216 0.823223L1.54538 0.646447L1.36861 0.823223L0.823223 1.36861L0.646447 1.54538L0.823223 1.72216L6.10106 7L0.823223 12.2778L0.646447 12.4546L0.823223 12.6314L1.36861 13.1768L1.54538 13.3536L1.72216 13.1768L7 7.89894L12.2778 13.1768L12.4546 13.3536L12.6314 13.1768L13.1768 12.6314L13.3536 12.4546L13.1768 12.2778L7.89894 7L13.1768 1.72216Z" fill="#4434B2" stroke="#4434B2" stroke-width="0.5"/>
</svg>
