<svg width="8" height="15" viewBox="0 0 8 15" fill="none" xmlns="http://www.w3.org/2000/svg">
<path d="M7.44013 0.00297534L5.58575 0C3.50242 0 2.15608 1.3813 2.15608 3.51923V5.14183H0.291583C0.130469 5.14183 0 5.27245 0 5.43356V7.78452C0 7.94564 0.130617 8.07611 0.291583 8.07611H2.15608V14.0083C2.15608 14.1694 2.28655 14.2999 2.44766 14.2999H4.8803C5.04141 14.2999 5.17188 14.1693 5.17188 14.0083V8.07611H7.35191C7.51302 8.07611 7.64349 7.94564 7.64349 7.78452L7.64438 5.43356C7.64438 5.3562 7.61359 5.28212 7.55899 5.22737C7.5044 5.17262 7.43001 5.14183 7.35265 5.14183H5.17188V3.76633C5.17188 3.10521 5.32942 2.76959 6.19064 2.76959L7.43983 2.76915C7.6008 2.76915 7.73126 2.63853 7.73126 2.47756V0.294558C7.73126 0.133741 7.60094 0.00327287 7.44013 0.00297534Z" fill="black"/>
</svg>
