<svg width="15" height="15" viewBox="0 0 15 15" fill="none" xmlns="http://www.w3.org/2000/svg">
<path d="M10.3536 0H3.94618C1.77026 0 0 1.77034 0 3.94626V10.3537C0 12.5297 1.77026 14.2999 3.94618 14.2999H10.3536C12.5297 14.2999 14.2999 12.5296 14.2999 10.3537V3.94626C14.3 1.77034 12.5297 0 10.3536 0ZM13.0312 10.3537C13.0312 11.8301 11.8301 13.0312 10.3537 13.0312H3.94618C2.46985 13.0312 1.26876 11.8301 1.26876 10.3537V3.94626C1.26876 2.46993 2.46985 1.26876 3.94618 1.26876H10.3536C11.83 1.26876 13.0312 2.46993 13.0312 3.94626V10.3537H13.0312Z" fill="black"/>
<path d="M7.14981 3.46582C5.11803 3.46582 3.46509 5.11876 3.46509 7.15055C3.46509 9.18225 5.11803 10.8351 7.14981 10.8351C9.1816 10.8351 10.8345 9.18225 10.8345 7.15055C10.8345 5.11876 9.1816 3.46582 7.14981 3.46582ZM7.14981 9.56626C5.8177 9.56626 4.73385 8.48257 4.73385 7.15046C4.73385 5.81827 5.81762 4.73449 7.14981 4.73449C8.48201 4.73449 9.56578 5.81827 9.56578 7.15046C9.56578 8.48257 8.48193 9.56626 7.14981 9.56626Z" fill="black"/>
<path d="M10.989 2.38965C10.7446 2.38965 10.5044 2.48861 10.3318 2.66201C10.1583 2.83456 10.0586 3.07478 10.0586 3.32007C10.0586 3.5646 10.1584 3.80474 10.3318 3.97813C10.5044 4.15068 10.7446 4.25049 10.989 4.25049C11.2343 4.25049 11.4737 4.15068 11.6471 3.97813C11.8205 3.80474 11.9194 3.56452 11.9194 3.32007C11.9194 3.07478 11.8205 2.83456 11.6471 2.66201C11.4745 2.48861 11.2343 2.38965 10.989 2.38965Z" fill="black"/>
</svg>
