<svg width="15" height="15" viewBox="0 0 15 15" fill="none" xmlns="http://www.w3.org/2000/svg">
<path d="M12.8699 0H1.42999C0.643496 0 0 0.643496 0 1.42999V12.8699C0 13.6564 0.643496 14.2999 1.42999 14.2999H12.8699C13.6564 14.2999 14.2999 13.6564 14.2999 12.8699V1.42999C14.2999 0.643496 13.6564 0 12.8699 0ZM4.28998 12.1549H2.14499V5.71997H4.28998V12.1549ZM3.21748 4.50447C2.50249 4.50447 1.93049 3.93248 1.93049 3.21748C1.93049 2.50249 2.50249 1.93049 3.21748 1.93049C3.93248 1.93049 4.50447 2.50249 4.50447 3.21748C4.50447 3.93248 3.93248 4.50447 3.21748 4.50447ZM12.1549 12.1549H10.0099V8.36545C10.0099 7.79348 9.50945 7.29296 8.93745 7.29296C8.36545 7.29296 7.86495 7.79348 7.86495 8.36545V12.1549H5.71997V5.71997H7.86495V6.57796C8.22245 6.00597 9.00895 5.57697 9.65244 5.57697C11.0109 5.57697 12.1549 6.72096 12.1549 8.07945V12.1549Z" fill="black"/>
</svg>
