<svg width="138" height="50" viewBox="0 0 138 50" fill="none" xmlns="http://www.w3.org/2000/svg">
<path d="M9.14063 18.6247C6.52546 18.6247 4.7451 17.5999 4.50658 15.0381C4.49198 14.9219 4.43534 14.8151 4.34741 14.7379C4.25948 14.6608 4.14638 14.6187 4.02954 14.6196H0.477339C0.413234 14.6196 0.349779 14.6325 0.290763 14.6576C0.231747 14.6827 0.178382 14.7195 0.133855 14.7657C0.0893284 14.8119 0.0545533 14.8667 0.0316072 14.9267C0.00866115 14.9867 -0.00198512 15.0507 0.000304349 15.1149C0.272896 19.6409 3.54399 22.2027 8.93619 22.2027C13.1443 22.2027 17.4547 20.3496 17.4547 15.3711C17.4547 11.8101 15.1036 10.3499 11.4236 9.2739C7.29212 8.04421 5.11139 7.8905 5.11139 6.03743C5.11139 4.5174 6.32953 3.62075 8.41656 3.62075C10.674 3.62075 11.9858 4.58571 12.284 6.40463C12.2948 6.52621 12.3525 6.63877 12.4447 6.71847C12.5369 6.79817 12.6565 6.83875 12.778 6.8316H16.1854C16.2519 6.8308 16.3174 6.81608 16.3779 6.78838C16.4384 6.76068 16.4924 6.72063 16.5365 6.67078C16.5806 6.62093 16.6138 6.56238 16.6341 6.4989C16.6543 6.43542 16.6611 6.36841 16.6539 6.30216C16.2706 1.88723 12.8632 0 8.68063 0C3.86769 0 0.741412 2.51061 0.741412 6.37047C0.741412 10.7 3.95288 11.571 7.31768 12.5531C11.5769 13.8084 12.9654 14.1073 12.9654 15.781C12.9654 17.4548 11.5173 18.6247 9.14063 18.6247" fill="white"/>
<path d="M24.2271 0.453125H20.6323C20.5058 0.453125 20.3844 0.503508 20.295 0.59319C20.2055 0.682872 20.1552 0.804508 20.1552 0.931337V21.2554C20.1552 21.3822 20.2055 21.5038 20.295 21.5935C20.3844 21.6832 20.5058 21.7336 20.6323 21.7336H24.2271C24.3536 21.7336 24.4749 21.6832 24.5644 21.5935C24.6538 21.5038 24.7041 21.3822 24.7041 21.2554V0.931337C24.7041 0.804508 24.6538 0.682872 24.5644 0.59319C24.4749 0.503508 24.3536 0.453125 24.2271 0.453125" fill="white"/>
<path d="M42.8314 17.7285H33.2225V0.931337C33.2225 0.804508 33.1722 0.682872 33.0828 0.59319C32.9933 0.503508 32.872 0.453125 32.7455 0.453125H29.1762C29.1136 0.453125 29.0515 0.465494 28.9937 0.489527C28.9358 0.513559 28.8832 0.548784 28.8389 0.59319C28.7946 0.637596 28.7595 0.690314 28.7355 0.748333C28.7115 0.806353 28.6992 0.868538 28.6992 0.931337V21.2554C28.6992 21.3182 28.7115 21.3803 28.7355 21.4384C28.7595 21.4964 28.7946 21.5491 28.8389 21.5935C28.8832 21.6379 28.9358 21.6731 28.9937 21.6972C29.0515 21.7212 29.1136 21.7336 29.1762 21.7336H42.8058C42.8684 21.7336 42.9305 21.7212 42.9884 21.6972C43.0462 21.6731 43.0988 21.6379 43.1431 21.5935C43.1874 21.5491 43.2225 21.4964 43.2465 21.4384C43.2705 21.3803 43.2828 21.3182 43.2828 21.2554V18.2068C43.2828 18.144 43.2705 18.0818 43.2465 18.0238C43.2225 17.9657 43.1874 17.913 43.1431 17.8686C43.0988 17.8242 43.0462 17.789 42.9884 17.7649C42.9305 17.7409 42.8684 17.7285 42.8058 17.7285" fill="white"/>
<path d="M50.4042 14.8591L53.0449 12.1691L59.1612 21.5626C59.205 21.6287 59.2645 21.6828 59.3344 21.7201C59.4043 21.7573 59.4824 21.7766 59.5615 21.7761H64.0763C64.1631 21.7748 64.2479 21.7503 64.322 21.705C64.3961 21.6597 64.4567 21.5954 64.4976 21.5187C64.5384 21.442 64.558 21.3557 64.5544 21.2688C64.5507 21.1819 64.5239 21.0976 64.4767 21.0246L56.1456 8.84726L63.4545 1.25564C63.5202 1.18778 63.5644 1.10192 63.5814 1.0089C63.5984 0.91588 63.5876 0.819887 63.5502 0.733056C63.5128 0.646225 63.4506 0.572455 63.3714 0.521073C63.2922 0.469691 63.1995 0.443004 63.1052 0.444387H58.7778C58.7102 0.444966 58.6435 0.459698 58.5818 0.487638C58.5202 0.515578 58.4651 0.55611 58.4201 0.606638L50.4042 9.29985V0.931139C50.4042 0.80351 50.3542 0.68098 50.265 0.589938C50.1757 0.498896 50.0544 0.446626 49.9271 0.444387H46.4175C46.2902 0.446626 46.1689 0.498896 46.0797 0.589938C45.9904 0.68098 45.9405 0.80351 45.9405 0.931139V21.2552C45.9405 21.318 45.9528 21.3801 45.9768 21.4382C46.0008 21.4962 46.0359 21.5489 46.0802 21.5933C46.1245 21.6377 46.1771 21.6729 46.235 21.697C46.2928 21.721 46.3549 21.7334 46.4175 21.7334H49.9271C50.0536 21.7334 50.175 21.683 50.2644 21.5933C50.3539 21.5036 50.4042 21.382 50.4042 21.2552V14.8591Z" fill="white"/>
<path d="M10.2737 27.7188H1.84896C1.78632 27.7188 1.72428 27.7311 1.66641 27.7552C1.60853 27.7792 1.55594 27.8144 1.51165 27.8588C1.46735 27.9032 1.43221 27.9559 1.40824 28.014C1.38426 28.072 1.37193 28.1342 1.37193 28.197V48.5295C1.37193 48.6564 1.42218 48.778 1.51165 48.8677C1.60111 48.9574 1.72244 49.0077 1.84896 49.0077H5.39265C5.51917 49.0077 5.6405 48.9574 5.72996 48.8677C5.81942 48.778 5.86968 48.6564 5.86968 48.5295V41.3478H10.5037C14.6522 41.3478 17.8381 39.1958 17.8381 34.5674C17.8381 29.939 14.7374 27.7358 10.2737 27.7358V27.7188ZM9.89893 37.6929H5.86968V31.5444H9.92448C11.9263 31.5444 13.4341 32.3984 13.4341 34.6272C13.4341 36.856 11.9263 37.6758 9.89893 37.6758" fill="white"/>
<path d="M24.2267 27.7192H20.6575C20.531 27.7192 20.4096 27.7696 20.3202 27.8593C20.2307 27.949 20.1805 28.0706 20.1805 28.1974V48.53C20.1805 48.6568 20.2307 48.7785 20.3202 48.8682C20.4096 48.9578 20.531 49.0082 20.6575 49.0082H34.287C34.4136 49.0082 34.5349 48.9578 34.6244 48.8682C34.7138 48.7785 34.7641 48.6568 34.7641 48.53V45.4814C34.7641 45.3546 34.7138 45.2329 34.6244 45.1433C34.5349 45.0536 34.4136 45.0032 34.287 45.0032H24.7038V28.1804C24.7038 28.0535 24.6535 27.9319 24.564 27.8422C24.4746 27.7525 24.3532 27.7021 24.2267 27.7021" fill="white"/>
<path d="M43.3595 28.0008L35.8547 48.359C35.829 48.4319 35.821 48.5099 35.8313 48.5866C35.8417 48.6632 35.8701 48.7363 35.9142 48.7997C35.9583 48.8632 36.0169 48.9152 36.0851 48.9514C36.1532 48.9876 36.229 49.007 36.3062 49.008H39.918C40.0177 49.008 40.1148 48.9766 40.1957 48.9184C40.2767 48.8602 40.3375 48.7781 40.3695 48.6835L41.9369 44.2515H49.6035L51.1113 48.675C51.1433 48.7695 51.2041 48.8517 51.2851 48.9099C51.366 48.9681 51.4631 48.9994 51.5628 48.9995H55.2854C55.3625 48.9985 55.4383 48.9791 55.5065 48.9428C55.5746 48.9066 55.6332 48.8546 55.6773 48.7912C55.7215 48.7278 55.7499 48.6547 55.7602 48.578C55.7706 48.5014 55.7626 48.4234 55.7368 48.3505L48.2576 28.0008C48.2243 27.9101 48.1639 27.8319 48.0846 27.7769C48.0053 27.7219 47.9111 27.6927 47.8146 27.6934H43.811C43.7134 27.6922 43.6178 27.721 43.537 27.776C43.4563 27.831 43.3943 27.9094 43.3595 28.0008V28.0008ZM43.0443 40.8101L45.7958 32.8854L48.5558 40.8442L43.0443 40.8101Z" fill="white"/>
<path d="M67.7903 36.5066C63.6759 35.3111 61.4696 35.1659 61.4696 33.3128C61.4696 31.7843 62.7218 30.8876 64.8088 30.8876C67.0577 30.8876 68.3696 31.8611 68.6762 33.68C68.6963 33.787 68.7535 33.8834 68.8377 33.9522C68.9219 34.021 69.0276 34.0576 69.1362 34.0558H72.5436C72.6096 34.0548 72.6747 34.0403 72.735 34.0132C72.7952 33.9861 72.8493 33.947 72.894 33.8982C72.9386 33.8495 72.9729 33.7921 72.9947 33.7296C73.0164 33.6672 73.0253 33.6009 73.0206 33.5349C72.6884 29.1541 69.2895 27.2754 65.0985 27.2754C60.2855 27.2754 57.1592 29.786 57.1592 33.6373C57.1592 37.9754 60.3792 38.8379 63.7355 39.8285C67.9947 41.0838 69.3918 41.3827 69.3918 43.0564C69.3918 44.7302 67.9436 45.9001 65.567 45.9001C62.9518 45.9001 61.1714 44.8753 60.9244 42.3049C60.9098 42.1887 60.8532 42.0819 60.7652 42.0048C60.6773 41.9277 60.5642 41.8856 60.4474 41.8865H56.8696C56.8047 41.8864 56.7406 41.8996 56.6809 41.9252C56.6213 41.9508 56.5676 41.9883 56.5229 42.0355C56.4783 42.0826 56.4437 42.1384 56.4213 42.1994C56.3989 42.2605 56.3891 42.3254 56.3926 42.3903C56.6652 46.8992 59.9277 49.5294 65.3285 49.5294C69.5281 49.5294 73.8469 47.6763 73.8469 42.6551C73.8469 39.0941 71.4958 37.6253 67.8159 36.5493" fill="white"/>
<path d="M74.6987 31.6986H80.4232V48.53C80.4232 48.6568 80.4734 48.7785 80.5629 48.8682C80.6523 48.9578 80.7737 49.0082 80.9002 49.0082H84.495C84.6223 49.0082 84.7445 48.9581 84.8353 48.8687C84.9262 48.7792 84.9783 48.6576 84.9805 48.53V31.6986H90.705C90.8315 31.6986 90.9528 31.6483 91.0423 31.5586C91.1317 31.4689 91.182 31.3473 91.182 31.2204V28.1804C91.182 28.0535 91.1317 27.9319 91.0423 27.8422C90.9528 27.7525 90.8315 27.7021 90.705 27.7021H74.6987C74.5722 27.7021 74.4509 27.7525 74.3614 27.8422C74.272 27.9319 74.2217 28.0535 74.2217 28.1804V31.2033C74.2217 31.3302 74.272 31.4518 74.3614 31.5415C74.4509 31.6312 74.5722 31.6816 74.6987 31.6816" fill="white"/>
<path d="M98.048 39.8539H107.657C107.783 39.8539 107.905 39.8035 107.994 39.7138C108.084 39.6241 108.134 39.5025 108.134 39.3757V36.6601C108.134 36.5333 108.084 36.4116 107.994 36.3219C107.905 36.2323 107.783 36.1819 107.657 36.1819H98.048V31.5449H108.551C108.678 31.5449 108.799 31.4945 108.889 31.4049C108.978 31.3152 109.028 31.1935 109.028 31.0667V28.1804C109.028 28.0535 108.978 27.9319 108.889 27.8422C108.799 27.7525 108.678 27.7021 108.551 27.7021H94.0272C93.9007 27.7021 93.7794 27.7525 93.6899 27.8422C93.6005 27.9319 93.5502 28.0535 93.5502 28.1804V48.53C93.5502 48.6568 93.6005 48.7785 93.6899 48.8682C93.7794 48.9578 93.9007 49.0082 94.0272 49.0082H108.756C108.882 49.0082 109.004 48.9578 109.093 48.8682C109.182 48.7785 109.233 48.6568 109.233 48.53V45.5668C109.233 45.44 109.182 45.3183 109.093 45.2286C109.004 45.139 108.882 45.0886 108.756 45.0886H98.048V39.8539Z" fill="white"/>
<path d="M129.03 36.8904C129.347 35.9912 129.502 35.0429 129.49 34.0894C129.49 31.2884 128.271 28.9657 126.082 28.1117C125.169 27.7928 124.202 27.6593 123.237 27.7189H111.907C111.845 27.7189 111.783 27.7313 111.725 27.7553C111.667 27.7794 111.614 27.8146 111.57 27.859C111.526 27.9034 111.491 27.9561 111.467 28.0141C111.443 28.0722 111.43 28.1343 111.43 28.1971V48.5212C111.433 48.6465 111.484 48.766 111.573 48.8538C111.662 48.9416 111.782 48.9908 111.907 48.9908H115.23C115.355 48.9908 115.475 48.9416 115.564 48.8538C115.653 48.766 115.704 48.6465 115.707 48.5212V40.4428H120.613L125.043 48.7517C125.085 48.8273 125.147 48.8901 125.222 48.9337C125.297 48.9772 125.382 48.9999 125.469 48.9994H129.421C129.506 49.0001 129.588 48.9786 129.661 48.9369C129.735 48.8953 129.795 48.835 129.838 48.7621C129.88 48.6893 129.903 48.6065 129.903 48.5222C129.903 48.4379 129.881 48.3551 129.839 48.2821L125.017 40.1354C126.764 39.7425 128.246 39.0765 129.03 36.9074V36.8904ZM122.76 36.7196H115.69V31.5105H122.59C123.782 31.5105 125.145 31.9289 125.145 34.1919C125.145 36.4548 123.569 36.7537 122.769 36.7537" fill="white"/>
<path d="M134.967 27.7277C134.347 27.7107 133.736 27.8795 133.213 28.2124C132.689 28.5454 132.276 29.0274 132.027 29.5968C131.778 30.1662 131.704 30.7971 131.814 31.4089C131.925 32.0207 132.215 32.5856 132.647 33.0312C133.08 33.4769 133.635 33.7832 134.242 33.9109C134.849 34.0386 135.48 33.9819 136.055 33.748C136.629 33.5142 137.121 33.1138 137.468 32.5982C137.814 32.0825 138 31.4749 138 30.8532C138.005 30.4483 137.931 30.0464 137.782 29.6702C137.633 29.294 137.411 28.951 137.129 28.6608C136.848 28.3705 136.512 28.1387 136.141 27.9787C135.77 27.8186 135.371 27.7333 134.967 27.7277V27.7277ZM134.967 33.3638C134.469 33.3774 133.978 33.2418 133.558 32.9743C133.137 32.7068 132.805 32.3196 132.605 31.8622C132.405 31.4049 132.346 30.898 132.435 30.4066C132.524 29.9152 132.757 29.4615 133.104 29.1035C133.451 28.7455 133.897 28.4995 134.385 28.397C134.872 28.2945 135.379 28.34 135.841 28.5279C136.303 28.7157 136.698 29.0373 136.976 29.4515C137.255 29.8657 137.403 30.3538 137.404 30.8532C137.408 31.1784 137.349 31.5013 137.229 31.8035C137.109 32.1057 136.93 32.3813 136.704 32.6144C136.478 32.8475 136.208 33.0337 135.91 33.1623C135.612 33.2909 135.292 33.3594 134.967 33.3638" fill="white"/>
<path d="M136.372 30.6231C136.423 30.4835 136.449 30.3361 136.449 30.1876C136.469 29.9967 136.427 29.8045 136.331 29.6387C136.234 29.4729 136.088 29.3422 135.913 29.2653C135.771 29.2118 135.62 29.1885 135.47 29.197H133.63V32.5103H134.303V31.1782H135.061L135.776 32.5103H136.56L135.751 31.1269C135.892 31.1124 136.026 31.057 136.136 30.9676C136.247 30.8781 136.329 30.7585 136.372 30.6231ZM135.401 30.6231H134.303V29.7692H135.376C135.555 29.7692 135.768 29.8375 135.768 30.1876C135.768 30.5377 135.521 30.5804 135.401 30.5804" fill="white"/>
</svg>
