<svg width="138" height="50" viewBox="0 0 138 50" fill="none" xmlns="http://www.w3.org/2000/svg">
<path d="M9.14063 18.6247C6.52546 18.6247 4.7451 17.5999 4.50658 15.0381C4.49198 14.9219 4.43534 14.8151 4.34741 14.7379C4.25948 14.6608 4.14638 14.6187 4.02954 14.6196H0.477339C0.413234 14.6196 0.349779 14.6325 0.290763 14.6576C0.231747 14.6827 0.178382 14.7195 0.133855 14.7657C0.0893284 14.8119 0.0545533 14.8667 0.0316072 14.9267C0.00866115 14.9867 -0.00198512 15.0507 0.000304349 15.1149C0.272896 19.6409 3.54399 22.2027 8.93619 22.2027C13.1443 22.2027 17.4547 20.3496 17.4547 15.3711C17.4547 11.8101 15.1036 10.3499 11.4236 9.2739C7.29212 8.04421 5.11139 7.8905 5.11139 6.03743C5.11139 4.5174 6.32953 3.62075 8.41656 3.62075C10.674 3.62075 11.9858 4.58571 12.284 6.40463C12.2948 6.52621 12.3525 6.63877 12.4447 6.71847C12.5369 6.79817 12.6565 6.83875 12.778 6.8316H16.1854C16.2519 6.8308 16.3174 6.81608 16.3779 6.78838C16.4384 6.76068 16.4924 6.72063 16.5365 6.67078C16.5806 6.62093 16.6138 6.56238 16.6341 6.4989C16.6543 6.43542 16.6611 6.36841 16.6539 6.30216C16.2706 1.88723 12.8632 0 8.68063 0C3.86769 0 0.741412 2.51061 0.741412 6.37047C0.741412 10.7 3.95288 11.571 7.31768 12.5531C11.5769 13.8084 12.9654 14.1073 12.9654 15.781C12.9654 17.4548 11.5173 18.6247 9.14063 18.6247" fill="#2B2171"/>
<path d="M24.2271 0.452637H20.6323C20.5058 0.452637 20.3845 0.50302 20.295 0.592702C20.2055 0.682384 20.1553 0.804019 20.1553 0.930849V21.2549C20.1553 21.3817 20.2055 21.5033 20.295 21.593C20.3845 21.6827 20.5058 21.7331 20.6323 21.7331H24.2271C24.3536 21.7331 24.475 21.6827 24.5644 21.593C24.6539 21.5033 24.7041 21.3817 24.7041 21.2549V0.930849C24.7041 0.804019 24.6539 0.682384 24.5644 0.592702C24.475 0.50302 24.3536 0.452637 24.2271 0.452637" fill="#2B2171"/>
<path d="M42.8314 17.7281H33.2225V0.930849C33.2225 0.804019 33.1723 0.682384 33.0828 0.592702C32.9934 0.50302 32.872 0.452637 32.7455 0.452637H29.1763C29.1136 0.452637 29.0516 0.465006 28.9937 0.489039C28.9358 0.513071 28.8832 0.548296 28.8389 0.592702C28.7946 0.637108 28.7595 0.689826 28.7355 0.747845C28.7116 0.805865 28.6992 0.868049 28.6992 0.930849V21.2549C28.6992 21.3177 28.7116 21.3799 28.7355 21.4379C28.7595 21.4959 28.7946 21.5486 28.8389 21.593C28.8832 21.6374 28.9358 21.6727 28.9937 21.6967C29.0516 21.7207 29.1136 21.7331 29.1763 21.7331H42.8058C42.8685 21.7331 42.9305 21.7207 42.9884 21.6967C43.0463 21.6727 43.0988 21.6374 43.1431 21.593C43.1874 21.5486 43.2226 21.4959 43.2466 21.4379C43.2705 21.3799 43.2829 21.3177 43.2829 21.2549V18.2063C43.2829 18.1435 43.2705 18.0813 43.2466 18.0233C43.2226 17.9652 43.1874 17.9125 43.1431 17.8681C43.0988 17.8237 43.0463 17.7885 42.9884 17.7645C42.9305 17.7404 42.8685 17.7281 42.8058 17.7281" fill="#2B2171"/>
<path d="M50.4041 14.8586L53.0448 12.1686L59.1611 21.5621C59.2049 21.6282 59.2645 21.6823 59.3344 21.7196C59.4043 21.7569 59.4823 21.7761 59.5615 21.7756H64.0763C64.163 21.7743 64.2478 21.7498 64.3219 21.7045C64.396 21.6592 64.4566 21.5949 64.4975 21.5182C64.5384 21.4415 64.558 21.3552 64.5543 21.2683C64.5507 21.1814 64.5238 21.0971 64.4766 21.0241L56.1456 8.84677L63.4544 1.25515C63.5201 1.18729 63.5643 1.10143 63.5813 1.00841C63.5984 0.915392 63.5875 0.819399 63.5501 0.732568C63.5127 0.645737 63.4505 0.571967 63.3713 0.520585C63.2921 0.469203 63.1995 0.442516 63.1052 0.443899H58.7778C58.7102 0.444478 58.6434 0.45921 58.5818 0.487149C58.5202 0.515089 58.4651 0.555621 58.42 0.606149L50.4041 9.29937V0.930651C50.4041 0.803022 50.3541 0.680492 50.2649 0.589449C50.1757 0.498407 50.0544 0.446138 49.9271 0.443899H46.4175C46.2902 0.446138 46.1688 0.498407 46.0796 0.589449C45.9904 0.680492 45.9404 0.803022 45.9404 0.930651V21.2547C45.9404 21.3175 45.9528 21.3797 45.9767 21.4377C46.0007 21.4957 46.0359 21.5484 46.0802 21.5928C46.1244 21.6372 46.177 21.6725 46.2349 21.6965C46.2928 21.7205 46.3548 21.7329 46.4175 21.7329H49.9271C50.0536 21.7329 50.1749 21.6825 50.2644 21.5928C50.3539 21.5031 50.4041 21.3815 50.4041 21.2547V14.8586Z" fill="#2B2171"/>
<path d="M10.2738 27.7192H1.84898C1.78634 27.7192 1.72431 27.7316 1.66643 27.7556C1.60855 27.7797 1.55597 27.8149 1.51167 27.8593C1.46737 27.9037 1.43223 27.9564 1.40826 28.0144C1.38429 28.0725 1.37195 28.1347 1.37195 28.1975V48.53C1.37195 48.6569 1.42221 48.7785 1.51167 48.8682C1.60113 48.9578 1.72247 49.0082 1.84898 49.0082H5.39267C5.51919 49.0082 5.64052 48.9578 5.72999 48.8682C5.81945 48.7785 5.86971 48.6569 5.86971 48.53V41.3483H10.5038C14.6523 41.3483 17.8382 39.1963 17.8382 34.5679C17.8382 29.9395 14.7374 27.7363 10.2738 27.7363V27.7192ZM9.89895 37.6934H5.86971V31.5449H9.9245C11.9263 31.5449 13.4341 32.3989 13.4341 34.6277C13.4341 36.8565 11.9263 37.6763 9.89895 37.6763" fill="#2B2171"/>
<path d="M24.2267 27.7192H20.6575C20.5309 27.7192 20.4096 27.7696 20.3201 27.8593C20.2307 27.949 20.1804 28.0706 20.1804 28.1974V48.53C20.1804 48.6568 20.2307 48.7785 20.3201 48.8682C20.4096 48.9578 20.5309 49.0082 20.6575 49.0082H34.287C34.4135 49.0082 34.5349 48.9578 34.6243 48.8682C34.7138 48.7785 34.7641 48.6568 34.7641 48.53V45.4814C34.7641 45.3546 34.7138 45.2329 34.6243 45.1433C34.5349 45.0536 34.4135 45.0032 34.287 45.0032H24.7037V28.1804C24.7037 28.0535 24.6535 27.9319 24.564 27.8422C24.4745 27.7525 24.3532 27.7021 24.2267 27.7021" fill="#2B2171"/>
<path d="M43.3595 28.0008L35.8547 48.359C35.829 48.4319 35.8209 48.5099 35.8313 48.5866C35.8416 48.6632 35.8701 48.7363 35.9142 48.7997C35.9583 48.8632 36.0169 48.9152 36.0851 48.9514C36.1532 48.9876 36.229 49.007 36.3062 49.008H39.918C40.0176 49.008 40.1148 48.9766 40.1957 48.9184C40.2767 48.8602 40.3375 48.7781 40.3695 48.6835L41.9369 44.2515H49.6035L51.1113 48.675C51.1433 48.7695 51.2041 48.8517 51.285 48.9099C51.366 48.9681 51.4631 48.9994 51.5628 48.9995H55.2853C55.3625 48.9985 55.4383 48.9791 55.5064 48.9428C55.5746 48.9066 55.6332 48.8546 55.6773 48.7912C55.7215 48.7278 55.7499 48.6547 55.7602 48.578C55.7706 48.5014 55.7625 48.4234 55.7368 48.3505L48.2576 28.0008C48.2243 27.9101 48.1639 27.8319 48.0846 27.7769C48.0053 27.7219 47.9111 27.6927 47.8146 27.6934H43.8109C43.7134 27.6922 43.6178 27.721 43.537 27.776C43.4563 27.831 43.3943 27.9094 43.3595 28.0008V28.0008ZM43.0443 40.8101L45.7958 32.8854L48.5557 40.8442L43.0443 40.8101Z" fill="#2B2171"/>
<path d="M67.7903 36.5066C63.6758 35.3111 61.4696 35.1659 61.4696 33.3128C61.4696 31.7843 62.7218 30.8876 64.8088 30.8876C67.0577 30.8876 68.3695 31.8611 68.6762 33.68C68.6963 33.787 68.7535 33.8834 68.8377 33.9522C68.9219 34.021 69.0276 34.0576 69.1362 34.0558H72.5436C72.6096 34.0548 72.6747 34.0403 72.735 34.0132C72.7952 33.9861 72.8493 33.947 72.8939 33.8982C72.9386 33.8495 72.9729 33.7921 72.9946 33.7296C73.0164 33.6672 73.0253 33.6009 73.0206 33.5349C72.6884 29.1541 69.2895 27.2754 65.0984 27.2754C60.2855 27.2754 57.1592 29.786 57.1592 33.6373C57.1592 37.9754 60.3792 38.8379 63.7355 39.8285C67.9947 41.0838 69.3917 41.3827 69.3917 43.0564C69.3917 44.7302 67.9436 45.9001 65.5669 45.9001C62.9518 45.9001 61.1714 44.8753 60.9244 42.3049C60.9098 42.1887 60.8531 42.0819 60.7652 42.0048C60.6773 41.9277 60.5642 41.8856 60.4473 41.8865H56.8696C56.8047 41.8864 56.7405 41.8996 56.6809 41.9252C56.6213 41.9508 56.5675 41.9883 56.5229 42.0355C56.4782 42.0826 56.4436 42.1384 56.4212 42.1994C56.3988 42.2605 56.3891 42.3254 56.3925 42.3903C56.6651 46.8992 59.9277 49.5294 65.3284 49.5294C69.528 49.5294 73.8469 47.6763 73.8469 42.6551C73.8469 39.0941 71.4958 37.6253 67.8158 36.5493" fill="#2B2171"/>
<path d="M74.6987 31.6986H80.4231V48.53C80.4231 48.6568 80.4734 48.7785 80.5629 48.8682C80.6523 48.9578 80.7737 49.0082 80.9002 49.0082H84.495C84.6223 49.0082 84.7445 48.9581 84.8353 48.8687C84.9261 48.7792 84.9783 48.6576 84.9805 48.53V31.6986H90.7049C90.8315 31.6986 90.9528 31.6483 91.0423 31.5586C91.1317 31.4689 91.182 31.3473 91.182 31.2204V28.1804C91.182 28.0535 91.1317 27.9319 91.0423 27.8422C90.9528 27.7525 90.8315 27.7021 90.7049 27.7021H74.6987C74.5722 27.7021 74.4509 27.7525 74.3614 27.8422C74.2719 27.9319 74.2217 28.0535 74.2217 28.1804V31.2033C74.2217 31.3302 74.2719 31.4518 74.3614 31.5415C74.4509 31.6312 74.5722 31.6816 74.6987 31.6816" fill="#2B2171"/>
<path d="M98.0479 39.8539H107.657C107.783 39.8539 107.905 39.8035 107.994 39.7138C108.084 39.6241 108.134 39.5025 108.134 39.3757V36.6601C108.134 36.5333 108.084 36.4116 107.994 36.3219C107.905 36.2323 107.783 36.1819 107.657 36.1819H98.0479V31.5449H108.551C108.678 31.5449 108.799 31.4945 108.889 31.4049C108.978 31.3152 109.028 31.1935 109.028 31.0667V28.1804C109.028 28.0535 108.978 27.9319 108.889 27.8422C108.799 27.7525 108.678 27.7021 108.551 27.7021H94.0272C93.9007 27.7021 93.7793 27.7525 93.6899 27.8422C93.6004 27.9319 93.5502 28.0535 93.5502 28.1804V48.53C93.5502 48.6568 93.6004 48.7785 93.6899 48.8682C93.7793 48.9578 93.9007 49.0082 94.0272 49.0082H108.756C108.882 49.0082 109.004 48.9578 109.093 48.8682C109.182 48.7785 109.233 48.6568 109.233 48.53V45.5668C109.233 45.44 109.182 45.3183 109.093 45.2286C109.004 45.139 108.882 45.0886 108.756 45.0886H98.0479V39.8539Z" fill="#2B2171"/>
<path d="M129.03 36.8908C129.347 35.9917 129.502 35.0434 129.49 34.0899C129.49 31.2889 128.271 28.9662 126.082 28.1122C125.169 27.7933 124.202 27.6597 123.237 27.7194H111.907C111.845 27.7194 111.783 27.7318 111.725 27.7558C111.667 27.7799 111.614 27.8151 111.57 27.8595C111.526 27.9039 111.491 27.9566 111.467 28.0146C111.443 28.0726 111.43 28.1348 111.43 28.1976V48.5216C111.433 48.647 111.484 48.7664 111.573 48.8543C111.662 48.9421 111.782 48.9913 111.907 48.9913H115.23C115.355 48.9913 115.475 48.9421 115.564 48.8543C115.653 48.7664 115.704 48.647 115.707 48.5216V40.4433H120.613L125.043 48.7522C125.085 48.8278 125.147 48.8906 125.222 48.9342C125.297 48.9777 125.382 49.0004 125.469 48.9999H129.421C129.506 49.0006 129.588 48.9791 129.661 48.9374C129.735 48.8957 129.795 48.8354 129.838 48.7626C129.88 48.6898 129.903 48.607 129.903 48.5227C129.903 48.4384 129.881 48.3556 129.839 48.2825L125.017 40.1359C126.764 39.743 128.246 39.077 129.03 36.9079V36.8908ZM122.76 36.7201H115.69V31.511H122.59C123.782 31.511 125.145 31.9294 125.145 34.1924C125.145 36.4553 123.569 36.7542 122.769 36.7542" fill="#2B2171"/>
<path d="M134.967 27.7277C134.347 27.7107 133.736 27.8795 133.213 28.2124C132.689 28.5454 132.276 29.0274 132.027 29.5968C131.778 30.1662 131.704 30.7971 131.814 31.4089C131.925 32.0207 132.215 32.5856 132.647 33.0312C133.08 33.4769 133.635 33.7832 134.242 33.9109C134.849 34.0386 135.48 33.9819 136.055 33.748C136.629 33.5142 137.121 33.1138 137.468 32.5982C137.814 32.0825 138 31.4749 138 30.8532C138.005 30.4483 137.931 30.0464 137.782 29.6702C137.633 29.294 137.411 28.951 137.129 28.6608C136.848 28.3705 136.512 28.1387 136.141 27.9787C135.77 27.8186 135.371 27.7333 134.967 27.7277V27.7277ZM134.967 33.3638C134.469 33.3774 133.978 33.2418 133.558 32.9743C133.137 32.7068 132.805 32.3196 132.605 31.8622C132.405 31.4049 132.346 30.898 132.435 30.4066C132.524 29.9152 132.757 29.4615 133.104 29.1035C133.451 28.7455 133.897 28.4995 134.385 28.397C134.872 28.2945 135.379 28.34 135.841 28.5279C136.303 28.7157 136.698 29.0373 136.976 29.4515C137.255 29.8657 137.403 30.3538 137.404 30.8532C137.408 31.1784 137.349 31.5013 137.229 31.8035C137.109 32.1057 136.93 32.3813 136.704 32.6144C136.478 32.8475 136.208 33.0337 135.91 33.1623C135.612 33.2909 135.292 33.3594 134.967 33.3638" fill="#2B2171"/>
<path d="M136.372 30.6226C136.423 30.483 136.449 30.3356 136.449 30.1871C136.469 29.9962 136.427 29.804 136.331 29.6382C136.234 29.4724 136.088 29.3417 135.912 29.2648C135.771 29.2113 135.62 29.1881 135.47 29.1965H133.63V32.5098H134.302V31.1777H135.061L135.776 32.5098H136.56L135.751 31.1265C135.892 31.1119 136.026 31.0565 136.136 30.9671C136.247 30.8776 136.329 30.758 136.372 30.6226ZM135.401 30.6226H134.302V29.7687H135.376C135.555 29.7687 135.768 29.837 135.768 30.1871C135.768 30.5372 135.521 30.5799 135.401 30.5799" fill="#2B2171"/>
</svg>
