<svg width="21" height="30" viewBox="0 0 21 30" fill="none" xmlns="http://www.w3.org/2000/svg">
<path d="M20.3303 15.0345L3.96518 1.15873C3.52279 0.783632 2.80338 0.768084 2.33543 1.12351C2.09703 1.30458 1.96272 1.5532 1.95359 1.81424C1.94445 2.07528 2.06118 2.32933 2.28655 2.52042L17.8021 15.6758L1.39015 28.1412C1.15175 28.3223 1.01744 28.5709 1.00831 28.8319C0.999173 29.093 1.1159 29.347 1.34127 29.5381C1.56075 29.7242 1.85569 29.8249 2.14278 29.8311C2.42675 29.8372 2.72958 29.7572 2.96463 29.5724C2.96506 29.572 2.96549 29.5717 2.96592 29.5713L20.273 16.4261C20.2732 16.426 20.2734 16.4258 20.2736 16.4257C20.5129 16.2471 20.6466 15.9983 20.6568 15.7382C20.6671 15.4781 20.5532 15.2234 20.3303 15.0345Z" fill="#FAFAFA" stroke="#FAFAFA" stroke-width="0.321268"/>
</svg>
