<svg width="73" height="49" viewBox="0 0 73 49" fill="none" xmlns="http://www.w3.org/2000/svg">
<g clip-path="url(#clip0)">
<path d="M60.6796 31.1309V17.4765C60.6796 14.3106 58.1131 11.7441 54.9472 11.7441C51.7813 11.7441 49.2148 14.3106 49.2148 17.4765V31.1308C47.4556 32.7053 46.3486 34.9934 46.3486 37.54C46.3486 42.289 50.1983 46.1387 54.9472 46.1387C59.6961 46.1387 63.5458 42.289 63.5458 37.54C63.5458 34.9934 62.4388 32.7053 60.6796 31.1309ZM54.9472 43.2724C51.7813 43.2724 49.2148 40.706 49.2148 37.54C49.2148 35.885 49.9162 34.3497 51.1263 33.2666L52.081 32.4121V17.4765C52.081 15.8936 53.3643 14.6103 54.9473 14.6103C56.5302 14.6103 57.8135 15.8935 57.8135 17.4765V32.4121L58.7682 33.2666C59.9784 34.3497 60.6797 35.8849 60.6797 37.54C60.6796 40.706 58.1131 43.2724 54.9472 43.2724Z" fill="#2B2171"/>
<path d="M56.3805 23.209H53.5142V40.4062H56.3805V23.209Z" fill="#2B2171"/>
<path d="M54.9473 41.8389C57.3218 41.8389 59.2466 39.914 59.2466 37.5396C59.2466 35.1651 57.3218 33.2402 54.9473 33.2402C52.5729 33.2402 50.648 35.1651 50.648 37.5396C50.648 39.914 52.5729 41.8389 54.9473 41.8389Z" fill="#2B2171"/>
</g>
<g clip-path="url(#clip1)">
<path d="M16.4001 13.4857L28.939 11.4521V28.4523C28.939 29.8594 27.8906 30.9832 26.2542 31.3973C24.4561 31.8422 22.7226 31.0894 22.3763 29.7116C22.0314 28.3307 23.2091 26.8513 25.0057 26.4018C25.817 26.2016 26.6175 26.2432 27.2856 26.4787V16.2352L18.0966 17.9163L18.0535 30.6568C18.0458 31.8622 16.9558 33.0492 15.3917 33.4356C13.6167 33.8805 11.754 33.0353 11.5554 31.7714C11.2152 30.4075 12.3775 28.9434 14.1586 28.497C14.9591 28.2968 15.7427 28.3369 16.4001 28.5678V13.4857ZM11.6862 19.7205L11.7309 3.97335C11.7309 3.97335 15.1608 3.79016 18.5153 9.0505C18.5153 9.0505 18.5245 6.33489 15.9459 4.34744C10.9104 0.831309 10.9242 0 10.9242 0C9.96359 0.112381 9.86507 0.842086 9.86507 0.842086V17.4236C9.1446 17.1712 8.2825 17.1265 7.39885 17.3467C5.44373 17.83 4.16598 19.4449 4.54007 20.9459C4.76021 22.333 6.80462 23.2643 8.75819 22.7733C10.4747 22.3453 11.6739 21.0491 11.6832 19.7205H11.6862ZM20.806 9.54466C21.4033 9.39534 21.8205 8.94427 21.8236 8.48244H21.8251L21.8405 3.00349C21.8405 3.00349 23.0336 2.94037 24.2005 4.77079C24.2005 4.77079 24.2021 3.82556 23.3046 3.13588C21.5527 1.91201 21.5588 1.62259 21.5588 1.62259C21.2248 1.66108 21.1893 1.91509 21.1893 1.91509V7.68499C20.94 7.59571 20.6413 7.58031 20.3334 7.65574C19.6514 7.82354 19.2096 8.38699 19.3389 8.90887C19.4159 9.39226 20.1271 9.71554 20.806 9.54466ZM26.7176 9.55852C27.1332 9.45537 27.4226 9.13978 27.4257 8.81804L27.4365 5.00171C27.4365 5.00171 28.2678 4.95707 29.0806 6.23174C29.0806 6.23174 29.0822 5.57285 28.4587 5.09254C27.2379 4.23968 27.241 4.03801 27.241 4.03801C27.0085 4.06572 26.9839 4.24276 26.9839 4.24276V8.26229C26.8099 8.20071 26.6006 8.18994 26.3866 8.24382C25.9124 8.36082 25.603 8.75184 25.6938 9.11515C25.7462 9.4523 26.2419 9.6786 26.7176 9.55852Z" fill="#2B2171"/>
</g>
<line x1="45.4209" y1="2.53051" x2="30.9052" y2="48.1512" stroke="#2B2171"/>
<defs>
<clipPath id="clip0">
<rect x="37.75" y="11.7441" width="34.3945" height="34.3945" fill="white"/>
</clipPath>
<clipPath id="clip1">
<rect width="33.5556" height="33.5556" fill="white"/>
</clipPath>
</defs>
</svg>
