<svg width="48" height="48" viewBox="0 0 48 48" fill="none" xmlns="http://www.w3.org/2000/svg">
<path d="M38.7011 0H14.0183C12.6187 0 11.48 1.13871 11.48 2.53837C11.48 2.53837 11.48 5.47608 11.48 6.45528C11.48 7.1575 10.8285 7.12216 10.8285 7.12216H10.3143C8.35473 7.12216 6.76053 8.71636 6.76053 10.6759V20.941C6.76053 22.9005 8.35473 24.4947 10.3143 24.4947H24.8371C25.1123 24.4947 25.3448 24.7272 25.3448 25.0024C25.3448 25.0024 25.3448 31.7163 25.3448 33.9544C25.3448 34.3816 24.8958 34.4405 24.6977 34.4811C23.311 34.7656 22.2648 35.9955 22.2648 37.4653V44.954C22.2648 46.6335 23.6313 48 25.3109 48H28.6282C30.3078 48 31.6742 46.6335 31.6742 44.954V37.4653C31.6742 35.8575 30.4221 34.5368 28.8419 34.4267C28.7714 34.4217 28.3908 34.3775 28.3908 33.9713C28.3908 31.7291 28.3908 25.0025 28.3908 25.0025C28.3908 23.0429 26.7966 21.4487 24.8371 21.4487H10.3144C10.0392 21.4487 9.80668 21.2162 9.80668 20.9411V10.6759C9.80668 10.4007 10.0392 10.1682 10.3144 10.1682H10.8624C10.8624 10.1682 11.4801 10.0683 11.4801 10.7451C11.4801 11.7469 11.4801 14.752 11.4801 14.752C11.4801 16.1517 12.6188 17.2904 14.0184 17.2904H38.7011C40.1007 17.2904 41.2394 16.1517 41.2394 14.752V2.53837C41.2394 1.13871 40.1007 0 38.7011 0Z" fill="#2B2171"/>
</svg>
