<svg width="12" height="12" viewBox="0 0 12 12" fill="none" xmlns="http://www.w3.org/2000/svg">
<path d="M3.04747 0.191807L2.65167 0.584883C2.52805 0.708591 2.45996 0.873178 2.45996 1.04908C2.45996 1.22489 2.52805 1.38967 2.65167 1.51338L7.1358 5.99732L2.64669 10.4864C2.52308 10.6099 2.45508 10.7747 2.45508 10.9505C2.45508 11.1263 2.52308 11.2912 2.64669 11.4148L3.04006 11.808C3.29587 12.064 3.71255 12.064 3.96836 11.808L9.3324 6.46317C9.45592 6.33966 9.54294 6.17507 9.54294 5.99771V5.99566C9.54294 5.81975 9.45582 5.65517 9.3324 5.53165L3.9829 0.191807C3.85938 0.0680981 3.68982 0.00019455 3.51401 0C3.33811 0 3.17089 0.0680981 3.04747 0.191807Z" fill="#E0E0E0"/>
</svg>
