<svg width="12" height="15" viewBox="0 0 12 15" fill="none" xmlns="http://www.w3.org/2000/svg">
<path d="M9.78163 1.46537C8.7973 0.520435 7.43511 0 5.94598 0C3.67127 0 2.27222 0.932438 1.49913 1.71461C0.546355 2.67855 0 3.95847 0 5.22626C0 6.81805 0.66581 8.03981 1.7808 8.49433C1.85565 8.525 1.93097 8.54045 2.00481 8.54045C2.24003 8.54045 2.42641 8.38655 2.49098 8.13966C2.52861 7.99802 2.61583 7.6486 2.65374 7.49691C2.73491 7.19735 2.66933 7.05327 2.49231 6.84466C2.16983 6.4631 2.01966 6.01189 2.01966 5.42467C2.01966 3.68045 3.31844 1.82669 5.72561 1.82669C7.6356 1.82669 8.82207 2.91225 8.82207 4.6597C8.82207 5.76242 8.58455 6.78364 8.15313 7.53537C7.85334 8.0577 7.32617 8.68034 6.51687 8.68034C6.1669 8.68034 5.85254 8.53658 5.65417 8.28596C5.46678 8.04903 5.40502 7.74297 5.48039 7.42399C5.56553 7.0636 5.68161 6.68766 5.79397 6.32422C5.99888 5.66044 6.19259 5.03351 6.19259 4.53333C6.19259 3.67777 5.66662 3.10292 4.8839 3.10292C3.88915 3.10292 3.10983 4.11325 3.10983 5.40304C3.10983 6.0356 3.27795 6.50871 3.35405 6.69038C3.22873 7.22133 2.48396 10.3779 2.34269 10.9732C2.26101 11.3207 1.76894 14.0651 2.5834 14.284C3.4985 14.5298 4.31646 11.8569 4.39971 11.5549C4.46719 11.3092 4.70328 10.3804 4.84797 9.80939C5.28972 10.2349 6.00101 10.5226 6.6931 10.5226C7.99783 10.5226 9.17121 9.93544 9.99711 8.86944C10.7981 7.83549 11.2393 6.39438 11.2393 4.81176C11.2393 3.57451 10.7079 2.35478 9.78163 1.46537Z" fill="black"/>
</svg>
