<svg width="48" height="48" viewBox="0 0 48 48" fill="none" xmlns="http://www.w3.org/2000/svg">
<g clip-path="url(#clip0)">
<path d="M26.4828 40.0244V36.7246H0V40.0378C0 43.0382 2.42457 45.5177 5.42538 45.5177H29.1518C28.9243 45.3108 28.7049 45.1294 28.4976 44.9217C27.2016 43.6217 26.4767 41.8598 26.4828 40.0244Z" fill="#2B2171"/>
<path d="M18.7508 20.0197L22.5937 22.6581L26.4516 20.0197C27.5067 19.3 28.3448 17.676 28.3448 16.399V10.947L22.6034 8.10742L16.8621 10.9397V16.399C16.8621 17.6756 17.6953 19.3 18.7508 20.0197ZM19.616 14.8667C19.9 14.5855 20.3587 14.5875 20.6399 14.872L21.794 16.0374L24.5718 13.26C24.8547 12.9772 25.3133 12.9772 25.5962 13.2604C25.879 13.5433 25.8786 14.002 25.5958 14.2848L22.3036 17.5786C22.1678 17.7148 21.984 17.7924 21.7916 17.7932H21.79C21.5968 17.792 21.4122 17.714 21.2772 17.5758L19.6107 15.8923C19.3295 15.6074 19.3319 15.1488 19.616 14.8667Z" fill="#2B2171"/>
<path d="M44.1615 2.48242H44.1385C42.0109 2.48242 40.2414 4.26003 40.2414 6.3888V13.0341H48V6.37587C48.0097 4.24306 46.2943 2.50303 44.1615 2.48242Z" fill="#2B2171"/>
<path d="M11.1175 2.48242C9.10555 2.48242 7.46816 4.09799 7.46816 6.07967L7.25439 35.2755H27.207C27.6131 35.2917 27.9335 35.6267 27.9311 36.0336V40.0236C27.9238 43.0402 30.3557 45.4951 33.3719 45.5169H33.39C36.3953 45.4951 38.8138 43.0414 38.7932 40.0362V6.39002C38.7932 4.86779 39.4781 3.5169 40.5074 2.48242L11.1175 2.48242ZM15.4139 10.4875C15.4046 10.2152 15.5537 9.96181 15.7966 9.83735L22.2815 6.65026C22.4807 6.55166 22.7143 6.55166 22.9135 6.65026L29.4101 9.84624C29.653 9.9707 29.8021 10.2237 29.7932 10.4964V16.3986C29.7932 18.1552 28.7211 20.2262 27.2692 21.2159L23.0149 24.133C22.8957 24.215 22.7543 24.2591 22.6096 24.2591C22.4653 24.2591 22.3247 24.2154 22.2063 24.133L17.9395 21.2159C16.4884 20.2258 15.4139 18.1548 15.4139 16.3986V10.4875ZM32.8966 31.9652H13.0346C12.6345 31.9652 12.3104 31.6411 12.3104 31.241C12.3104 30.841 12.6345 30.5169 13.0346 30.5169H32.8966C33.2967 30.5169 33.6208 30.841 33.6208 31.241C33.6208 31.6411 33.2967 31.9652 32.8966 31.9652ZM32.8966 28.1376H13.0346C12.6345 28.1376 12.3104 27.8135 12.3104 27.4135C12.3104 27.0134 12.6345 26.6893 13.0346 26.6893H32.8966C33.2967 26.6893 33.6208 27.0134 33.6208 27.4135C33.6208 27.8135 33.2967 28.1376 32.8966 28.1376Z" fill="#2B2171"/>
</g>
<defs>
<clipPath id="clip0">
<rect width="48" height="48" fill="white"/>
</clipPath>
</defs>
</svg>
