<svg width="26" height="42" viewBox="0 0 26 42" fill="none" xmlns="http://www.w3.org/2000/svg">
<path d="M1.49559 21.8901L21.9608 40.8466C22.5431 41.3859 23.4827 41.3943 24.0828 40.8655C24.6988 40.3226 24.7138 39.4291 24.116 38.8754L4.74014 20.928L24.7095 3.33028C25.3255 2.78741 25.3404 1.8939 24.7427 1.34024C24.4556 1.07426 24.07 0.931567 23.693 0.928217C23.3214 0.924913 22.9286 1.04915 22.6281 1.32309C22.6275 1.32366 22.6268 1.32425 22.6262 1.32483L1.53982 19.9068C1.53949 19.9071 1.53915 19.9074 1.53882 19.9077C0.921864 20.4421 0.906819 21.3448 1.49559 21.8901Z" fill="#F2F2F2" stroke="#F2F2F2" stroke-width="0.535405"/>
</svg>
