<svg width="25" height="42" viewBox="0 0 25 42" fill="none" xmlns="http://www.w3.org/2000/svg">
<path d="M24.3131 20.1711L3.84784 1.21465C3.29681 0.704244 2.40533 0.696319 1.83743 1.19678C1.25852 1.70693 1.24456 2.54303 1.80626 3.06333L21.2495 21.0731L1.21076 38.732C0.631847 39.2421 0.617888 40.0782 1.17959 40.5985C1.45096 40.8499 1.8165 40.9854 2.17382 40.9886C2.52751 40.9917 2.89918 40.8733 3.18204 40.6152C3.18248 40.6148 3.18293 40.6144 3.18337 40.614L24.2715 22.0304C24.2717 22.0302 24.272 22.03 24.2722 22.0298C24.8517 21.528 24.8658 20.6831 24.3131 20.1711Z" fill="#F2F2F2" stroke="#F2F2F2" stroke-width="0.368957"/>
</svg>
