<svg width="20" height="20" viewBox="0 0 20 20" fill="none" xmlns="http://www.w3.org/2000/svg">
<path d="M19.1768 1.99485L19.3536 1.81808L19.1768 1.6413L18.3587 0.823223L18.1819 0.646447L18.0051 0.823223L10 8.82837L1.99485 0.823223L1.81808 0.646447L1.6413 0.823223L0.823223 1.6413L0.646447 1.81808L0.823223 1.99485L8.82837 10L0.823223 18.0051L0.646447 18.1819L0.823223 18.3587L1.6413 19.1768L1.81808 19.3536L1.99485 19.1768L10 11.1716L18.0051 19.1768L18.1819 19.3536L18.3587 19.1768L19.1768 18.3587L19.3536 18.1819L19.1768 18.0051L11.1716 10L19.1768 1.99485Z" fill="white" stroke="white" stroke-width="0.5"/>
</svg>
