<svg width="49" height="48" viewBox="0 0 49 48" fill="none" xmlns="http://www.w3.org/2000/svg">
<g clip-path="url(#clip0)">
<path d="M24.0808 17.6244C24.5399 17.8016 24.9903 17.3681 24.8381 16.9069C23.7937 13.7411 20.012 12.5601 16.4966 15.3688C14.6474 16.8464 13.9525 17.1604 13.935 17.1683C15.154 18.3672 16.5467 22.3902 19.5861 22.8351C22.9343 23.4322 25.8976 20.1921 23.4732 18.7095C21.8787 17.7345 20.0015 17.1682 17.9892 17.1682C20.0988 16.7005 22.2048 16.901 24.0808 17.6244Z" fill="#2B2171"/>
<path d="M39.2418 15.3684C33.1735 10.52 29.3035 18.166 31.709 17.4081C33.4176 16.8698 35.2854 16.7525 37.1589 17.1679C33.9845 17.1679 31.0584 18.5988 29.1074 20.9279C29.2676 17.2677 29.51 14.9766 29.791 13.2723C31.4125 13.2175 33.5737 11.9295 34.7605 9.6758C36.8066 6.07405 35.8578 2.38106 35.5524 0.0507812C33.9536 1.58214 26.9696 -0.212208 24.201 4.45435C22.978 6.51575 23.3334 9.02422 24.62 10.8599C25.0272 11.441 26.001 11.1622 26.0288 10.457C26.1496 7.3891 27.7019 5.07124 30.5958 3.78745C29.2973 5.44238 28.4446 7.29519 28.0042 9.21021C27.3195 12.1934 26.6044 14.1503 26.3418 23.6584C26.3151 24.6227 27.1093 25.4209 28.0899 25.4088C28.7998 25.4 29.408 24.9569 29.681 24.3123C30.0962 23.3319 30.772 22.3172 31.8718 21.3875C32.9169 22.5237 34.5072 23.1283 36.1527 22.8348C39.1791 22.3918 40.5916 18.36 41.8038 17.1678C41.786 17.1601 41.091 16.8461 39.2418 15.3684Z" fill="#2B2171"/>
<path d="M48.1625 27.2157C46.2654 25.9497 44.2007 26.8519 43.2525 27.3904L31.3531 35.9568L24.3857 35.9583L22.6439 34.245H29.0425C30.9669 34.245 33.1221 33.0121 33.1221 30.8177C33.1221 28.488 30.9669 27.3904 29.0425 27.3904H26.6447C24.8634 27.3904 22.7818 27.5466 21.3141 26.7738C19.9197 26.0759 18.3139 25.6787 16.5998 25.6787C13.7216 25.6787 11.1455 26.8073 9.38024 28.5872L0 37.6701L10.451 47.9498L13.9347 42.8099H30.3968C32.1525 42.8099 33.8472 42.1765 35.1597 41.0296L48.2816 29.564C49.0111 28.9267 48.9699 27.7547 48.1625 27.2157Z" fill="#2B2171"/>
</g>
<defs>
<clipPath id="clip0">
<rect width="48.8" height="48" fill="white"/>
</clipPath>
</defs>
</svg>
