<svg width="20" height="20" viewBox="0 0 20 20" fill="none" xmlns="http://www.w3.org/2000/svg">
<path d="M18.9851 0.400391H14.4468C14.1076 0.400391 13.8326 0.675353 13.8326 1.01456C13.8326 1.35376 14.1076 1.62872 14.4468 1.62872H17.5024L12.5792 6.55195C12.3393 6.79181 12.3393 7.18067 12.5792 7.4205C12.819 7.66034 13.2079 7.66037 13.4477 7.4205L18.371 2.49728V5.55285C18.371 5.89206 18.6459 6.16702 18.9851 6.16702C19.3243 6.16702 19.5993 5.89206 19.5993 5.55285V1.01456C19.5993 0.680297 19.3276 0.400391 18.9851 0.400391Z" fill="black"/>
<path d="M19.6111 18.9757V14.4446C19.6111 14.106 19.3357 13.8315 18.9959 13.8315C18.6562 13.8315 18.3808 14.106 18.3808 14.4446V17.4953L13.4495 12.58C13.2093 12.3405 12.8198 12.3405 12.5795 12.58C12.3393 12.8194 12.3393 13.2077 12.5795 13.4472L17.5108 18.3625H14.4502C14.1105 18.3625 13.8351 18.637 13.8351 18.9757C13.8351 19.3144 14.1105 19.5889 14.4502 19.5889H18.9959C19.3307 19.5889 19.6111 19.3177 19.6111 18.9757Z" fill="black"/>
<path d="M7.41958 12.5803C7.17972 12.3404 6.79086 12.3404 6.55102 12.5803L1.62781 17.5036V14.448C1.62781 14.1088 1.35285 13.8338 1.01364 13.8338C0.674437 13.8338 0.399475 14.1088 0.399475 14.448V18.9864C0.399475 19.3201 0.671336 19.6006 1.01364 19.6006H5.55196C5.89116 19.6006 6.16613 19.3256 6.16613 18.9864C6.16613 18.6472 5.89116 18.3722 5.55196 18.3722H2.49636L7.41958 13.4489C7.65944 13.209 7.65944 12.8201 7.41958 12.5803Z" fill="black"/>
<path d="M7.41948 7.42049C7.65931 7.18063 7.65934 6.79177 7.41948 6.55194L2.49638 1.62872H5.55188C5.89108 1.62872 6.16603 1.35376 6.16603 1.01456C6.16603 0.675353 5.89108 0.400391 5.55188 0.400391H1.0137C0.680031 0.400391 0.399549 0.672251 0.399549 1.01456V5.55288C0.399549 5.89208 0.674504 6.16704 1.0137 6.16704C1.3529 6.16704 1.62785 5.89208 1.62785 5.55288V2.49728L6.55095 7.42049C6.79081 7.66036 7.17966 7.66036 7.41948 7.42049Z" fill="black"/>
</svg>
