<svg width="48" height="48" viewBox="0 0 48 48" fill="none" xmlns="http://www.w3.org/2000/svg">
<g clip-path="url(#clip0)">
<path d="M29.9309 31.1649C30.83 29.6622 32.1521 28.8924 33.9052 28.8719C35.6584 28.8513 36.5432 27.9583 36.5719 26.2011C36.5965 24.4521 37.3581 23.13 38.8608 22.235C40.3676 21.3358 40.694 20.1267 39.8359 18.5952C38.982 17.0679 38.982 15.5406 39.8359 14.0091C40.694 12.4818 40.3697 11.2747 38.8608 10.3756C37.3581 9.47438 36.5945 8.15439 36.5719 6.39714C36.5432 4.6481 35.6584 3.75511 33.9052 3.73458C32.1521 3.70994 30.83 2.94423 29.9309 1.44153C29.0317 -0.0652686 27.8226 -0.391674 26.2953 0.466423C24.7679 1.32041 23.2365 1.32041 21.7092 0.466423C20.1798 -0.389621 18.9707 -0.0652686 18.0715 1.44153C17.1744 2.94628 15.8503 3.712 14.0992 3.73458C12.3502 3.75511 11.4613 4.6481 11.4367 6.39714C11.4079 8.15439 10.6463 9.47232 9.14361 10.3756C7.63681 11.2747 7.3063 12.4798 8.1685 14.0091C9.0266 15.5406 9.0266 17.0679 8.1685 18.5952C7.3063 20.1267 7.63476 21.3379 9.14361 22.235C10.6463 23.13 11.41 24.4521 11.4367 26.2011C11.4613 27.9563 12.3502 28.8513 14.0992 28.8719C15.8524 28.8924 17.1744 29.6622 18.0736 31.1649C18.9727 32.6717 20.1818 32.9981 21.7092 32.1359C23.2365 31.2901 24.7679 31.2901 26.2953 32.1359C27.8226 32.9961 29.0338 32.6717 29.9309 31.1649ZM24.0063 25.8952C18.7058 25.8952 14.4113 21.6006 14.4113 16.3001C14.4113 11.0038 18.7058 6.70917 24.0063 6.70917C29.3027 6.70917 33.5973 11.0038 33.5973 16.3001C33.5973 21.6006 29.3027 25.8952 24.0063 25.8952Z" fill="#2B2171"/>
<path d="M13.9452 30.278C12.1018 30.278 11.8554 29.4199 11.8554 29.4199L4.65603 43.5703L10.4287 42.9216L13.6209 47.7253C13.6209 47.7253 20.2721 33.8479 20.2721 33.9403C16.8254 33.8541 18.1967 30.3704 13.9452 30.278Z" fill="#2B2171"/>
<path d="M36.0545 29.9746C30.7951 30.5248 31.8646 31.8304 30.6616 32.8445C29.278 34.3205 27.5495 34.0311 27.5495 34.0311L35.6686 48.0008L37.666 42.8276L43.3442 43.5687L36.0545 29.9746Z" fill="#2B2171"/>
<path d="M26.01 14.1838L24.0023 10.1191L21.9926 14.1838L17.4989 14.8407L20.7465 18.0083L19.9808 22.4876L24.0023 20.3752L28.0239 22.4876L27.2582 18.0083L30.5058 14.8407L26.01 14.1838Z" fill="#2B2171"/>
</g>
<defs>
<clipPath id="clip0">
<rect width="48" height="48" fill="white"/>
</clipPath>
</defs>
</svg>
